<?xml version="1.0" encoding="UTF-8"?>
<svg id="Layer_4" data-name="Layer 4" xmlns="http://www.w3.org/2000/svg" viewBox="0 0 1003.58 1003.22">
  <defs>
    <style>
      .cls-1 {
        stroke-width: 18px;
      }

      .cls-1, .cls-2, .cls-3 {
        fill: none;
        stroke: #e23e57;
        stroke-miterlimit: 10;
      }

      .cls-2 {
        stroke-width: 4px;
      }

      .cls-3 {
        stroke-width: 7px;
      }
    </style>
  </defs>
  <line class="cls-1" x1="249.58" y1="223.11" x2="195.85" y2="223.11"/>
  <line class="cls-2" x1="879.76" y1="35.39" x2="879.76" y2="146.61"/>
  <line class="cls-2" x1="435.41" y1="593.62" x2="435.41" y2="601.64"/>
  <line class="cls-2" x1="127.69" y1="316.24" x2="140.41" y2="322.92"/>
  <line class="cls-2" x1="806.56" y1="413.5" x2="806.48" y2="427.57"/>
  <line class="cls-2" x1="586.84" y1="475.2" x2="592.6" y2="486"/>
  <line class="cls-2" x1="899.84" y1="918.2" x2="905.6" y2="929"/>
  <line class="cls-3" x1="222.88" y1="456.44" x2="222.88" y2="342.78"/>
  <line class="cls-2" x1="117.46" y1="726.32" x2="149.06" y2="726.32"/>
  <line class="cls-2" x1="5.3" y1="726" x2="5.3" y2="732.8"/>
  <line class="cls-2" x1="1.69" y1="617.1" x2="5.3" y2="622.77"/>
  <line class="cls-2" x1="498.58" y1="342.6" x2="498.55" y2="360.54"/>
  <line class="cls-2" x1="161.41" y1="774.84" x2="163.05" y2="784"/>
  <line class="cls-2" x1="140.41" y1="32.67" x2="149.06" y2="43.47"/>
  <line class="cls-2" x1="673.58" y1="91.11" x2="662.46" y2="91.11"/>
  <line class="cls-2" x1="269.58" y1="972.11" x2="286.62" y2="972.11"/>
  <line class="cls-2" x1="750.58" y1="804.11" x2="750.58" y2="814.59"/>
</svg>