<?xml version="1.0" encoding="UTF-8"?>
<svg id="Layer_3" data-name="Layer 3" xmlns="http://www.w3.org/2000/svg" viewBox="0 0 1003.29 1003.22">
  <defs>
    <style>
      .cls-1 {
        fill: none;
        stroke: #e23e57;
        stroke-miterlimit: 10;
        stroke-width: 4px;
      }
    </style>
  </defs>
  <path class="cls-1" d="m501.65,1001.22c-4.34,0-8.65-.15-12.95-.3l-6.04-.2-.99-2.68c-2.87-7.78-5.69-16.79-8.41-25.5-2.09-6.66-4.16-13.3-6.27-19.43-11.59-.86-22.26-2.02-32.44-3.52-3.52,5.68-7.13,11.9-10.74,18.12-4.46,7.68-9.07,15.62-13.45,22.4l-1.55,2.42-2.82-.55c-11.25-2.19-21.42-4.49-31.09-7.02l-2.76-.73-.37-2.84c-1.05-8.17-1.79-17.54-2.51-26.6-.55-7.02-1.1-14.03-1.8-20.53-10.02-3.11-20.35-6.75-30.77-10.84-4.7,4.74-9.6,9.98-14.51,15.23-6.1,6.52-12.4,13.26-18.21,18.91l-2.06,2-2.62-1.17c-9.92-4.41-19.59-9.08-28.75-13.88l-2.53-1.33.28-2.85c.8-8.15,2.17-17.37,3.49-26.29,1.04-7.02,2.08-14.02,2.85-20.56-9.49-5.5-18.76-11.32-27.62-17.33-5.61,3.56-11.53,7.56-17.45,11.56-7.45,5.03-15.15,10.23-22.12,14.47l-2.44,1.49-2.29-1.71c-7.58-5.67-15.48-12.03-24.85-20.01l-2.18-1.86.91-2.71c2.59-7.76,5.97-16.44,9.23-24.83,2.56-6.59,5.12-13.18,7.33-19.37-7.92-7.37-15.67-15.13-23.08-23.09-6.21,2.22-12.81,4.79-19.42,7.36-8.38,3.25-17.03,6.62-24.78,9.21l-2.72.91-1.86-2.18c-7.9-9.27-14.25-17.16-20-24.84l-1.71-2.3,1.49-2.45c4.24-6.98,9.44-14.69,14.48-22.15,4-5.92,7.99-11.83,11.54-17.43-5.94-8.74-11.76-18-17.33-27.62-6.48.77-13.41,1.8-20.36,2.83-8.99,1.33-18.29,2.71-26.51,3.51l-2.85.28-1.33-2.53c-4.86-9.28-9.53-18.95-13.87-28.75l-1.17-2.62,2-2.06c5.65-5.81,12.38-12.1,18.89-18.19,5.25-4.9,10.51-9.82,15.25-14.52-4.08-10.41-7.72-20.74-10.84-30.78-6.52-.7-13.55-1.25-20.59-1.81-9.04-.71-18.38-1.45-26.55-2.5l-2.84-.37-.73-2.77c-2.56-9.77-4.85-19.94-7.01-31.09l-.55-2.81,2.41-1.56c6.79-4.39,14.74-9.01,22.43-13.48,6.2-3.6,12.41-7.21,18.08-10.73-1.5-10.17-2.65-20.83-3.51-32.43-6.12-2.1-12.75-4.17-19.39-6.25-8.73-2.72-17.75-5.55-25.55-8.42l-2.69-.99-.21-6.52c-.14-4.15-.28-8.29-.28-12.47s.14-8.32.28-12.46l.21-6.53,2.69-.99c7.77-2.86,16.76-5.67,25.46-8.4,6.68-2.09,13.34-4.17,19.49-6.28.86-11.6,2.01-22.26,3.51-32.43-5.68-3.52-11.9-7.14-18.11-10.74-7.68-4.46-15.62-9.07-22.4-13.45l-2.41-1.55.55-2.82c2.16-11.15,4.45-21.32,7.01-31.08l.73-2.77,2.84-.37c8.21-1.06,17.61-1.8,26.7-2.52,6.98-.55,13.96-1.1,20.43-1.79,3.12-10.06,6.76-20.39,10.84-30.78-4.73-4.68-9.96-9.58-15.2-14.47-6.52-6.11-13.28-12.42-18.94-18.24l-2-2.06,1.16-2.62c4.29-9.69,8.96-19.36,13.87-28.75l1.33-2.54,2.85.28c8.2.81,17.48,2.18,26.46,3.5,6.96,1.03,13.92,2.06,20.41,2.84,5.57-9.6,11.39-18.87,17.34-27.61-3.55-5.59-7.53-11.49-11.52-17.39-5.05-7.47-10.27-15.2-14.51-22.19l-1.49-2.45,1.72-2.3c5.74-7.66,12.09-15.56,20.01-24.84l1.86-2.18,2.72.91c7.77,2.6,16.45,5.97,24.85,9.24,6.58,2.56,13.16,5.12,19.34,7.33,7.39-7.94,15.14-15.69,23.08-23.1-2.21-6.2-4.78-12.8-7.34-19.4-3.26-8.38-6.63-17.05-9.22-24.79l-.91-2.72,2.18-1.86c9.33-7.96,17.23-14.33,24.85-20.02l2.3-1.71,2.44,1.49c7,4.24,14.73,9.47,22.2,14.52,5.89,3.99,11.79,7.98,17.38,11.52,8.72-5.93,17.98-11.75,27.61-17.34-.78-6.53-1.81-13.53-2.85-20.53-1.32-8.93-2.69-18.17-3.49-26.33l-.28-2.84,2.54-1.33c9.34-4.88,19.01-9.55,28.75-13.86l2.62-1.16,2.05,2c5.79,5.64,12.07,12.35,18.15,18.84,4.93,5.26,9.85,10.53,14.57,15.28,10.44-4.08,20.77-7.72,30.78-10.84.7-6.51,1.25-13.52,1.8-20.54.71-9.05,1.45-18.42,2.5-26.59l.37-2.84,2.76-.72c9.74-2.55,19.91-4.84,31.09-7.01l2.82-.55,1.55,2.41c4.36,6.76,8.96,14.68,13.4,22.33,3.62,6.24,7.25,12.49,10.79,18.19,10.17-1.5,20.84-2.66,32.43-3.52,2.1-6.12,4.17-12.76,6.25-19.4,2.73-8.72,5.55-17.74,8.42-25.53l.99-2.68,6.04-.2c8.62-.3,17.29-.3,25.91,0l6.04.2.99,2.68c2.86,7.77,5.68,16.77,8.4,25.47,2.09,6.67,4.17,13.33,6.28,19.47,11.67.87,22.33,2.03,32.44,3.52,3.52-5.68,7.13-11.91,10.74-18.12,4.46-7.68,9.07-15.62,13.45-22.4l1.55-2.41,2.82.55c11.2,2.17,21.38,4.46,31.1,7.01l2.76.72.37,2.84c1.05,8.2,1.79,17.6,2.51,26.69.55,6.99,1.1,13.97,1.79,20.45,10.03,3.11,20.36,6.75,30.78,10.84,4.71-4.75,9.63-10.01,14.54-15.27,6.08-6.5,12.37-13.23,18.17-18.87l2.06-2,2.62,1.16c9.71,4.31,19.39,8.97,28.76,13.87l2.54,1.33-.28,2.85c-.8,8.16-2.17,17.4-3.5,26.33-1.04,7-2.07,14-2.85,20.53,9.6,5.57,18.87,11.38,27.61,17.33,5.62-3.56,11.55-7.57,17.48-11.57,7.44-5.02,15.14-10.23,22.1-14.45l2.45-1.49,2.3,1.71c7.67,5.74,15.56,12.1,24.84,20.01l2.18,1.86-.91,2.72c-2.58,7.72-5.94,16.37-9.19,24.73-2.58,6.62-5.15,13.24-7.37,19.47,7.97,7.42,15.72,15.17,23.09,23.08,6.23-2.22,12.87-4.8,19.51-7.38,8.35-3.25,16.98-6.6,24.69-9.18l2.72-.91,1.86,2.18c7.92,9.28,14.27,17.18,20,24.84l1.71,2.29-1.49,2.45c-4.22,6.96-9.42,14.65-14.44,22.09-4.01,5.93-8.02,11.87-11.59,17.49,5.97,8.78,11.79,18.05,17.34,27.62,6.47-.77,13.41-1.8,20.35-2.83,9-1.33,18.3-2.71,26.52-3.51l2.85-.28,1.33,2.53c4.84,9.26,9.51,18.92,13.87,28.74l1.16,2.62-2,2.06c-5.66,5.83-12.42,12.14-18.95,18.25-5.23,4.89-10.46,9.78-15.19,14.46,4.08,10.4,7.72,20.73,10.83,30.78,6.47.69,13.45,1.24,20.43,1.79,9.09.72,18.5,1.45,26.71,2.52l2.84.37.72,2.77c2.56,9.83,4.86,20,7.01,31.08l.55,2.82-2.41,1.55c-6.79,4.39-14.75,9.01-22.45,13.48-6.2,3.6-12.4,7.2-18.07,10.72,1.5,10.16,2.66,20.83,3.51,32.44,6.14,2.11,12.8,4.19,19.47,6.27,8.7,2.72,17.7,5.53,25.47,8.4l2.68.99.21,6.36c.15,4.2.29,8.39.29,12.63s-.14,8.45-.29,12.66l-.21,6.33-2.68.99c-7.77,2.86-16.77,5.67-25.46,8.4-6.67,2.09-13.33,4.17-19.47,6.28-.86,11.61-2.01,22.26-3.51,32.42,5.68,3.53,11.91,7.14,18.13,10.76,7.68,4.46,15.61,9.07,22.39,13.45l2.41,1.56-.55,2.81c-2.15,11.09-4.45,21.26-7.01,31.09l-.72,2.77-2.84.37c-8.16,1.05-17.51,1.79-26.55,2.5-7.03.55-14.06,1.11-20.59,1.81-3.11,10.03-6.74,20.36-10.83,30.78,4.73,4.69,9.97,9.59,15.2,14.48,6.52,6.1,13.27,12.42,18.93,18.24l2,2.06-1.16,2.62c-4.35,9.81-9.02,19.49-13.87,28.75l-1.33,2.54-2.85-.28c-8.19-.81-17.47-2.18-26.43-3.51-6.97-1.03-13.94-2.06-20.44-2.84-5.54,9.55-11.35,18.82-17.33,27.61,3.57,5.63,7.58,11.57,11.6,17.52,5.02,7.43,10.21,15.11,14.43,22.07l1.49,2.45-1.71,2.3c-5.72,7.65-12.08,15.55-20.01,24.85l-1.86,2.18-2.72-.91c-7.75-2.59-16.42-5.96-24.79-9.22-6.61-2.57-13.21-5.14-19.41-7.35-7.46,8-15.2,15.75-23.08,23.09,2.21,6.19,4.77,12.79,7.34,19.38,3.26,8.39,6.64,17.07,9.22,24.83l.91,2.71-2.18,1.86c-9.34,7.95-17.23,14.3-24.85,19.99l-2.3,1.72-2.45-1.49c-6.95-4.22-14.64-9.41-22.06-14.43-5.94-4.01-11.89-8.03-17.51-11.6-8.72,5.93-17.98,11.75-27.61,17.34.78,6.55,1.82,13.57,2.86,20.6,1.32,8.91,2.68,18.12,3.48,26.27l.28,2.84-2.54,1.33c-9.34,4.88-19.01,9.55-28.75,13.87l-2.62,1.16-2.05-2c-5.8-5.64-12.1-12.37-18.19-18.88-4.91-5.25-9.82-10.51-14.53-15.25-10.43,4.09-20.76,7.73-30.79,10.84-.7,6.51-1.25,13.52-1.8,20.54-.71,9.05-1.45,18.41-2.5,26.58l-.37,2.84-2.76.73c-9.67,2.53-19.84,4.83-31.09,7.02l-2.82.55-1.55-2.42c-4.37-6.77-8.97-14.7-13.43-22.37-3.61-6.23-7.23-12.46-10.76-18.16-10.17,1.5-20.84,2.66-32.43,3.52-2.1,6.13-4.18,12.77-6.26,19.43-2.73,8.71-5.54,17.72-8.41,25.51l-.99,2.68-6.04.2c-4.31.15-8.61.3-12.95.3Zm-12.99-8.79h.33c8.41.3,16.9.3,25.31.01h.33c2.47-6.97,4.93-14.82,7.31-22.44,2.42-7.72,4.83-15.42,7.28-22.35l.93-2.62,2.78-.19c13.51-.93,25.7-2.26,37.28-4.06l2.75-.42,1.49,2.35c4.05,6.39,8.23,13.59,12.4,20.78,3.87,6.68,7.87,13.55,11.67,19.61,8.9-1.77,17.11-3.62,24.94-5.62.85-7.28,1.49-15.41,2.11-23.32.64-8.12,1.28-16.25,2.14-23.6l.32-2.76,2.66-.81c11.46-3.48,23.36-7.67,35.38-12.46l2.58-1.03,1.97,1.95c5.36,5.3,11.04,11.37,16.71,17.44,5.3,5.67,10.76,11.51,15.86,16.58,7.8-3.51,15.54-7.24,23.07-11.12-.8-7.23-1.99-15.24-3.14-23.01-1.2-8.13-2.4-16.25-3.22-23.66l-.3-2.76,2.41-1.38c11.15-6.4,21.83-13.1,31.74-19.94l2.28-1.58,2.36,1.47c6.39,3.97,13.26,8.61,20.13,13.24,6.47,4.37,13.15,8.88,19.28,12.71,6.16-4.68,12.6-9.87,19.93-16.06-2.39-6.86-5.32-14.4-8.16-21.72-2.97-7.63-5.94-15.27-8.37-22.29l-.91-2.63,2.05-1.88c9.09-8.36,18.02-17.29,26.54-26.54l1.88-2.05,2.63.91c7.04,2.44,14.68,5.41,22.32,8.38,7.31,2.84,14.84,5.77,21.7,8.16,6.18-7.32,11.38-13.76,16.08-19.95-3.83-6.13-8.33-12.8-12.7-19.28-4.63-6.87-9.27-13.74-13.24-20.13l-1.46-2.36,1.57-2.28c6.91-10.01,13.61-20.69,19.93-31.74l1.38-2.42,2.77.3c7.37.81,15.43,2,23.5,3.19,7.83,1.16,15.9,2.35,23.18,3.16,3.86-7.48,7.59-15.22,11.13-23.07-5.09-5.11-10.94-10.59-16.63-15.91-6.05-5.66-12.1-11.32-17.39-16.67l-1.95-1.97,1.03-2.58c4.78-12.01,8.97-23.92,12.44-35.38l.8-2.66,2.76-.32c7.37-.86,15.51-1.5,23.65-2.14,7.89-.62,16.02-1.26,23.29-2.11,2.02-7.94,3.87-16.15,5.62-24.94-6.06-3.82-12.95-7.81-19.63-11.7-7.18-4.17-14.38-8.35-20.75-12.4l-2.35-1.49.43-2.75c1.79-11.55,3.11-23.74,4.05-37.27l.19-2.77,2.62-.93c6.93-2.46,14.65-4.88,22.39-7.3,7.61-2.38,15.44-4.83,22.39-7.3l.02-.62c.14-4.11.28-8.23.28-12.37s-.14-8.23-.28-12.34l-.02-.65c-6.95-2.46-14.79-4.92-22.4-7.3-7.73-2.42-15.45-4.83-22.38-7.29l-2.62-.93-.19-2.77c-.93-13.53-2.26-25.73-4.05-37.28l-.43-2.75,2.35-1.49c6.36-4.03,13.53-8.19,20.69-12.35,6.71-3.89,13.61-7.91,19.68-11.73-1.75-8.79-3.59-17-5.61-24.94-7.31-.85-15.5-1.5-23.45-2.12-8.09-.63-16.17-1.27-23.49-2.13l-2.77-.32-.8-2.66c-3.48-11.5-7.66-23.4-12.45-35.37l-1.03-2.58,1.96-1.97c5.29-5.34,11.34-11,17.38-16.65,5.69-5.32,11.56-10.8,16.65-15.92-3.54-7.85-7.28-15.58-11.13-23.06-7.3.8-15.4,2-23.26,3.16-8.05,1.19-16.08,2.38-23.42,3.18l-2.77.3-1.38-2.41c-6.33-11.07-13.04-21.75-19.93-31.74l-1.58-2.29,1.47-2.36c3.96-6.39,8.6-13.25,13.23-20.11,4.38-6.48,8.89-13.16,12.72-19.3-4.71-6.19-9.9-12.63-16.07-19.93-6.83,2.37-14.32,5.29-21.59,8.12-7.68,2.99-15.35,5.97-22.42,8.41l-2.63.91-1.88-2.05c-8.39-9.14-17.32-18.06-26.54-26.53l-2.05-1.88.91-2.63c2.44-7.06,5.42-14.72,8.39-22.38,2.83-7.29,5.75-14.8,8.13-21.64-7.3-6.17-13.73-11.36-19.93-16.07-6.14,3.83-12.83,8.34-19.31,12.73-6.85,4.63-13.71,9.26-20.09,13.22l-2.36,1.47-2.28-1.58c-9.95-6.87-20.63-13.57-31.75-19.93l-2.41-1.38.3-2.77c.81-7.39,2.01-15.49,3.21-23.59,1.15-7.8,2.34-15.82,3.15-23.08-7.56-3.89-15.3-7.62-23.08-11.13-5.09,5.07-10.54,10.9-15.84,16.56-5.68,6.08-11.36,12.15-16.73,17.46l-1.98,1.96-2.58-1.03c-12-4.79-23.9-8.98-35.36-12.45l-2.67-.8-.32-2.77c-.85-7.32-1.49-15.41-2.13-23.51-.63-7.94-1.27-16.12-2.13-23.43-7.87-2.01-16.08-3.85-24.95-5.62-3.81,6.06-7.81,12.95-11.69,19.64-4.17,7.18-8.34,14.37-12.38,20.75l-1.49,2.35-2.75-.43c-11.48-1.78-23.67-3.11-37.28-4.06l-2.77-.19-.93-2.62c-2.46-6.93-4.87-14.65-7.29-22.38-2.38-7.61-4.83-15.45-7.3-22.39h-.33c-8.41-.3-16.9-.3-25.31-.01h-.33c-2.47,6.98-4.93,14.84-7.32,22.47-2.41,7.71-4.82,15.4-7.27,22.32l-.93,2.62-2.77.19c-13.51.93-25.71,2.26-37.28,4.06l-2.75.43-1.49-2.35c-4.05-6.4-8.24-13.61-12.42-20.81-3.87-6.67-7.85-13.53-11.65-19.57-8.85,1.76-17.05,3.61-24.93,5.62-.85,7.28-1.49,15.42-2.11,23.33-.64,8.12-1.28,16.25-2.14,23.6l-.32,2.76-2.66.81c-11.44,3.47-23.34,7.66-35.38,12.45l-2.58,1.03-1.97-1.95c-5.37-5.32-11.06-11.39-16.75-17.47-5.29-5.66-10.74-11.48-15.83-16.54-7.8,3.51-15.54,7.24-23.07,11.12.8,7.25,1.99,15.27,3.15,23.07,1.2,8.1,2.4,16.21,3.21,23.6l.3,2.76-2.41,1.38c-11.15,6.39-21.83,13.1-31.74,19.95l-2.29,1.58-2.36-1.47c-6.35-3.95-13.17-8.56-19.99-13.17-6.52-4.4-13.24-8.94-19.41-12.8-6.16,4.69-12.6,9.88-19.93,16.09,2.39,6.86,5.31,14.39,8.16,21.7,2.97,7.64,5.93,15.28,8.37,22.31l.91,2.63-2.05,1.89c-9.18,8.45-18.11,17.38-26.53,26.55l-1.88,2.05-2.63-.91c-7.02-2.43-14.63-5.39-22.25-8.36-7.33-2.85-14.88-5.79-21.76-8.18-6.17,7.3-11.36,13.73-16.07,19.93,3.84,6.17,8.38,12.88,12.78,19.39,4.61,6.82,9.22,13.65,13.17,20l1.47,2.36-1.58,2.29c-6.87,9.95-13.57,20.63-19.94,31.75l-1.38,2.41-2.76-.3c-7.36-.81-15.41-2-23.48-3.2-7.84-1.15-15.91-2.35-23.19-3.16-3.9,7.56-7.63,15.3-11.13,23.07,5.09,5.11,10.95,10.59,16.64,15.92,6.04,5.65,12.09,11.32,17.39,16.66l1.96,1.98-1.03,2.58c-4.78,11.96-8.97,23.87-12.45,35.37l-.81,2.66-2.76.32c-7.32.85-15.4,1.49-23.49,2.13-7.95.63-16.13,1.27-23.45,2.12-2.01,7.91-3.85,16.12-5.61,24.94,6.06,3.81,12.95,7.81,19.63,11.7,7.18,4.17,14.36,8.34,20.73,12.38l2.35,1.49-.42,2.74c-1.79,11.57-3.11,23.77-4.05,37.28l-.19,2.77-2.62.93c-6.94,2.46-14.66,4.88-22.4,7.3-7.6,2.38-15.43,4.83-22.38,7.29l-.02.81c-.14,4.04-.28,8.09-.28,12.17s.14,8.13.28,12.18l.02.81c6.97,2.47,14.84,4.93,22.47,7.32,7.71,2.41,15.4,4.81,22.31,7.26l2.62.93.19,2.77c.93,13.52,2.26,25.72,4.05,37.28l.42,2.75-2.35,1.49c-6.36,4.03-13.54,8.2-20.7,12.37-6.7,3.89-13.6,7.9-19.68,11.72,1.76,8.83,3.61,17.04,5.62,24.94,7.27.85,15.4,1.49,23.29,2.11,8.14.64,16.28,1.28,23.65,2.14l2.76.32.8,2.66c3.48,11.47,7.66,23.38,12.44,35.38l1.03,2.58-1.95,1.97c-5.3,5.36-11.37,11.04-17.44,16.7-5.67,5.3-11.51,10.76-16.59,15.86,3.53,7.84,7.26,15.58,11.13,23.07,7.3-.8,15.39-2,23.25-3.16,8.05-1.19,16.09-2.38,23.43-3.19l2.77-.3,1.38,2.41c6.36,11.13,13.07,21.81,19.93,31.74l1.58,2.29-1.47,2.36c-3.96,6.37-8.57,13.21-13.19,20.05-4.39,6.5-8.91,13.2-12.75,19.36,4.72,6.2,9.91,12.64,16.06,19.93,6.86-2.38,14.38-5.31,21.68-8.15,7.65-2.97,15.29-5.95,22.33-8.39l2.63-.9,1.88,2.05c8.46,9.21,17.39,18.14,26.53,26.54l2.05,1.88-.91,2.63c-2.43,7.03-5.39,14.65-8.36,22.28-2.85,7.32-5.78,14.86-8.16,21.73,7.36,6.22,13.79,11.42,19.93,16.08,6.15-3.84,12.84-8.36,19.33-12.74,6.85-4.63,13.69-9.25,20.07-13.21l2.36-1.46,2.29,1.57c10.1,6.96,20.78,13.66,31.75,19.93l2.41,1.38-.3,2.76c-.81,7.41-2.01,15.52-3.21,23.63-1.16,7.78-2.34,15.8-3.14,23.04,7.42,3.83,15.16,7.56,23.07,11.14,5.1-5.08,10.57-10.93,15.88-16.6,5.67-6.06,11.34-12.13,16.69-17.42l1.98-1.96,2.58,1.03c12.01,4.8,23.91,8.99,35.36,12.45l2.67.81.32,2.76c.86,7.35,1.5,15.47,2.14,23.6.62,7.91,1.27,16.05,2.12,23.34,7.83,2,16.04,3.85,24.94,5.62,3.81-6.06,7.81-12.95,11.7-19.64,4.17-7.18,8.34-14.37,12.38-20.74l1.49-2.35,2.75.42c11.58,1.8,23.77,3.13,37.28,4.06l2.77.19.93,2.62c2.45,6.92,4.86,14.63,7.28,22.35,2.38,7.62,4.84,15.46,7.31,22.42Zm70.13-190.2l-1.13-3.67c-16.91-54.72-27.02-110.05-30.05-164.47l-.2-3.58,3.49-.8c13.87-3.15,27.15-8.58,39.47-16.16l3.1-1.91,2.36,2.78c35.83,42.35,67.78,88.56,94.96,137.37l1.92,3.44-3.3,2.17c-32.78,21.53-68.74,36.36-106.87,44.05l-3.76.76Zm-22.5-165.07c3.15,51.36,12.68,103.55,28.35,155.22,34.39-7.41,66.92-20.81,96.81-39.9-25.9-46-56.08-89.64-89.77-129.81-11.17,6.48-23.04,11.34-35.39,14.49Zm-93.07,164.84l-3.86-.8c-38.17-7.9-74.06-22.89-106.68-44.55l-3.2-2.12,1.79-3.39c26.75-50.66,58.73-96.93,95.06-137.51l2.39-2.67,3.03,1.91c12.2,7.68,25.5,13.26,39.52,16.58l3.55.84-.3,3.64c-4.53,54.46-14.7,109.74-30.22,164.28l-1.08,3.8Zm-102.63-50.31c29.73,19.21,62.2,32.77,96.62,40.38,14.43-51.58,24.02-103.78,28.54-155.26-12.47-3.3-24.37-8.3-35.46-14.88-34.08,38.51-64.24,82.14-89.71,129.77Zm414.02-77.95l-3.39-1.79c-50.63-26.72-96.9-58.7-137.52-95.05l-2.67-2.39,1.91-3.03c7.69-12.2,13.27-25.5,16.59-39.53l.84-3.55,3.64.31c54.44,4.54,109.71,14.71,164.27,30.24l3.79,1.08-.8,3.86c-7.89,38.15-22.88,74.03-44.55,106.67l-2.12,3.2Zm-132.62-100.81c38.55,34.1,82.18,64.26,129.77,89.71,19.21-29.75,32.78-62.22,40.38-96.61-51.6-14.43-103.79-24.03-155.25-28.56-3.3,12.47-8.3,24.37-14.9,35.47Zm-374.02,99.74l-2.17-3.3c-21.53-32.78-36.35-68.74-44.06-106.89l-.76-3.76,3.67-1.13c54.73-16.91,110.06-27.02,164.46-30.04l3.58-.2.8,3.49c3.15,13.87,8.59,27.15,16.17,39.47l1.91,3.1-2.78,2.36c-42.33,35.82-88.55,67.77-137.36,94.97l-3.44,1.92Zm-37.13-108.1c7.42,34.41,20.83,66.95,39.9,96.83,46.01-25.91,89.65-56.1,129.81-89.77-6.48-11.17-11.34-23.05-14.49-35.39-51.35,3.15-103.53,12.68-155.21,28.34Zm290.81,31.79c-25.32,0-49.11-9.86-67-27.76-17.9-17.9-27.76-41.7-27.76-67.02,0-25.31,9.85-49.11,27.75-66.99,17.9-17.9,41.69-27.76,67.01-27.76s49.12,9.86,67.01,27.76c36.95,36.95,36.94,97.07-.01,134.02-17.89,17.9-41.69,27.75-67,27.75Zm0-181.05c-23.06,0-44.72,8.97-61.02,25.27-16.29,16.28-25.27,37.95-25.26,60.99,0,23.05,8.98,44.72,25.28,61.02,16.29,16.3,37.96,25.28,61,25.28s44.71-8.97,61-25.27c33.64-33.64,33.65-88.38.01-122.02-16.29-16.3-37.96-25.27-61.02-25.27Zm128.96,60.49l-.8-3.49c-3.17-13.91-8.61-27.18-16.17-39.46l-1.91-3.11,2.78-2.36c42.28-35.78,88.49-67.73,137.36-94.96l3.44-1.92,2.17,3.3c21.53,32.75,36.36,68.71,44.07,106.87l.76,3.76-3.66,1.13c-54.73,16.92-110.06,27.03-164.47,30.04l-3.57.2Zm-7.86-44.25c6.46,11.13,11.32,23.01,14.48,35.38,51.36-3.13,103.54-12.66,155.22-28.34-7.42-34.41-20.83-66.95-39.91-96.81-46.06,25.95-89.69,56.12-129.79,89.77Zm-249.82,43.22l-3.64-.31c-54.49-4.55-109.76-14.73-164.27-30.23l-3.79-1.08.8-3.86c7.88-38.12,22.87-74.02,44.55-106.68l2.12-3.2,3.39,1.79c50.66,26.76,96.92,58.74,137.52,95.06l2.67,2.39-1.91,3.03c-7.68,12.2-13.27,25.5-16.59,39.53l-.84,3.55Zm-161.77-37.63c51.55,14.42,103.74,24.02,155.25,28.56,3.3-12.47,8.3-24.37,14.9-35.47-38.53-34.08-82.16-64.24-129.77-89.72-19.22,29.78-32.79,62.25-40.37,96.63Zm363.41-44.94l-3.03-1.91c-12.25-7.7-25.54-13.28-39.52-16.58l-3.56-.84.31-3.64c4.53-54.43,14.7-109.71,30.23-164.28l1.08-3.79,3.86.8c38.14,7.89,74.03,22.87,106.68,44.53l3.2,2.12-1.79,3.39c-26.72,50.64-58.7,96.92-95.05,137.53l-2.39,2.67Zm-37.05-25.85c12.44,3.28,24.34,8.28,35.46,14.89,34.11-38.54,64.27-82.17,89.71-129.78-29.76-19.21-62.23-32.77-96.62-40.36-14.44,51.6-24.04,103.8-28.55,155.26Zm-107.72,25.15l-2.36-2.78c-35.81-42.32-67.76-88.53-94.96-137.37l-1.92-3.44,3.3-2.17c32.79-21.54,68.74-36.36,106.88-44.06l3.76-.76,1.13,3.67c16.91,54.72,27.01,110.05,30.04,164.47l.2,3.58-3.5.8c-13.87,3.15-27.15,8.59-39.46,16.16l-3.11,1.91Zm-87.97-140.81c25.91,46.02,56.09,89.66,89.77,129.8,11.16-6.48,23.04-11.34,35.39-14.49-3.15-51.36-12.68-103.55-28.34-155.22-34.4,7.41-66.93,20.82-96.82,39.9Z"/>
</svg>