<?xml version="1.0" encoding="UTF-8"?>
<svg id="Layer_1" data-name="Layer 1" xmlns="http://www.w3.org/2000/svg" xmlns:xlink="http://www.w3.org/1999/xlink" viewBox="0 0 1056.73 1289.16">
  <defs>
    <style>
      .cls-1, .cls-2, .cls-3 {
        fill: #fff;
      }

      .cls-4, .cls-5 {
        opacity: .5;
      }

      .cls-6 {
        clip-path: url(#clippath-2);
      }

      .cls-7, .cls-8 {
        opacity: .2;
      }

      .cls-9, .cls-5, .cls-10 {
        fill: #ff3c57;
      }

      .cls-11 {
        clip-path: url(#clippath-1);
      }

      .cls-8, .cls-12 {
        fill: #1a2e35;
      }

      .cls-13, .cls-2, .cls-3, .cls-10, .cls-14 {
        stroke: #1a2e35;
      }

      .cls-13, .cls-2, .cls-15 {
        stroke-miterlimit: 10;
      }

      .cls-13, .cls-16, .cls-15 {
        fill: none;
      }

      .cls-17 {
        fill: #5ae4a7;
      }

      .cls-18 {
        clip-path: url(#clippath);
      }

      .cls-3, .cls-10, .cls-14 {
        stroke-linecap: round;
        stroke-linejoin: round;
      }

      .cls-15 {
        stroke: #ccc;
      }

      .cls-14 {
        fill: #bfbfbf;
      }
    </style>
    <clipPath id="clippath">
      <path class="cls-1" d="m710.42,644.19l34.48-67.57c2.12-2.36,7.8-12.1,12.92-18.3,8.6-10.38,5.3-29.82,4.79-30.66-2-3.32-8.26-6.45-8.26-6.45,0,0-2.53-10.07-6.91-15.07-4.37-4.98-10.99-7.4-10.99-7.4,0,0-3.99-9.39-9.65-15.49-5.67-6.08-12.85-3.73-12.85-3.73l-12.25,7.19c-3.61,2.12-5.46,6.47-4.12,10.45,1.64,4.89,6.6,5.51,8.71,6.58,2.93,1.49,5.71-1.27,5.71-1.27,0,0-8.01,17.6-9.85,19.43h-.02c-1.87,1.82-9.94,4.17-9.94,4.17l-6.02-33.52c-1.75-9.7-3.09-25.71-2.7-35.57.05-1.44-.05-2.87-.44-4.26-1.37-5.26-7.71-9.82-12.9-3.99-1.39,1.56-2.71,4.58-2.99,6.64-3.8,26.51-2.72,48.54-2.86,70.87-.07,13.26-1.97,12.14-1.76,18.25-.42.06-.47.52-.9.55-3.9,4.49-7.42,9.19-11.32,13.68,1.89-6.81,3.71-14.55,3.58-21.61,2.42-3.3,4.84-6.67,6.32-10.49,1.5-3.81,1.95-8.19.36-11.96-.83-1.94-2.4-3.67-4.29-4.79-2.79-1.68-6.42-.86-8.3,1.79-1.79,2.51-3.84,5.63-5.74,7.51-5.85,5.81-9.37,8.01-9.5,8.26-3.46,6.83,1.33,7.86-9.52,36.89-8.45,22.6,11.93,50.7,19.11,73.75l-9.5,58.39c22.33,1.97,44.91,1.45,67.54-.97l10.05-51.3Z"/>
    </clipPath>
    <clipPath id="clippath-1">
      <path class="cls-1" d="m581.71,478.8c.88-3.36-3.65-5.1-3.65-5.1-14.89-6.48-28.33,15.2-28.33,15.2l-13.05,12.9,10.22-24.18,15.42-30.02s18.98-26.59,19.32-32.1c.37-5.52-3.76-7.4-3.76-7.4-7.35-6.38-13.99,5.51-13.99,5.51l-19.66,21.16-16.46,25.24-1.77-2.52s13.22-28.92,13.95-29.14c.74-.24,13.34-17.86,13.34-17.86,0,0,3.41-2.74,7.66-6.29,4.23-3.56,4.1-8.09,4.1-8.09.12-8.69-8.63-9.05-11.97-6.07-3.34,2.98-11.41,8.05-11.41,8.05l-19.35,18.07c-2.23,5.17-17.66,28.47-17.66,28.47l-2.24-2.8,2.67-16.93,11.12-13.08s12.11-4.63,13.36-10.32c1.25-5.67-6.13-7.57-6.13-7.57l-21.3,9.13-3.9-1.98-15.13,6.99c-6.31,6.27-11.55,13.48-15.54,21.36-2.62,5.16-4.71,10.63-6.19,16.28l-2.88,10.91-32.25,63.62s-11.47,6.99-11.96,7.96c-.22.44-6.9,7.16-15.62,15.35,11.14,17.38,21.15,31.54,28.9,40.26,3.64,4.11,7.37,8.16,11.16,12.14,14.09-13.38,29.75-27.41,35.57-29.59,11.54-4.32,33.98-12.49,33.98-12.49,0,0,30.03-18.19,36.45-26.06,5.28-6.44,15.84-17.64,19.47-21.48.83-.86,1.5-1.87,1.98-2.97,1.1-2.45,3.22-7.2,5.29-11.3,2.96-5.83,9.37-9.91,10.26-13.25Z"/>
    </clipPath>
    <clipPath id="clippath-2">
      <path class="cls-2" d="m947.79,633c-3.2,6.31-6.82,12.15-10.7,17.41-17.86,24.24-41.58,36.51-58.06,28.15-1.47-.75-2.87-1.66-4.14-2.68-16.05-12.93-16.33-46.98.26-79.71,17.91-35.33,40.51-39.58,60.55-29.42,20.06,10.17,29.99,30.91,12.09,66.24Z"/>
    </clipPath>
  </defs>
  <path class="cls-8" d="m325.36,206.18c-.21-.35-.06-.45,0,0h0Z"/>
  <g>
    <g>
      <rect class="cls-10" x="431.94" y="390.83" width="395.85" height="166.72" transform="translate(282.43 -233.54) rotate(26.88)"/>
      <g>
        <rect class="cls-2" x="487.16" y="330.39" width="37.25" height="20.62" transform="translate(208.68 -191.86) rotate(26.88)"/>
        <rect class="cls-2" x="725.78" y="569.44" width="58.66" height="20.62" transform="translate(343.69 -278.76) rotate(26.88)"/>
        <rect class="cls-2" x="780.81" y="507.84" width="36.21" height="20.62" transform="translate(320.57 -305.22) rotate(26.88)"/>
        <rect class="cls-2" x="453.21" y="397.36" width="37.25" height="20.62" transform="translate(235.29 -169.28) rotate(26.88)"/>
        <rect class="cls-2" x="464.82" y="373.61" width="30.15" height="20.62" transform="translate(225.42 -175.49) rotate(26.88)"/>
        <g>
          <rect class="cls-2" x="476.7" y="349.04" width="20.62" height="20.62" transform="translate(-53.7 631.28) rotate(-63.12)"/>
          <rect class="cls-2" x="500.17" y="360.94" width="20.62" height="20.62" transform="translate(-51.46 658.73) rotate(-63.12)"/>
          <rect class="cls-2" x="523.64" y="372.84" width="20.62" height="20.62" transform="translate(-49.21 686.18) rotate(-63.12)"/>
          <rect class="cls-2" x="547.11" y="384.74" width="20.62" height="20.62" transform="translate(-46.96 713.64) rotate(-63.12)"/>
          <rect class="cls-2" x="570.58" y="396.63" width="20.62" height="20.62" transform="translate(-44.71 741.09) rotate(-63.12)"/>
          <rect class="cls-2" x="594.05" y="408.53" width="20.62" height="20.62" transform="translate(-42.46 768.55) rotate(-63.12)"/>
          <rect class="cls-2" x="617.52" y="420.43" width="20.62" height="20.62" transform="translate(-40.21 796) rotate(-63.12)"/>
          <rect class="cls-2" x="640.99" y="432.32" width="20.62" height="20.62" transform="translate(-37.97 823.45) rotate(-63.12)"/>
          <rect class="cls-2" x="664.47" y="444.22" width="20.62" height="20.62" transform="translate(-35.72 850.91) rotate(-63.12)"/>
          <rect class="cls-2" x="687.94" y="456.12" width="20.62" height="20.62" transform="translate(-33.47 878.36) rotate(-63.12)"/>
          <rect class="cls-2" x="711.41" y="468.01" width="20.62" height="20.62" transform="translate(-31.22 905.81) rotate(-63.12)"/>
          <rect class="cls-2" x="734.88" y="479.91" width="20.62" height="20.62" transform="translate(-28.97 933.27) rotate(-63.12)"/>
          <rect class="cls-2" x="758.35" y="491.81" width="20.62" height="20.62" transform="translate(-26.73 960.72) rotate(-63.12)"/>
        </g>
        <g>
          <rect class="cls-2" x="431.12" y="438.95" width="20.62" height="20.62" transform="translate(-158.87 639.89) rotate(-63.12)"/>
          <rect class="cls-2" x="454.6" y="450.85" width="20.62" height="20.62" transform="translate(-156.62 667.34) rotate(-63.12)"/>
          <rect class="cls-2" x="478.07" y="462.75" width="20.62" height="20.62" transform="translate(-154.37 694.8) rotate(-63.12)"/>
          <rect class="cls-2" x="503.56" y="473.4" width="20.62" height="25.16" transform="translate(-151.93 724.62) rotate(-63.12)"/>
          <rect class="cls-2" x="576" y="459.76" width="20.62" height="125.87" transform="translate(-144.99 809.35) rotate(-63.12)"/>
          <rect class="cls-2" x="679.08" y="564.63" width="20.62" height="20.62" transform="translate(-135.12 929.92) rotate(-63.12)"/>
          <rect class="cls-2" x="702.55" y="576.53" width="20.62" height="20.62" transform="translate(-132.87 957.37) rotate(-63.12)"/>
          <rect class="cls-2" x="726.06" y="588.45" width="20.62" height="20.62" transform="translate(-130.62 984.87) rotate(-63.12)"/>
          <rect class="cls-2" x="651.01" y="544.71" width="20.62" height="32.01" transform="translate(-137.81 897.08) rotate(-63.12)"/>
          <rect class="cls-2" x="750.27" y="600.72" width="20.62" height="20.62" transform="translate(-128.3 1013.19) rotate(-63.12)"/>
        </g>
        <g>
          <rect class="cls-2" x="497.45" y="387.73" width="20.62" height="20.62" transform="translate(-76.84 670.98) rotate(-63.12)"/>
          <rect class="cls-2" x="520.92" y="399.63" width="20.62" height="20.62" transform="translate(-74.59 698.44) rotate(-63.12)"/>
          <rect class="cls-2" x="544.39" y="411.53" width="20.62" height="20.62" transform="translate(-72.35 725.89) rotate(-63.12)"/>
          <rect class="cls-2" x="567.86" y="423.42" width="20.62" height="20.62" transform="translate(-70.1 753.35) rotate(-63.12)"/>
          <rect class="cls-2" x="591.33" y="435.32" width="20.62" height="20.62" transform="translate(-67.85 780.8) rotate(-63.12)"/>
          <rect class="cls-2" x="614.8" y="447.22" width="20.62" height="20.62" transform="translate(-65.6 808.25) rotate(-63.12)"/>
          <rect class="cls-2" x="638.28" y="459.11" width="20.62" height="20.62" transform="translate(-63.35 835.71) rotate(-63.12)"/>
          <rect class="cls-2" x="661.75" y="471.01" width="20.62" height="20.62" transform="translate(-61.1 863.16) rotate(-63.12)"/>
          <rect class="cls-2" x="685.22" y="482.91" width="20.62" height="20.62" transform="translate(-58.86 890.61) rotate(-63.12)"/>
          <rect class="cls-2" x="708.69" y="494.8" width="20.62" height="20.62" transform="translate(-56.61 918.07) rotate(-63.12)"/>
          <rect class="cls-2" x="732.16" y="506.7" width="20.62" height="20.62" transform="translate(-54.36 945.52) rotate(-63.12)"/>
          <rect class="cls-2" x="755.63" y="518.6" width="20.62" height="20.62" transform="translate(-52.11 972.97) rotate(-63.12)"/>
          <polygon class="cls-2" points="808.65 539 787.97 579.8 769.58 570.48 780.94 548.07 775.55 545.33 784.87 526.95 808.65 539"/>
        </g>
        <g>
          <rect class="cls-2" x="491.47" y="412.87" width="20.62" height="20.62" transform="translate(-102.54 679.43) rotate(-63.12)"/>
          <rect class="cls-2" x="514.94" y="424.77" width="20.62" height="20.62" transform="translate(-100.29 706.88) rotate(-63.12)"/>
          <rect class="cls-2" x="538.41" y="436.67" width="20.62" height="20.62" transform="translate(-98.04 734.33) rotate(-63.12)"/>
          <rect class="cls-2" x="561.89" y="448.56" width="20.62" height="20.62" transform="translate(-95.8 761.79) rotate(-63.12)"/>
          <rect class="cls-2" x="585.36" y="460.46" width="20.62" height="20.62" transform="translate(-93.55 789.24) rotate(-63.12)"/>
          <rect class="cls-2" x="608.83" y="472.36" width="20.62" height="20.62" transform="translate(-91.3 816.7) rotate(-63.12)"/>
          <rect class="cls-2" x="632.3" y="484.25" width="20.62" height="20.62" transform="translate(-89.05 844.15) rotate(-63.12)"/>
          <rect class="cls-2" x="655.77" y="496.15" width="20.62" height="20.62" transform="translate(-86.8 871.6) rotate(-63.12)"/>
          <rect class="cls-2" x="679.24" y="508.05" width="20.62" height="20.62" transform="translate(-84.55 899.06) rotate(-63.12)"/>
          <rect class="cls-2" x="702.71" y="519.94" width="20.62" height="20.62" transform="translate(-82.31 926.51) rotate(-63.12)"/>
          <rect class="cls-2" x="726.18" y="531.84" width="20.62" height="20.62" transform="translate(-80.06 953.96) rotate(-63.12)"/>
          <rect class="cls-2" x="749.66" y="543.74" width="20.62" height="20.62" transform="translate(-77.81 981.42) rotate(-63.12)"/>
        </g>
        <g>
          <rect class="cls-2" x="470.14" y="430.23" width="20.62" height="20.62" transform="translate(-129.71 669.91) rotate(-63.12)"/>
          <rect class="cls-2" x="493.61" y="442.12" width="20.62" height="20.62" transform="translate(-127.46 697.36) rotate(-63.12)"/>
          <rect class="cls-2" x="517.08" y="454.02" width="20.62" height="20.62" transform="translate(-125.21 724.81) rotate(-63.12)"/>
          <rect class="cls-2" x="540.55" y="465.92" width="20.62" height="20.62" transform="translate(-122.96 752.27) rotate(-63.12)"/>
          <rect class="cls-2" x="564.02" y="477.81" width="20.62" height="20.62" transform="translate(-120.72 779.72) rotate(-63.12)"/>
          <rect class="cls-2" x="587.49" y="489.71" width="20.62" height="20.62" transform="translate(-118.47 807.17) rotate(-63.12)"/>
          <rect class="cls-2" x="610.96" y="501.61" width="20.62" height="20.62" transform="translate(-116.22 834.63) rotate(-63.12)"/>
          <rect class="cls-2" x="634.44" y="513.5" width="20.62" height="20.62" transform="translate(-113.97 862.08) rotate(-63.12)"/>
          <rect class="cls-2" x="657.91" y="525.4" width="20.62" height="20.62" transform="translate(-111.72 889.54) rotate(-63.12)"/>
          <rect class="cls-2" x="681.38" y="537.3" width="20.62" height="20.62" transform="translate(-109.48 916.99) rotate(-63.12)"/>
          <rect class="cls-2" x="704.85" y="549.19" width="20.62" height="20.62" transform="translate(-107.23 944.44) rotate(-63.12)"/>
        </g>
        <g>
          <rect class="cls-2" x="524.99" y="346.75" width="20.62" height="20.62" transform="translate(-25.2 673.09) rotate(-63.12)"/>
          <rect class="cls-2" x="548.46" y="358.64" width="20.62" height="20.62" transform="translate(-22.95 700.55) rotate(-63.12)"/>
          <rect class="cls-2" x="571.93" y="370.54" width="20.62" height="20.62" transform="translate(-20.7 728) rotate(-63.12)"/>
          <rect class="cls-2" x="595.4" y="382.44" width="20.62" height="20.62" transform="translate(-18.45 755.45) rotate(-63.12)"/>
          <rect class="cls-2" x="618.87" y="394.34" width="20.62" height="20.62" transform="translate(-16.2 782.91) rotate(-63.12)"/>
          <rect class="cls-2" x="642.34" y="406.23" width="20.62" height="20.62" transform="translate(-13.96 810.36) rotate(-63.12)"/>
          <rect class="cls-2" x="665.81" y="418.13" width="20.62" height="20.62" transform="translate(-11.71 837.82) rotate(-63.12)"/>
          <rect class="cls-2" x="689.29" y="430.03" width="20.62" height="20.62" transform="translate(-9.46 865.27) rotate(-63.12)"/>
          <rect class="cls-2" x="712.76" y="441.92" width="20.62" height="20.62" transform="translate(-7.21 892.72) rotate(-63.12)"/>
          <rect class="cls-2" x="736.23" y="453.82" width="20.62" height="20.62" transform="translate(-4.96 920.18) rotate(-63.12)"/>
          <rect class="cls-2" x="759.7" y="465.72" width="20.62" height="20.62" transform="translate(-2.71 947.63) rotate(-63.12)"/>
          <rect class="cls-2" x="783.17" y="477.61" width="20.62" height="20.62" transform="translate(-.47 975.08) rotate(-63.12)"/>
          <rect class="cls-2" x="806.64" y="489.51" width="20.62" height="20.62" transform="translate(1.78 1002.54) rotate(-63.12)"/>
        </g>
        <rect class="cls-2" x="442.38" y="417.26" width="24.98" height="20.62" transform="translate(242.45 -159.46) rotate(26.88)"/>
      </g>
    </g>
    <polygon class="cls-12" points="490.53 311.3 499.15 312.58 840.07 485.38 843.69 490.27 490.53 311.3"/>
  </g>
  <g>
    <path class="cls-7" d="m613.28,694.09l14.74-46.88c1.69-7.24,1.28-14.82-1.14-21.86-7.3-21.02-19-44.73-10.66-63.2,12.75-28.23,8.03-29.58,11.94-36.16.14-.24,3.81-2.2,10.03-7.61,2.01-1.75,4.26-4.73,6.22-7.12,2.05-2.52,5.72-3.08,8.4-1.23,1.8,1.24,3.25,3.07,3.96,5.06,1.33,3.87.59,8.21-1.16,11.92-1.74,3.7-4.38,6.9-7.01,10.03-.35,7.06-2.68,14.67-5.02,21.33,4.2-4.22,8.02-8.69,12.21-12.9.43-.01.51-.47.92-.49.2-6.13,2.02-4.86,2.98-18.1,1.61-22.27,2-44.33,7.56-70.53.42-2.04,1.94-4.96,3.43-6.42,5.56-5.47,11.59-.51,12.61,4.84.28,1.41.29,2.84.15,4.27-1.03,9.81-.76,25.88.33,35.67l3.79,33.86s8.21-1.82,10.18-3.5h.02c1.96-1.71,11.13-18.74,11.13-18.74,0,0-2.95,2.56-5.78.9-2.03-1.22-6.94-2.17-8.25-7.14-1.08-4.07,1.06-8.28,4.8-10.15l12.71-6.37s7.32-1.87,12.57,4.58c5.23,6.46,8.6,16.1,8.6,16.1,0,0,6.44,2.86,10.47,8.12,4.04,5.28,5.9,15.5,5.9,15.5,0,0,6.04,3.54,7.81,7,.45.86,2.45,20.48-6.82,30.27-5.52,5.84-11.83,15.18-14.11,17.4l-38.88,65.12-13.1,49.19-25.81,1.02c-9.49.37-19-.09-28.41-1.38l-17.32-2.38Z"/>
    <g>
      <g>
        <g>
          <path class="cls-1" d="m710.42,644.19l34.48-67.57c2.12-2.36,7.8-12.1,12.92-18.3,8.6-10.38,5.3-29.82,4.79-30.66-2-3.32-8.26-6.45-8.26-6.45,0,0-2.53-10.07-6.91-15.07-4.37-4.98-10.99-7.4-10.99-7.4,0,0-3.99-9.39-9.65-15.49-5.67-6.08-12.85-3.73-12.85-3.73l-12.25,7.19c-3.61,2.12-5.46,6.47-4.12,10.45,1.64,4.89,6.6,5.51,8.71,6.58,2.93,1.49,5.71-1.27,5.71-1.27,0,0-8.01,17.6-9.85,19.43h-.02c-1.87,1.82-9.94,4.17-9.94,4.17l-6.02-33.52c-1.75-9.7-3.09-25.71-2.7-35.57.05-1.44-.05-2.87-.44-4.26-1.37-5.26-7.71-9.82-12.9-3.99-1.39,1.56-2.71,4.58-2.99,6.64-3.8,26.51-2.72,48.54-2.86,70.87-.07,13.26-1.97,12.14-1.76,18.25-.42.06-.47.52-.9.55-3.9,4.49-7.42,9.19-11.32,13.68,1.89-6.81,3.71-14.55,3.58-21.61,2.42-3.3,4.84-6.67,6.32-10.49,1.5-3.81,1.95-8.19.36-11.96-.83-1.94-2.4-3.67-4.29-4.79-2.79-1.68-6.42-.86-8.3,1.79-1.79,2.51-3.84,5.63-5.74,7.51-5.85,5.81-9.37,8.01-9.5,8.26-3.46,6.83,1.33,7.86-9.52,36.89-8.45,22.6,11.93,50.7,19.11,73.75l-9.5,58.39c22.33,1.97,44.91,1.45,67.54-.97l10.05-51.3Z"/>
          <g class="cls-18">
            <g>
              <g>
                <path class="cls-17" d="m749.17,548.28c1.82-1.58,3.83-3.14,6.2-3.52,2.38-.39,5.19.83,5.75,3.18.64-4.09,1.19-8.19,1.66-12.3.36-3.13.65-6.43-.63-9.31-1.27-2.88-4.67-5.08-7.6-3.92-2.72,8.66-6.72,16.91-11.83,24.41-2.77,4.06-6.03,8.69-4.76,13.43.47,1.07,2.47.59,2.42-.57-.02-.55-.88-1.02-1.27-1.17,3.05-3.68,6.44-7.09,10.05-10.22Z"/>
                <path class="cls-17" d="m749.17,548.28c1.82-1.58,3.83-3.14,6.2-3.52,2.38-.39,5.19.83,5.75,3.18.64-4.09,1.19-8.19,1.66-12.3.36-3.13.65-6.43-.63-9.31-1.27-2.88-4.67-5.08-7.6-3.92-2.72,8.66-6.72,16.91-11.83,24.41-2.77,4.06-6.03,8.69-4.76,13.43.47,1.07,2.47.59,2.42-.57-.02-.55-.88-1.02-1.27-1.17,3.05-3.68,6.44-7.09,10.05-10.22Z"/>
                <path class="cls-5" d="m749.17,548.28c1.82-1.58,3.83-3.14,6.2-3.52,2.38-.39,5.19.83,5.75,3.18.64-4.09,1.19-8.19,1.66-12.3.36-3.13.65-6.43-.63-9.31-1.27-2.88-4.67-5.08-7.6-3.92-2.72,8.66-6.72,16.91-11.83,24.41-2.77,4.06-6.03,8.69-4.76,13.43.47,1.07,2.47.59,2.42-.57-.02-.55-.88-1.02-1.27-1.17,3.05-3.68,6.44-7.09,10.05-10.22Z"/>
              </g>
              <g>
                <path class="cls-17" d="m728.43,528.64c-1.38,3-2.91,5.98-3.63,9.2-.72,3.22-.54,6.81,1.31,9.55,1.37-6.47,5.25-12.09,9.04-17.51,2.3-3.29,4.61-6.59,6.91-9.88.8-1.15,1.65-2.33,2.88-3,1.23-.66,2.96-.63,3.83.47-1.97.13-3.32-2.07-3.47-4.03-.15-1.97.41-3.96.03-5.9-.71-3.67-4.8-6.47-8.18-7.3-3.51,9.21-4.5,19.2-8.73,28.41Z"/>
                <path class="cls-17" d="m728.43,528.64c-1.38,3-2.91,5.98-3.63,9.2-.72,3.22-.54,6.81,1.31,9.55,1.37-6.47,5.25-12.09,9.04-17.51,2.3-3.29,4.61-6.59,6.91-9.88.8-1.15,1.65-2.33,2.88-3,1.23-.66,2.96-.63,3.83.47-1.97.13-3.32-2.07-3.47-4.03-.15-1.97.41-3.96.03-5.9-.71-3.67-4.8-6.47-8.18-7.3-3.51,9.21-4.5,19.2-8.73,28.41Z"/>
                <g class="cls-4">
                  <path class="cls-9" d="m728.43,528.64c-1.38,3-2.91,5.98-3.63,9.2-.72,3.22-.54,6.81,1.31,9.55,1.37-6.47,5.25-12.09,9.04-17.51,2.3-3.29,4.61-6.59,6.91-9.88.8-1.15,1.65-2.33,2.88-3,1.23-.66,2.96-.63,3.83.47-1.97.13-3.32-2.07-3.47-4.03-.15-1.97.41-3.96.03-5.9-.71-3.67-4.8-6.47-8.18-7.3-3.51,9.21-4.5,19.2-8.73,28.41Z"/>
                </g>
              </g>
              <g>
                <g>
                  <path class="cls-17" d="m715.4,492.37c-.62-1.23-.29-2.7.02-4.04.3-1.34.54-2.86-.23-4-6.21.6-8.07,10.64-14.29,11.13-1.21.1-2.54-.18-3.54.51-.9.62-1.17,1.9-.86,2.95.31,1.05,1.1,1.89,1.97,2.55,3.44,2.6,8.4,2.68,12.23.72,3.16-1.62,6.55-5.11,7.17-8.62-.92.04-2.03-.33-2.47-1.21Z"/>
                  <path class="cls-17" d="m637.53,524.83c-.25.28-.52.66-.37,1.01.23.54,1.03.29,1.55.02,3.39-1.81,7.94-1.09,10.62,1.66,1.25.6,2.63-1.07,2.29-2.42-.34-1.35-1.63-2.21-2.87-2.84-1.24-.63-2.6-1.24-3.31-2.43-.88-1.46-.56-3.36.49-4.6-2.7,3.27-5.59,6.41-8.4,9.6Z"/>
                </g>
                <g class="cls-4">
                  <path class="cls-9" d="m715.4,492.37c-.62-1.23-.29-2.7.02-4.04.3-1.34.54-2.86-.23-4-6.21.6-8.07,10.64-14.29,11.13-1.21.1-2.54-.18-3.54.51-.9.62-1.17,1.9-.86,2.95.31,1.05,1.1,1.89,1.97,2.55,3.44,2.6,8.4,2.68,12.23.72,3.16-1.62,6.55-5.11,7.17-8.62-.92.04-2.03-.33-2.47-1.21Z"/>
                  <path class="cls-9" d="m637.53,524.83c-.25.28-.52.66-.37,1.01.23.54,1.03.29,1.55.02,3.39-1.81,7.94-1.09,10.62,1.66,1.25.6,2.63-1.07,2.29-2.42-.34-1.35-1.63-2.21-2.87-2.84-1.24-.63-2.6-1.24-3.31-2.43-.88-1.46-.56-3.36.49-4.6-2.7,3.27-5.59,6.41-8.4,9.6Z"/>
                </g>
              </g>
              <g>
                <path class="cls-17" d="m729.45,498.03c-2.5-1.72-5.29-3.22-6.93-5.76-2.05-3.19-2.2-7.86-5.51-9.72-2.94-1.65-6.57-.03-9.53,1.58,1.7-3.84,6.21-5.93,10.39-5.56,4.18.37,7.95,2.84,10.73,5.98,2.78,3.14,4.69,6.94,6.5,10.73.73,1.52,1.46,3.08,1.62,4.76.76,7.86-5.07-.48-7.27-2Z"/>
                <path class="cls-5" d="m729.45,498.03c-2.5-1.72-5.29-3.22-6.93-5.76-2.05-3.19-2.2-7.86-5.51-9.72-2.94-1.65-6.57-.03-9.53,1.58,1.7-3.84,6.21-5.93,10.39-5.56,4.18.37,7.95,2.84,10.73,5.98,2.78,3.14,4.69,6.94,6.5,10.73.73,1.52,1.46,3.08,1.62,4.76.76,7.86-5.07-.48-7.27-2Z"/>
              </g>
            </g>
            <g>
              <path class="cls-17" d="m637.51,560.69c.35-.24.69-.51,1.02-.77-.45.08-.83.32-1.02.77Z"/>
              <path class="cls-17" d="m654.07,539.28c1.61-3.93,4.07-7.45,5.83-11.31,1.76-3.86,2.79-8.34,1.35-12.34-2.06-5.72-13.84-9.3-13.8-.4.01,2.47,2.09,4.8,4.55,4.94,2.46.14,4.85-2.1,4.71-4.56,1.01,8.85-4.15,18.07-12.23,21.83,3.15,7.7.52,17.31-5.96,22.48.91-.17,2.09.34,2.53,1.25.66,1.35.3,2.95.2,4.45-.11,1.5.25,3.3,1.64,3.89,4.12-3.58,6.11-9.01,7.31-14.34,1.2-5.33,1.79-10.84,3.86-15.89Z"/>
              <path class="cls-17" d="m729.65,488.37c-1.29-2.68-3.23-5.04-5.69-6.72l5.69,6.72Z"/>
              <path class="cls-17" d="m723.37,545.39c.74-2.9.77-5.93,1.35-8.86,1.36-6.83,5.65-12.7,8.01-19.25,3.05-8.48,2.71-18.12-.93-26.36l-2.16-2.55c1.6,3.34,2.19,7.18,1.45,10.82-1.59,8.38-4.79,16.36-7.68,24.38-4.45,12.38-8.19,25.02-11.18,37.84,4.65-4.66,9.5-9.64,11.13-16.02Z"/>
              <path class="cls-17" d="m708.03,503.4c2.65-.54,4.88-2.42,6.42-4.65,1.37-1.99,2.27-4.27,3.1-6.55-.65.83-2.24.99-3.14.23-1.15-.97-1.39-2.61-1.56-4.1-.51.55-1.02,1.1-1.54,1.64.1-.39.2-.77.3-1.16l-1.2.56c-.47,3.62-1.23,7.72-4.33,9.66-1.5.94-3.31,1.2-5.06,1.44,1.28,2.39,4.34,3.46,7,2.92Z"/>
              <path class="cls-17" d="m717.85,491.39c-.1.27-.2.54-.3.81.18-.22.3-.49.3-.81Z"/>
              <path class="cls-17" d="m694.15,518.32c-.02-13.26-.05-26.54-.75-39.78-.41-7.74-1.06-15.52-3.04-23.02-.88-3.32-4.05-11.59-9.05-9.74-3.33,1.24-2.65,6.91-6.57,8.08.59.34,3.75,1.53,3.86,2.09,2.51,11.71.79,24.29-4.77,34.89,3.02-.6,4.78,3.25,5.37,6.27,3.62,18.58,6.29,37.35,8.01,56.2,1.47-7.2,4.82-13.93,6.13-21.17.82-4.55.82-9.21.81-13.83Z"/>
              <path class="cls-17" d="m743.47,575.62c6.05-5.56,11.61-11.58,15.53-18.75,3.56-6.52,5.53-14.16,4.91-21.61-.16-1.88-.86-9.61-3.12-10.16-4.02-.97-2.47,7.67-2.44,9.64.12,7.46.15,15.31-3.43,21.87-2.75,5.05-7.35,8.78-11.53,12.73-2.91,2.76-5.71,5.86-7.48,9.41-.46.26-.91.54-1.39.77-3.97,1.92-8.63,2.8-12.83,1.46,3.79-3.82,7.59-7.63,11.38-11.45,1.35-1.36,2.67-3.5,2.3-5.11.62-.47,1.15-1.03,1.48-1.76.59-1.28.44-2.76.48-4.17.19-5.45,3.48-10.22,6.43-14.81,3.64-5.66,6.99-11.69,8.15-18.31,1.16-6.63-.19-14-4.92-18.79.22.77.44,1.54.66,2.32l-1.22-2.38c-.06,3.09-.13,6.19-.19,9.28-.76.41-1.52.81-2.28,1.22,2.5-.03,4.27,2.75,4.14,5.24-.13,2.5-1.56,4.71-2.89,6.82-7.44,11.79-13.17,24.65-17.01,38.05-1.67,2.74-3.63,5.37-6.34,7.05-2.93,1.81-6.94,2.26-9.76.27,2.16-2.6,2.79-6.65,1.18-9.66-5.26,2.72-6.82,10.3-8.82,15.42-3.04,7.76-5.57,15.71-7.59,23.79,3.66-6.04,8.13-11.59,13.25-16.45-1.4,6.89-2.8,13.78-4.2,20.67.91-1.67,1.88-3.4,3.45-4.46,1.57-1.07,3.94-1.22,5.22.18,1.05,1.15,1.05,2.88.94,4.43-.94,12.58-5.79,24.85-13.71,34.68,1.48,2.18,4.9,2.18,7.08.7,2.18-1.48,3.42-3.96,4.58-6.33,9.99-20.6,19.99-41.2,29.98-61.81Z"/>
              <path class="cls-17" d="m688.3,555.8c-1.85,1.22-1.3,10.08-1.46,12.04-.8,9.95-1.6,19.89-2.4,29.84,4.38-11.41,7.15-23.44,8.19-35.62.18-2.06-.65-8.69-4.33-6.26Z"/>
              <path class="cls-17" d="m715.67,514.79c-1.02.58-2.38,1.23-3.22.42-.79-.76-.32-2.07.19-3.03,3-5.68,6-11.37,8.99-17.05-6.31.97-7.92,5.62-10.75,10.4-1.64,2.77-7.74,16.85-10.54,17.53,6.55-1.58,12.82-4.34,18.42-8.09-.47-1.07-2.07-.77-3.09-.19Z"/>
              <g class="cls-4">
                <path class="cls-1" d="m637.51,560.69c.35-.24.69-.51,1.02-.77-.45.08-.83.32-1.02.77Z"/>
                <path class="cls-9" d="m654.07,539.28c1.61-3.93,4.07-7.45,5.83-11.31,1.76-3.86,2.79-8.34,1.35-12.34-2.06-5.72-13.84-9.3-13.8-.4.01,2.47,2.09,4.8,4.55,4.94,2.46.14,4.85-2.1,4.71-4.56,1.01,8.85-4.15,18.07-12.23,21.83,3.15,7.7.52,17.31-5.96,22.48.91-.17,2.09.34,2.53,1.25.66,1.35.3,2.95.2,4.45-.11,1.5.25,3.3,1.64,3.89,4.12-3.58,6.11-9.01,7.31-14.34,1.2-5.33,1.79-10.84,3.86-15.89Z"/>
                <path class="cls-1" d="m729.65,488.37c-1.29-2.68-3.23-5.04-5.69-6.72l5.69,6.72Z"/>
                <path class="cls-9" d="m723.37,545.39c.74-2.9.77-5.93,1.35-8.86,1.36-6.83,5.65-12.7,8.01-19.25,3.05-8.48,2.71-18.12-.93-26.36l-2.16-2.55c1.6,3.34,2.19,7.18,1.45,10.82-1.59,8.38-4.79,16.36-7.68,24.38-4.45,12.38-8.19,25.02-11.18,37.84,4.65-4.66,9.5-9.64,11.13-16.02Z"/>
                <path class="cls-9" d="m708.03,503.4c2.65-.54,4.88-2.42,6.42-4.65,1.37-1.99,2.27-4.27,3.1-6.55-.65.83-2.24.99-3.14.23-1.15-.97-1.39-2.61-1.56-4.1-.51.55-1.02,1.1-1.54,1.64.1-.39.2-.77.3-1.16l-1.2.56c-.47,3.62-1.23,7.72-4.33,9.66-1.5.94-3.31,1.2-5.06,1.44,1.28,2.39,4.34,3.46,7,2.92Z"/>
                <path class="cls-1" d="m717.85,491.39c-.1.27-.2.54-.3.81.18-.22.3-.49.3-.81Z"/>
                <path class="cls-9" d="m694.15,518.32c-.02-13.26-.05-26.54-.75-39.78-.41-7.74-1.06-15.52-3.04-23.02-.88-3.32-4.05-11.59-9.05-9.74-3.33,1.24-2.65,6.91-6.57,8.08.59.34,3.75,1.53,3.86,2.09,2.51,11.71.79,24.29-4.77,34.89,3.02-.6,4.78,3.25,5.37,6.27,3.62,18.58,6.29,37.35,8.01,56.2,1.47-7.2,4.82-13.93,6.13-21.17.82-4.55.82-9.21.81-13.83Z"/>
                <path class="cls-9" d="m743.47,575.62c6.05-5.56,11.61-11.58,15.53-18.75,3.56-6.52,5.53-14.16,4.91-21.61-.16-1.88-.86-9.61-3.12-10.16-4.02-.97-2.47,7.67-2.44,9.64.12,7.46.15,15.31-3.43,21.87-2.75,5.05-7.35,8.78-11.53,12.73-2.91,2.76-5.71,5.86-7.48,9.41-.46.26-.91.54-1.39.77-3.97,1.92-8.63,2.8-12.83,1.46,3.79-3.82,7.59-7.63,11.38-11.45,1.35-1.36,2.67-3.5,2.3-5.11.62-.47,1.15-1.03,1.48-1.76.59-1.28.44-2.76.48-4.17.19-5.45,3.48-10.22,6.43-14.81,3.64-5.66,6.99-11.69,8.15-18.31,1.16-6.63-.19-14-4.92-18.79.22.77.44,1.54.66,2.32l-1.22-2.38c-.06,3.09-.13,6.19-.19,9.28-.76.41-1.52.81-2.28,1.22,2.5-.03,4.27,2.75,4.14,5.24-.13,2.5-1.56,4.71-2.89,6.82-7.44,11.79-13.17,24.65-17.01,38.05-1.67,2.74-3.63,5.37-6.34,7.05-2.93,1.81-6.94,2.26-9.76.27,2.16-2.6,2.79-6.65,1.18-9.66-5.26,2.72-6.82,10.3-8.82,15.42-3.04,7.76-5.57,15.71-7.59,23.79,3.66-6.04,8.13-11.59,13.25-16.45-1.4,6.89-2.8,13.78-4.2,20.67.91-1.67,1.88-3.4,3.45-4.46,1.57-1.07,3.94-1.22,5.22.18,1.05,1.15,1.05,2.88.94,4.43-.94,12.58-5.79,24.85-13.71,34.68,1.48,2.18,4.9,2.18,7.08.7,2.18-1.48,3.42-3.96,4.58-6.33,9.99-20.6,19.99-41.2,29.98-61.81Z"/>
                <path class="cls-9" d="m688.3,555.8c-1.85,1.22-1.3,10.08-1.46,12.04-.8,9.95-1.6,19.89-2.4,29.84,4.38-11.41,7.15-23.44,8.19-35.62.18-2.06-.65-8.69-4.33-6.26Z"/>
                <path class="cls-9" d="m715.67,514.79c-1.02.58-2.38,1.23-3.22.42-.79-.76-.32-2.07.19-3.03,3-5.68,6-11.37,8.99-17.05-6.31.97-7.92,5.62-10.75,10.4-1.64,2.77-7.74,16.85-10.54,17.53,6.55-1.58,12.82-4.34,18.42-8.09-.47-1.07-2.07-.77-3.09-.19Z"/>
              </g>
            </g>
          </g>
        </g>
        <g>
          <g>
            <g>
              <path class="cls-16" d="m736.89,501.99c-2.36,11.35-6.18,22.39-11.36,32.76-.87,1.74-1.78,3.49-2.06,5.41-.28,1.92.22,4.08,1.74,5.28"/>
              <path class="cls-16" d="m753.44,523.02c-.31,11.89-15.81,30.93-16.23,32.62-.42,1.68-.3,3.58.72,4.98"/>
              <g>
                <path class="cls-16" d="m719.74,491.65c-2.08,2.78-4.32,6.08-6.4,8.86-2.02-4.83-2.01-10.48.04-15.3"/>
                <path class="cls-16" d="m649.01,558.46c-1.35-.07-2.69-.15-4.04-.22"/>
                <path class="cls-16" d="m648.52,561.54c-1.83,2.27-3.18,4.92-3.96,7.73"/>
                <path class="cls-16" d="m682.36,542.73c.11,2.82.21,5.64.32,8.46"/>
                <path class="cls-16" d="m701.63,522.16c2.08-1.1,4.17-2.2,6.25-3.3"/>
                <path class="cls-16" d="m740.64,572.27c-1.05,1.16-2.1,2.32-3.14,3.47"/>
                <path class="cls-16" d="m737.32,556.73c2.81-2.88,5.62-5.77,8.44-8.65"/>
                <path class="cls-16" d="m757.34,543.95c2.45-.14,4.76,2.11,4.69,4.56"/>
                <path class="cls-16" d="m744.24,515.22c2.9.55,5.46,2.67,6.52,5.43"/>
                <path class="cls-16" d="m670.89,490.87c3.68-1.42,8.03-.95,11.31,1.24"/>
              </g>
            </g>
            <path class="cls-16" d="m671.72,455c3-.49,6.19.29,8.62,2.1"/>
            <path class="cls-1" d="m639.84,524.94c-2.49.51-4.88,1.45-7.05,2.77l7.05-2.77Z"/>
          </g>
          <path class="cls-16" d="m644.83,518.73c3.3-.5,5.19,5.32,8.42,4.47,1.28-.34,2.04-1.67,2.43-2.94.39-1.27.57-2.65,1.34-3.73"/>
        </g>
      </g>
      <path class="cls-16" d="m718.47,542.71c-.12,7.53-3.13,14.97-8.26,20.47"/>
      <path class="cls-16" d="m731.46,561.17c-.97,3.11-3.06,5.87-5.8,7.64"/>
    </g>
    <g>
      <g>
        <path class="cls-13" d="m632.83,696.46l9.5-58.39c-7.17-23.05-27.56-51.15-19.11-73.75,10.84-29.03,6.05-30.06,9.52-36.89.12-.25,3.65-2.45,9.5-8.26,1.9-1.88,3.95-5,5.74-7.51,1.88-2.65,5.5-3.47,8.3-1.79,1.88,1.12,3.46,2.84,4.29,4.79,1.59,3.77,1.14,8.15-.36,11.96-1.48,3.82-3.91,7.18-6.32,10.49.13,7.06-1.7,14.81-3.58,21.61,3.9-4.49,7.42-9.19,11.32-13.68.43-.03.48-.5.9-.55-.21-6.12,1.69-4.99,1.76-18.25.14-22.33-.94-44.37,2.86-70.87.28-2.06,1.6-5.07,2.99-6.64,5.2-5.83,11.54-1.28,12.9,3.99.39,1.39.49,2.82.44,4.26-.38,9.85.95,25.87,2.7,35.57l6.02,33.52s8.07-2.35,9.94-4.17h.02c1.83-1.84,9.85-19.43,9.85-19.43,0,0-2.77,2.75-5.71,1.27-2.11-1.07-7.07-1.69-8.71-6.58-1.34-3.97.51-8.32,4.12-10.45l12.25-7.19s7.18-2.35,12.85,3.73c5.66,6.1,9.65,15.49,9.65,15.49,0,0,6.61,2.43,10.99,7.4,4.38,5,6.91,15.07,6.91,15.07,0,0,6.26,3.13,8.26,6.45.5.83,3.81,20.27-4.79,30.66-5.12,6.2-10.8,15.94-12.92,18.3l-34.48,67.57-10.05,51.3"/>
        <g>
          <g>
            <g>
              <path class="cls-13" d="m736.89,501.99c-2.36,11.35-6.18,22.39-11.36,32.76-.87,1.74-1.78,3.49-2.06,5.41-.28,1.92.22,4.08,1.74,5.28"/>
              <path class="cls-13" d="m753.44,523.02c-.31,11.89-15.81,30.93-16.23,32.62-.42,1.68-.3,3.58.72,4.98"/>
              <g>
                <path class="cls-13" d="m719.74,491.65c-2.08,2.78-4.32,6.08-6.4,8.86-2.02-4.83-2.01-10.48.04-15.3"/>
                <path class="cls-13" d="m649.01,558.46c-1.35-.07-2.69-.15-4.04-.22"/>
                <path class="cls-13" d="m648.52,561.54c-1.83,2.27-3.18,4.92-3.96,7.73"/>
                <path class="cls-13" d="m682.36,542.73c.11,2.82.21,5.64.32,8.46"/>
                <path class="cls-13" d="m701.63,522.16c2.08-1.1,4.17-2.2,6.25-3.3"/>
                <path class="cls-13" d="m740.64,572.27c-1.05,1.16-2.1,2.32-3.14,3.47"/>
                <path class="cls-13" d="m737.32,556.73c2.81-2.88,5.62-5.77,8.44-8.65"/>
                <path class="cls-13" d="m757.34,543.95c2.45-.14,4.76,2.11,4.69,4.56"/>
                <path class="cls-13" d="m744.24,515.22c2.9.55,5.46,2.67,6.52,5.43"/>
                <path class="cls-13" d="m670.89,490.87c3.68-1.42,8.03-.95,11.31,1.24"/>
              </g>
            </g>
            <path class="cls-13" d="m671.72,455c3-.49,6.19.29,8.62,2.1"/>
            <path class="cls-13" d="m639.84,524.94c-2.49.51-4.88,1.45-7.05,2.77"/>
          </g>
          <path class="cls-13" d="m644.83,518.73c3.3-.5,5.19,5.32,8.42,4.47,1.28-.34,2.04-1.67,2.43-2.94.39-1.27.57-2.65,1.34-3.73"/>
        </g>
      </g>
      <path class="cls-13" d="m718.47,542.71c-.12,7.53-3.13,14.97-8.26,20.47"/>
      <path class="cls-13" d="m731.46,561.17c-.97,3.11-3.06,5.87-5.8,7.64"/>
    </g>
    <path class="cls-7" d="m571.82,509.13c-.4,1.13-.99,2.19-1.75,3.11-3.33,4.1-13.01,16.07-17.79,22.88-5.8,8.33-34.37,28.75-34.37,28.75,0,0-21.76,9.83-32.93,15.02-5.49,2.55-19.46,17.03-32.24,31.11-4.79-4.59-9.46-9.28-14.03-14.08-3.78-3.97-7.51-8.04-11.15-12.13-5.12-5.77-11.24-13.91-18.01-23.79,7.22-7.94,12.52-14.18,12.7-14.61.41-1,11.33-8.84,11.33-8.84l27.33-65.88,2.05-11.1c1.04-5.74,2.72-11.36,4.94-16.7,3.38-8.16,8.05-15.74,13.87-22.46l14.57-8.12,4.04,1.68,20.55-10.71s7.5,1.34,6.68,7.08c-.82,5.76-12.54,11.31-12.54,11.31l-10.09,13.87-1.38,17.08,2.44,2.62s13.63-24.39,15.47-29.72l17.92-19.49s7.66-5.66,10.78-8.89c3.1-3.22,11.85-3.53,12.4,5.15,0,0,.47,4.51-3.48,8.38-3.97,3.85-7.17,6.85-7.17,6.85,0,0-11.21,18.52-11.95,18.82-.72.27-11.7,30.11-11.7,30.11l1.94,2.39,14.5-26.41,18.01-22.6s5.72-12.36,13.54-6.55c0,0,4.24,1.57,4.3,7.11.07,5.52-16.83,33.47-16.83,33.47l-13.11,31.1-8.36,24.87,12.03-13.86s11.76-22.63,27.1-17.3c0,0,4.66,1.4,4.03,4.81-.62,3.4-6.71,7.95-9.22,13.99-1.75,4.25-3.5,9.15-4.42,11.67Z"/>
    <g>
      <g>
        <path class="cls-1" d="m581.71,478.8c.88-3.36-3.65-5.1-3.65-5.1-14.89-6.48-28.33,15.2-28.33,15.2l-13.05,12.9,10.22-24.18,15.42-30.02s18.98-26.59,19.32-32.1c.37-5.52-3.76-7.4-3.76-7.4-7.35-6.38-13.99,5.51-13.99,5.51l-19.66,21.16-16.46,25.24-1.77-2.52s13.22-28.92,13.95-29.14c.74-.24,13.34-17.86,13.34-17.86,0,0,3.41-2.74,7.66-6.29,4.23-3.56,4.1-8.09,4.1-8.09.12-8.69-8.63-9.05-11.97-6.07-3.34,2.98-11.41,8.05-11.41,8.05l-19.35,18.07c-2.23,5.17-17.66,28.47-17.66,28.47l-2.24-2.8,2.67-16.93,11.12-13.08s12.11-4.63,13.36-10.32c1.25-5.67-6.13-7.57-6.13-7.57l-21.3,9.13-3.9-1.98-15.13,6.99c-6.31,6.27-11.55,13.48-15.54,21.36-2.62,5.16-4.71,10.63-6.19,16.28l-2.88,10.91-32.25,63.62s-11.47,6.99-11.96,7.96c-.22.44-6.9,7.16-15.62,15.35,11.14,17.38,21.15,31.54,28.9,40.26,3.64,4.11,7.37,8.16,11.16,12.14,14.09-13.38,29.75-27.41,35.57-29.59,11.54-4.32,33.98-12.49,33.98-12.49,0,0,30.03-18.19,36.45-26.06,5.28-6.44,15.84-17.64,19.47-21.48.83-.86,1.5-1.87,1.98-2.97,1.1-2.45,3.22-7.2,5.29-11.3,2.96-5.83,9.37-9.91,10.26-13.25Z"/>
        <g class="cls-11">
          <path class="cls-17" d="m485.62,422.05c4.03-1.83,9.72-.44,11.22,3.73.86,2.39.22,5.03-.49,7.47-.71,2.44-1.49,5.01-.89,7.47.6,2.47,3.21,4.64,5.6,3.77-1.49,3.46-2.99,6.91-4.48,10.37,6.72-4.4,12.21-10.66,15.7-17.89,1.69-3.52,2.96-7.32,5.48-10.3,2.52-2.98,6.82-4.94,10.38-3.34,3.95,1.78,5.09,7.08,3.91,11.25-1.18,4.17-4.02,7.62-6.21,11.35-3.34,5.7-5.21,12.24-5.39,18.84,1.64-1.23,3.28-2.46,4.93-3.69-.94,3.66-1.88,7.33-2.82,10.99,4.31-6.93,8.61-13.86,12.92-20.78,1.22-1.96,2.48-3.97,4.36-5.3,1.88-1.34,4.54-1.84,6.48-.6,2.62,1.67,2.71,5.42,2.31,8.5-2.99,23-16.69,42.99-30,61.98,1.74,1.31,4.33.2,5.77-1.44,1.44-1.65,2.3-3.77,3.93-5.22,1.63-1.45,4.61-1.82,5.73.06,1.64,2.74-2.43,6.59-.55,9.18,3.86-5.66,9.23-10.27,15.41-13.22,2.81-1.34,6.47-2.24,8.81-.17,1.75,1.54,2.02,4.26,1.27,6.46-.75,2.21,6.52-4.78,4.99-3.02,7.14-11.22,5.45-13.64,12.6-24.86,1.29-2.03,6.61-3.97,5.94-6.28-.64-2.19-3.7-6.48-5.98-6.56-2.28-.08-9.81-.14-11.85.9-12.78,6.57-19.9,21.87-28.62,33.29,7.75-20.24,15.67-40.79,28.83-58.01,7.26-9.5,16.38-18.6,18.11-30.43.79-5.4-.97-12.09-6.2-13.64-4.22-1.25-8.53,1.46-11.92,4.26-11.4,9.42-20.4,21.37-29.28,33.19,9.5-11.62,19.01-23.23,28.51-34.85,2.47-3.02,5-6.14,6.11-9.88,1.12-3.74.48-8.28-2.56-10.72-3.02-2.42-7.39-2.13-11.11-1.09-13.32,3.71-23.14,14.69-32.17,25.16,2.63-2.6,5.32-5.31,6.66-8.75,1.34-3.44.95-7.85-1.91-10.19-3.7-3.03-9.38-1.22-13.16,1.7-3.78,2.93-6.93,6.9-11.43,8.54-.91-3.47-4.98-5.36-8.55-4.94-3.57.41-6.68,2.56-9.47,4.82-10.23,8.31-18.34,19.22-23.36,31.41,4.5-3.64,11.37-3.97,16.2-.78,1.02-2.76,2.04-5.53,3.05-8.29"/>
          <g>
            <path class="cls-17" d="m483.07,452.06c-1.11,1.87-2.22,3.73-3.33,5.6,1.41-1.31,4.07-.71,4.79,1.07.34-1.37,1.7-2.18,2.78-3.09,1.08-.92,1.96-2.54,1.11-3.67-1.01-1.34-3.13-.47-4.5.49.18-.51.37-1.02.55-1.53l-1.4,1.13Z"/>
            <path class="cls-17" d="m506.78,459.73c-2.49,1-4.71,2.69-6.33,4.83,1-.31,2.03-.63,3.07-.51,1.04.13,2.08.83,2.26,1.86.11.64-.11,1.38.27,1.9.38.53,1.21.55,1.77.21.56-.34.91-.93,1.25-1.49.63-1.08,1.28-2.19,1.5-3.42.22-1.23-.07-2.63-1.04-3.42-.97-.79-2.67-.64-3.25.47l.51-.43Z"/>
            <path class="cls-17" d="m525.36,475.78c-2.82,1.4-5.29,3.51-7.11,6.08,1.21.41,2.53.15,3.78-.09,1.25-.24,2.59-.45,3.77.04s2.04,1.96,1.43,3.08c.43-1.39,1.3-2.6,2.1-3.83s1.54-2.55,1.67-4c.13-1.45-.52-3.07-1.85-3.66s-3.22.36-3.2,1.82l-.59.56Z"/>
            <path class="cls-17" d="m462.99,453.81c-2.29,1.61-4.18,3.79-5.43,6.3.6-1.14,2.15-1.52,3.38-1.11,1.22.41,2.14,1.44,2.83,2.53.81-1.04,1.65-2.12,1.99-3.4s.07-2.82-1-3.6-2.93-.31-3.18.99c.03-.36.06-.71.09-1.07l1.33-.65Z"/>
          </g>
          <path class="cls-5" d="m485.62,422.05c4.03-1.83,9.72-.44,11.22,3.73.86,2.39.22,5.03-.49,7.47-.71,2.44-1.49,5.01-.89,7.47.6,2.47,3.21,4.64,5.6,3.77-1.49,3.46-2.99,6.91-4.48,10.37,6.72-4.4,12.21-10.66,15.7-17.89,1.69-3.52,2.96-7.32,5.48-10.3,2.52-2.98,6.82-4.94,10.38-3.34,3.95,1.78,5.09,7.08,3.91,11.25-1.18,4.17-4.02,7.62-6.21,11.35-3.34,5.7-5.21,12.24-5.39,18.84,1.64-1.23,3.28-2.46,4.93-3.69-.94,3.66-1.88,7.33-2.82,10.99,4.31-6.93,8.61-13.86,12.92-20.78,1.22-1.96,2.48-3.97,4.36-5.3,1.88-1.34,4.54-1.84,6.48-.6,2.62,1.67,2.71,5.42,2.31,8.5-2.99,23-16.69,42.99-30,61.98,1.74,1.31,4.33.2,5.77-1.44,1.44-1.65,2.3-3.77,3.93-5.22,1.63-1.45,4.61-1.82,5.73.06,1.64,2.74-2.43,6.59-.55,9.18,3.86-5.66,9.23-10.27,15.41-13.22,2.81-1.34,6.47-2.24,8.81-.17,1.75,1.54,2.02,4.26,1.27,6.46-.75,2.21,6.52-4.78,4.99-3.02,7.14-11.22,5.45-13.64,12.6-24.86,1.29-2.03,6.61-3.97,5.94-6.28-.64-2.19-3.7-6.48-5.98-6.56-2.28-.08-9.81-.14-11.85.9-12.78,6.57-19.9,21.87-28.62,33.29,7.75-20.24,15.67-40.79,28.83-58.01,7.26-9.5,16.38-18.6,18.11-30.43.79-5.4-.97-12.09-6.2-13.64-4.22-1.25-8.53,1.46-11.92,4.26-11.4,9.42-20.4,21.37-29.28,33.19,9.5-11.62,19.01-23.23,28.51-34.85,2.47-3.02,5-6.14,6.11-9.88,1.12-3.74.48-8.28-2.56-10.72-3.02-2.42-7.39-2.13-11.11-1.09-13.32,3.71-23.14,14.69-32.17,25.16,2.63-2.6,5.32-5.31,6.66-8.75,1.34-3.44.95-7.85-1.91-10.19-3.7-3.03-9.38-1.22-13.16,1.7-3.78,2.93-6.93,6.9-11.43,8.54-.91-3.47-4.98-5.36-8.55-4.94-3.57.41-6.68,2.56-9.47,4.82-10.23,8.31-18.34,19.22-23.36,31.41,4.5-3.64,11.37-3.97,16.2-.78,1.02-2.76,2.04-5.53,3.05-8.29"/>
          <g class="cls-4">
            <path class="cls-9" d="m483.07,452.06c-1.11,1.87-2.22,3.73-3.33,5.6,1.41-1.31,4.07-.71,4.79,1.07.34-1.37,1.7-2.18,2.78-3.09,1.08-.92,1.96-2.54,1.11-3.67-1.01-1.34-3.13-.47-4.5.49.18-.51.37-1.02.55-1.53l-1.4,1.13Z"/>
            <path class="cls-9" d="m506.78,459.73c-2.49,1-4.71,2.69-6.33,4.83,1-.31,2.03-.63,3.07-.51,1.04.13,2.08.83,2.26,1.86.11.64-.11,1.38.27,1.9.38.53,1.21.55,1.77.21.56-.34.91-.93,1.25-1.49.63-1.08,1.28-2.19,1.5-3.42.22-1.23-.07-2.63-1.04-3.42-.97-.79-2.67-.64-3.25.47l.51-.43Z"/>
            <path class="cls-9" d="m525.36,475.78c-2.82,1.4-5.29,3.51-7.11,6.08,1.21.41,2.53.15,3.78-.09,1.25-.24,2.59-.45,3.77.04s2.04,1.96,1.43,3.08c.43-1.39,1.3-2.6,2.1-3.83s1.54-2.55,1.67-4c.13-1.45-.52-3.07-1.85-3.66s-3.22.36-3.2,1.82l-.59.56Z"/>
            <path class="cls-9" d="m462.99,453.81c-2.29,1.61-4.18,3.79-5.43,6.3.6-1.14,2.15-1.52,3.38-1.11,1.22.41,2.14,1.44,2.83,2.53.81-1.04,1.65-2.12,1.99-3.4s.07-2.82-1-3.6-2.93-.31-3.18.99c.03-.36.06-.71.09-1.07l1.33-.65Z"/>
          </g>
        </g>
      </g>
      <path class="cls-13" d="m398.65,543.53c8.72-8.18,15.4-14.9,15.62-15.35.49-.97,11.96-7.96,11.96-7.96l32.25-63.62,2.88-10.91c1.48-5.65,3.58-11.12,6.19-16.28,3.99-7.88,9.23-15.08,15.54-21.36l15.13-6.99,3.9,1.98,21.3-9.13s7.37,1.9,6.13,7.57c-1.25,5.68-13.36,10.32-13.36,10.32l-11.12,13.08-2.67,16.93,2.24,2.8s15.44-23.3,17.66-28.47l19.35-18.07s8.07-5.07,11.41-8.05c3.34-2.98,12.09-2.62,11.97,6.07,0,0,.13,4.53-4.1,8.09-4.25,3.55-7.66,6.29-7.66,6.29,0,0-12.6,17.62-13.34,17.86-.73.23-13.95,29.14-13.95,29.14l1.77,2.52,16.46-25.24,19.66-21.16s6.64-11.89,13.99-5.51c0,0,4.13,1.89,3.76,7.4-.34,5.51-19.32,32.1-19.32,32.1l-15.42,30.02-10.22,24.18,13.05-12.9s13.44-21.68,28.33-15.2c0,0,4.53,1.74,3.65,5.1-.89,3.34-7.3,7.42-10.26,13.25-2.08,4.09-4.2,8.85-5.29,11.3-.47,1.1-1.15,2.11-1.98,2.97-3.63,3.84-14.19,15.04-19.47,21.48-6.42,7.87-36.45,26.06-36.45,26.06,0,0-22.44,8.16-33.98,12.49-5.82,2.18-21.47,16.21-35.57,29.59"/>
      <path class="cls-2" d="m503.16,446.88c-.68,3.45-3.28,6.45-6.59,7.62"/>
      <path class="cls-2" d="m467.63,455.77c3.76-2.19,8.07-5.62,9.45-9.75,2.7-8.07,3.66-18.46,8.97-25.11,3.39-4.25,6.78-8.5,10.18-12.76"/>
      <path class="cls-13" d="m564.64,415.7c2.82.61,5.48,1.96,7.62,3.89.39-.7.78-1.39,1.17-2.09"/>
      <path class="cls-13" d="m549.39,395.95c.93,1.8,2.93,2.98,4.95,2.95,2.02-.03,3.98-1.29,4.85-3.12"/>
      <path class="cls-13" d="m577.78,477.13c-4.74-1.18-10.14,1.59-11.94,6.14,1.06,1.01,2.12,2.01,3.19,3.02"/>
      <path class="cls-2" d="m527.57,454.03c-1.13,2.65-4.56,8.64-5.69,11.29"/>
      <path class="cls-2" d="m528.59,459.02c-2.44,4.05-4.88,8.1-7.33,12.15.3-.52.59-1.04.89-1.57"/>
      <path class="cls-2" d="m533.96,506.33c-1.21,5.17-4.25,9.9-8.46,13.14"/>
      <path class="cls-13" d="m506.34,464.61c-5.19,1.97-9.15,10.99-9.24,17.02"/>
      <path class="cls-13" d="m527.94,483.15c-1.92,3.99-5.37,7.22-9.77,9.16"/>
      <path class="cls-13" d="m481.15,454.04c-2.42,3.39-3.55,7.68-3.12,11.83"/>
      <path class="cls-13" d="m461.15,458.27c-1.63,2.8-2.27,6.17-1.79,9.37"/>
      <path class="cls-13" d="m516.39,397.56c2.16.04,4.21,1.53,4.92,3.57,1.05-.51,2.1-1.03,3.16-1.54"/>
      <path class="cls-13" d="m526.4,416.76c3.35-.33,6.73,2.18,7.4,5.48"/>
      <path class="cls-13" d="m547.05,436.85c3.36.15,6.61,1.88,8.61,4.59"/>
      <path class="cls-13" d="m485.96,422.03c2.97-1.93,7.1-1.9,10.04.09"/>
      <path class="cls-13" d="m468.27,431.47c1.04-1.96,3.6-2.96,5.69-2.24"/>
    </g>
  </g>
  <g id="coding">
    <g id="code9">
      <path class="cls-3" d="m557.29,279.12l-32.29-16.37c-4.19-2.12-9.31-.45-11.44,3.74l-7.96,15.71c-2.12,4.19-.45,9.31,3.74,11.44l8.44,4.28-.95,17.74,16.36-9.93,8.44,4.28c4.19,2.12,9.31.45,11.44-3.74l7.96-15.71c2.12-4.19.45-9.31-3.74-11.44Z"/>
      <g>
        <path class="cls-12" d="m532.1,277.64c.42-.83,1.42-1.14,2.32-.68s1.26,1.41.86,2.21c-.44.87-1.43,1.21-2.35.74s-1.24-1.45-.83-2.27Zm-1.29,3.38l2.46,1.25-5.32,10.5-2.46-1.25,5.32-10.5Z"/>
        <path class="cls-12" d="m539.48,284.72l-.32.63,2.89,1.47-1,1.97-2.81-1.43-4.29,8.46-2.46-1.25,4.29-8.46-1.73-.88,1-1.97,1.73.88.34-.67c1.12-2.2,3.16-2.97,5.6-1.73.85.43,1.58,1.02,1.93,1.7l-1.63,1.5c-.24-.45-.63-.86-1.14-1.12-1.02-.52-1.84-.22-2.41.9Z"/>
      </g>
    </g>
    <g id="code8">
      <path class="cls-3" d="m654.47,331.14l-32.29-16.37c-4.19-2.12-9.31-.45-11.44,3.74l-7.96,15.71c-2.12,4.19-.45,9.31,3.74,11.44l8.44,4.28-.95,17.74,16.36-9.93,8.44,4.28c4.19,2.12,9.31.45,11.44-3.74l7.96-15.71c2.12-4.19.45-9.31-3.74-11.44Z"/>
      <g>
        <path class="cls-12" d="m619.72,336.44l-8.24-4.18c-.48,1.68.3,3.31,2.13,4.24,1.18.6,2.29.69,3.43.3l.55,2.18c-1.51.64-3.29.48-5.09-.43-3.52-1.78-4.66-5.2-3.07-8.33s5.02-4.2,8.15-2.62,4.22,4.83,2.56,8.12c-.1.2-.27.48-.41.71Zm-7.43-5.82l5.96,3.02c.57-1.61-.06-3.25-1.67-4.06s-3.27-.37-4.29,1.04Z"/>
        <path class="cls-12" d="m627.25,327.53l2.46,1.25-7.4,14.59-2.46-1.25,7.4-14.59Z"/>
        <path class="cls-12" d="m624.86,343.35l1.89-1.39c.61,1.08,1.81,2.23,3.13,2.9,1.55.79,2.42.68,2.79-.04,1.02-2.01-6.43-3.41-4.31-7.6,1.01-1.99,3.45-2.38,6.29-.94,1.4.71,2.82,1.85,3.47,2.9l-1.89,1.39c-.7-1.1-1.61-1.8-2.61-2.31-1.49-.76-2.45-.62-2.8.06-1.08,2.12,6.37,3.52,4.29,7.63-1,1.97-3.45,2.33-6.4.83-1.75-.89-3.24-2.29-3.85-3.43Z"/>
        <path class="cls-12" d="m647.75,350.65l-8.24-4.18c-.48,1.68.3,3.31,2.13,4.24,1.18.6,2.29.69,3.43.3l.55,2.18c-1.51.64-3.29.48-5.09-.43-3.52-1.78-4.66-5.2-3.07-8.33,1.58-3.13,5.02-4.2,8.15-2.62s4.22,4.83,2.56,8.12c-.1.2-.27.48-.41.71Zm-7.43-5.82l5.96,3.02c.57-1.61-.06-3.25-1.67-4.06-1.59-.81-3.27-.37-4.29,1.04Z"/>
      </g>
    </g>
    <g id="code7">
      <path class="cls-3" d="m750.24,378.51l-32.29-16.37c-4.19-2.12-9.31-.45-11.44,3.74l-7.96,15.71c-2.12,4.19-.45,9.31,3.74,11.44l8.44,4.28-.95,17.74,16.36-9.93,8.44,4.28c4.19,2.12,9.31.45,11.44-3.74l7.96-15.71c2.12-4.19.45-9.31-3.74-11.44Z"/>
      <g>
        <path class="cls-12" d="m719.46,377.54l-.32.63,2.89,1.47-1,1.97-2.81-1.43-4.29,8.46-2.46-1.25,4.29-8.46-1.73-.88,1-1.97,1.73.88.34-.67c1.12-2.2,3.16-2.97,5.6-1.73.85.43,1.58,1.03,1.93,1.7l-1.63,1.5c-.24-.44-.63-.86-1.14-1.12-1.02-.52-1.84-.22-2.41.9Z"/>
        <path class="cls-12" d="m720.03,385.12c1.59-3.15,5.08-4.17,8.31-2.54,3.26,1.65,4.48,5.06,2.88,8.21-1.59,3.15-5.07,4.2-8.34,2.55-3.22-1.63-4.45-5.07-2.85-8.22Zm8.71,4.42c1.02-2.01.33-3.96-1.46-4.87-1.77-.9-3.75-.3-4.77,1.71-1.02,2.01-.33,3.96,1.44,4.86s3.77.31,4.79-1.7Z"/>
        <path class="cls-12" d="m742.37,389.7l-1.19,2.34c-.2-.15-.36-.26-.54-.35-1.87-.95-3.61-.44-4.69,1.7l-2.58,5.09-2.46-1.25,5.32-10.5,2.34,1.19-.78,1.53c1.27-.74,2.82-.65,4.57.24Z"/>
      </g>
    </g>
    <g id="code6">
      <path class="cls-3" d="m844.81,424.85l-32.29-16.37c-4.19-2.12-9.31-.45-11.44,3.74l-7.96,15.71c-2.12,4.19-.45,9.31,3.74,11.44l8.44,4.28-.95,17.74,16.36-9.93,8.44,4.28c4.19,2.12,9.31.45,11.44-3.74l7.96-15.71c2.12-4.19.45-9.31-3.74-11.44Z"/>
      <path class="cls-12" d="m818.55,426.22l9.07,4.6-1,1.97-9.07-4.6,1-1.97Zm-2.41,4.76l9.07,4.6-1,1.97-9.07-4.6,1-1.97Z"/>
    </g>
    <g id="code5">
      <path class="cls-3" d="m615.73,285.88l-32.29-16.37c-4.19-2.12-9.31-.45-11.44,3.74l-7.96,15.71c-2.12,4.19-.45,9.31,3.74,11.44l8.44,4.28-.95,17.74,16.36-9.93,8.44,4.28c4.19,2.12,9.31.45,11.44-3.74l7.96-15.71c2.12-4.19.45-9.31-3.74-11.44Z"/>
      <g>
        <path class="cls-12" d="m588.67,280.38l4.7,2.38-1,1.97-2.24-1.14-7.34,14.47,2.24,1.14-1,1.97-4.7-2.38,9.33-18.41Z"/>
        <path class="cls-12" d="m590.13,304.25l1-1.97,2.22,1.13,7.34-14.47-2.22-1.13,1-1.97,4.68,2.37-9.33,18.41-4.68-2.37Z"/>
      </g>
    </g>
    <g id="code4">
      <path class="cls-3" d="m712.55,332.94l-32.29-16.37c-4.19-2.12-9.31-.45-11.44,3.74l-7.96,15.71c-2.12,4.19-.45,9.31,3.74,11.44l8.44,4.28-.95,17.74,16.36-9.93,8.44,4.28c4.19,2.12,9.31.45,11.44-3.74l7.96-15.71c2.12-4.19.45-9.31-3.74-11.44Z"/>
      <g>
        <path class="cls-12" d="m681.89,337.09c.66.65.76,1.38.14,2.59l-1.89,3.74c-.48.94-.28,1.73.7,2.23l.41.21-1,1.97-.98-.5c-2.22-1.13-2.77-2.82-1.72-4.9l2.05-4.05c.33-.65.14-1.11-.41-1.39l-.65-.33,1.02-2.01.65.33c.55.28,1.03.15,1.36-.5l2.05-4.05c1.06-2.08,2.75-2.64,4.97-1.51l.98.5-1,1.97-.41-.21c-.98-.5-1.74-.19-2.21.76l-1.89,3.74c-.62,1.22-1.26,1.56-2.18,1.42Z"/>
        <path class="cls-12" d="m697.39,343.69l-1.02,2.01-.67-.34c-.53-.27-1.02-.14-1.34.51l-2.05,4.05c-1.06,2.08-2.77,2.63-4.99,1.5l-.98-.5,1-1.97.41.21c1,.51,1.75.2,2.23-.75l1.89-3.74c.62-1.22,1.24-1.57,2.16-1.43-.66-.65-.74-1.36-.12-2.58l1.89-3.74c.48-.94.29-1.73-.72-2.24l-.41-.21,1-1.97.98.5c2.22,1.13,2.8,2.83,1.74,4.91l-2.05,4.05c-.33.65-.14,1.11.39,1.38l.67.34Z"/>
      </g>
    </g>
    <g id="code3">
      <path class="cls-3" d="m809.15,377.9l-32.29-16.37c-4.19-2.12-9.31-.45-11.44,3.74l-7.96,15.71c-2.12,4.19-.45,9.31,3.74,11.44l8.44,4.28-.95,17.74,16.36-9.93,8.44,4.28c4.19,2.12,9.31.45,11.44-3.74l7.96-15.71c2.12-4.19.45-9.31-3.74-11.44Z"/>
      <path class="cls-12" d="m785.83,380.7c.5-.98,1.56-1.26,2.44-.81s1.28,1.47.79,2.45c-.48.94-1.56,1.26-2.44.81s-1.26-1.51-.79-2.45Zm-.57,9.13c-.22.43-.5.74-1.31,1.46l-2.41,2.26-1.59-.81,2.31-2.61c-.43-.51-.55-1.21-.19-1.92.5-.98,1.51-1.28,2.42-.83s1.25,1.48.77,2.44Z"/>
    </g>
    <g id="code2">
      <path class="cls-3" d="m543.68,588.58l32.29,16.37c4.19,2.12,9.31.45,11.44-3.74l7.96-15.71c2.12-4.19.45-9.31-3.74-11.44l-8.44-4.28,4.88-15.74-20.29,7.93-8.44-4.28c-4.19-2.12-9.31-.45-11.44,3.74l-7.96,15.71c-2.12,4.19-.45,9.31,3.74,11.44Z"/>
      <g>
        <path class="cls-12" d="m564.5,575.66l-8.07-.9,5.5,5.98-1.04,2.05-7.28-8.12,1.08-2.12,10.85,1.08-1.04,2.04Z"/>
        <path class="cls-12" d="m575.27,572.14l2.2,1.12-15.88,15.24-2.2-1.12,15.88-15.24Z"/>
        <path class="cls-12" d="m582.64,586.71l-1.08,2.12-10.85-1.07,1.04-2.05,8.07.9-5.5-5.98,1.04-2.04,7.28,8.12Z"/>
      </g>
    </g>
    <g id="code1">
      <path class="cls-3" d="m396.37,370.11l32.29,16.37c4.19,2.12,9.31.45,11.44-3.74l7.96-15.71c2.12-4.19.45-9.31-3.74-11.44l-8.44-4.28,9.19-13.56-24.6,5.75-8.44-4.28c-4.19-2.12-9.31-.45-11.44,3.74l-7.96,15.71c-2.12,4.19-.45,9.31,3.74,11.44Z"/>
      <g>
        <path class="cls-12" d="m411,365c.43-.85,1.44-1.18,2.36-.71s1.21,1.46.79,2.3-1.43,1.2-2.33.75-1.24-1.5-.82-2.34Zm6.41-12.3l2.91,1.48-5.16,8.95-1.95-.99,4.19-9.44Z"/>
        <path class="cls-12" d="m421.06,358.98l9.07,4.6-1,1.97-9.07-4.6,1-1.97Zm-2.41,4.76l9.07,4.6-1,1.97-9.07-4.6,1-1.97Z"/>
      </g>
    </g>
  </g>
  <g id="mouse">
    <g id="mouse_1">
      <g>
        <g>
          <path class="cls-1" d="m947.79,633c-3.2,6.31-6.82,12.15-10.7,17.41-17.86,24.24-41.58,36.51-58.06,28.15-1.47-.75-2.87-1.66-4.14-2.68-16.05-12.93-16.33-46.98.26-79.71,17.91-35.33,40.51-39.58,60.55-29.42,20.06,10.17,29.99,30.91,12.09,66.24Z"/>
          <g class="cls-6">
            <g>
              <path class="cls-17" d="m934.42,626.73c-8.25,19.63-21.16,37.03-35.84,52.45,19.37-4.29,34.62-18.77,48.81-32.64,10.3-10.08,20.85-20.51,26.61-33.72,5.76-13.21,5.65-30.04-4.11-40.64-4.77-5.18-11.7-8.49-18.71-9.11-12.14-1.07-8.28,5.02-7.72,14.41,1.01,16.82-2.52,33.77-9.02,49.25Z"/>
              <path class="cls-5" d="m934.42,626.73c-8.25,19.63-21.16,37.03-35.84,52.45,19.37-4.29,34.62-18.77,48.81-32.64,10.3-10.08,20.85-20.51,26.61-33.72,5.76-13.21,5.65-30.04-4.11-40.64-4.77-5.18-11.7-8.49-18.71-9.11-12.14-1.07-8.28,5.02-7.72,14.41,1.01,16.82-2.52,33.77-9.02,49.25Z"/>
            </g>
          </g>
          <path class="cls-13" d="m947.79,633c-3.2,6.31-6.82,12.15-10.7,17.41-17.86,24.24-41.58,36.51-58.06,28.15-1.47-.75-2.87-1.66-4.14-2.68-16.05-12.93-16.33-46.98.26-79.71,17.91-35.33,40.51-39.58,60.55-29.42,20.06,10.17,29.99,30.91,12.09,66.24Z"/>
        </g>
        <g>
          <path class="cls-2" d="m914.5,656.98c-6.56,6.92-14.47,12.55-23.24,16.31"/>
          <path class="cls-13" d="m917.91,653.12c-.63.77-1.28,1.52-1.94,2.26"/>
          <path class="cls-2" d="m932.08,624.93c-2.2,9.13-6.32,17.75-11.91,25.29"/>
        </g>
        <path class="cls-13" d="m875.15,596.18s49.55,4.6,72.64,36.82"/>
        <path class="cls-2" d="m935.71,566.76s-3.63,17.41-15.77,42.54"/>
        <path class="cls-14" d="m932.03,588.3c-1.88,5.03-4.76,8.66-6.43,8.12-1.67-.54-1.5-5.05.38-10.08,1.88-5.03,4.76-8.66,6.43-8.12,1.67.54,1.5,5.05-.38,10.08Z"/>
      </g>
    </g>
    <path class="cls-15" d="m856.55,682.55l-48.4-24.53c-6.03-3.06-8.72-10.04-6.57-16.24.16-.57.41-1.14.69-1.71l57.87-114.18c.28-.55.59-1.09.98-1.58,3.72-5.41,10.94-7.35,16.97-4.29l137.33,69.61c2.08,1.06,3.75,2.58,4.96,4.36"/>
  </g>
</svg>