<?xml version="1.0" encoding="UTF-8"?>
<svg id="Layer_1" data-name="Layer 1" xmlns="http://www.w3.org/2000/svg" xmlns:xlink="http://www.w3.org/1999/xlink" viewBox="0 0 525.82 449.53">
  <defs>
    <style>
      .cls-1, .cls-2, .cls-3, .cls-4, .cls-5 {
        fill: #fff;
      }

      .cls-6, .cls-3, .cls-7 {
        opacity: .5;
      }

      .cls-8 {
        clip-path: url(#clippath-2);
      }

      .cls-9, .cls-10 {
        opacity: .2;
      }

      .cls-2 {
        opacity: .1;
      }

      .cls-11 {
        stroke: #fff;
      }

      .cls-11, .cls-10, .cls-12 {
        fill: #1a2e35;
      }

      .cls-11, .cls-13, .cls-4, .cls-14 {
        stroke-miterlimit: 10;
      }

      .cls-15, .cls-7, .cls-16 {
        fill: #ff3c57;
      }

      .cls-17 {
        clip-path: url(#clippath-1);
      }

      .cls-18, .cls-13, .cls-4, .cls-5, .cls-19, .cls-16, .cls-20, .cls-21 {
        stroke: #1a2e35;
      }

      .cls-18, .cls-13, .cls-22, .cls-23, .cls-14 {
        fill: none;
      }

      .cls-18, .cls-22, .cls-5, .cls-19, .cls-16, .cls-20, .cls-21 {
        stroke-linecap: round;
        stroke-linejoin: round;
      }

      .cls-24 {
        fill: #5ae4a7;
      }

      .cls-25 {
        clip-path: url(#clippath);
      }

      .cls-22, .cls-14 {
        stroke: #ccc;
      }

      .cls-19 {
        fill: #999;
      }

      .cls-20 {
        fill: #bfbfbf;
      }

      .cls-21 {
        fill: #757575;
      }
    </style>
    <clipPath id="clippath">
      <path class="cls-1" d="m373.54,382.24l.13-50.22c.55-2.03.98-9.48,2.15-14.67,1.97-8.7-5.8-19.19-6.35-19.53-2.18-1.36-6.81-1.34-6.81-1.34,0,0-4.51-5.19-8.59-6.83-4.07-1.63-8.7-1.08-8.7-1.08,0,0-5.17-4.35-10.33-6.26-5.17-1.9-8.7,1.64-8.7,1.64l-5.08,7.91c-1.5,2.33-1.29,5.46.69,7.4,2.43,2.39,5.54,1.28,7.11,1.28,2.18,0,2.99-2.46,2.99-2.46,0,0,.53,12.79,0,14.42h-.01c-.56,1.64-4.62,5.45-4.62,5.45l-13.59-17.99c-3.94-5.2-9.52-14.26-12.24-20.19-.4-.86-.89-1.68-1.53-2.38-2.38-2.7-7.49-3.49-8.81,1.51-.35,1.34-.23,3.51.22,4.81,5.69,16.79,12.92,29.48,19.52,42.7,3.93,7.85,2.47,7.76,4.42,11.31-.23.16-.12.45-.36.6-.96,3.82-1.63,7.65-2.59,11.46-.92-4.58-2.16-9.7-4.35-13.83.44-2.67.86-5.39.6-8.08-.26-2.7-1.3-5.42-3.37-7.17-1.07-.9-2.52-1.45-3.96-1.54-2.15-.16-4.05,1.41-4.36,3.54-.3,2.02-.58,4.47-1.14,6.15-1.71,5.18-3.14,7.54-3.14,7.72,0,5.07,3.14,4.24,5.42,24.63,1.77,15.88,22.22,26.37,33.36,37.83l11.86,37.32c13.77-5.52,26.95-12.58,39.59-20.79l-9.42-33.3Z"/>
    </clipPath>
    <clipPath id="clippath-1">
      <path class="cls-1" d="m248.04,323.1c-.49-2.25-3.68-1.92-3.68-1.92-10.73.63-12.18,17.46-12.18,17.46l-3.84,11.52-1.2-17.33.12-22.34s3.25-21.38,1.8-24.74c-1.43-3.37-4.44-3.25-4.44-3.25-6.25-1.57-6.61,7.44-6.61,7.44l-5.28,18.38-2.16,19.83-1.8-.96s-.85-21.03-.49-21.38c.36-.36,2.53-14.54,2.53-14.54,0,0,1.19-2.64,2.64-6.01,1.43-3.37,0-6.01,0-6.01-2.53-5.17-7.8-2.76-8.89,0-1.08,2.76-4.33,8.17-4.33,8.17l-6.02,16.46c.23,3.72-1.91,22.1-1.91,22.1l-2.16-.98-3.49-10.79,2.65-11.05s5.76-6.36,4.8-10.09c-.96-3.72-5.88-2.64-5.88-2.64l-9.85,11.77h-2.89l-6.84,8.66c-1.85,5.59-2.78,11.41-2.78,17.26,0,3.83.4,7.68,1.22,11.46l1.57,7.31v47.21s-4.68,7.56-4.68,8.28c0,.33-1.93,6.3-4.63,13.74,11.78,6.93,21.93,12.29,29.11,15.12,3.38,1.34,6.8,2.61,10.22,3.83,4.32-12.12,9.36-25.09,12.14-28.12,5.52-6.01,16.33-17.54,16.33-17.54,0,0,12.29-19.73,13.72-26.29,1.19-5.39,4.07-15.16,5.07-18.51.23-.75.33-1.56.28-2.35-.09-1.77-.26-5.21-.26-8.25,0-4.33,2.56-8.66,2.09-10.89Z"/>
    </clipPath>
    <clipPath id="clippath-2">
      <path class="cls-4" d="m489.82,301.17c0,4.68-.39,9.21-1.11,13.48-3.29,19.66-13.63,34-25.86,34-1.09,0-2.19-.12-3.25-.34-13.35-2.83-23.7-22.85-23.7-47.14,0-26.22,12.07-35.5,26.95-35.5s26.96,9.27,26.96,35.5Z"/>
    </clipPath>
  </defs>
  <path class="cls-10" d="m15.09,238.85c-.23-.15-.17-.25,0,0h0Z"/>
  <g>
    <path class="cls-9" d="m121.34,228.83c-1.16,7.72-6.86,14.01-14.28,16.44l-2.82.92c-10.13,14.35-27.9,20.47-43.04,11.58l-4.43-2.6-12.41-14.75s-.1.02-.15.03c-3.93.82-8.37.22-11.28-2.56-.47,2.43-3.64,3.86-5.76,2.61s-2.4-4.73-.5-6.3c-2.5,2.2-6.36,1.19-8.77-1.22-.1-6.58.59-13.16,2.22-19.64,1.02-4.03,2.33-7.92,3.92-11.64,1.2-2.87,2.57-5.63,4.08-8.34.11-.23.25-.47.39-.69,2.24-3.95,4.77-7.74,7.55-11.38l1.43-1.3c1.08-.99,2.17-1.95,3.27-2.93.07-.06.14-.12.2-.18,1.76-1.54,3.54-3.07,5.35-4.58,2.78-2.33,5.61-4.61,8.46-6.88.09-.08.19-.15.28-.23,2.44-1.93,4.91-3.85,7.36-5.76,1.24-.95,2.47-1.91,3.7-2.86.75.09,1.48.26,2.18.51,3.03,1.06,3.56,3.84,5.66,5.75,2.79,2.56,5.48-1.74,9.78-1.6,13.23.41,8.1,13.98,14.56,12.28,27.91-7.36,23.22,28.34,11.09,36.18,7.16,5.93,13.33,9.85,11.94,19.14Z"/>
    <g>
      <ellipse class="cls-4" cx="61.32" cy="216.28" rx="47.08" ry="46.49"/>
      <ellipse class="cls-11" cx="61.32" cy="214.4" rx="42.92" ry="42.39"/>
    </g>
    <g>
      <path class="cls-15" d="m15.2,231.11c-2.7,1.68-3.48,7.33-1.34,9.78,2.13,2.43,6.2.55,7.03-3.26.39,1.07,1.65,1.24,2.29.32.46-.66.47-1.69.16-2.39-.2-.17-.13-.29,0,0,1.38,1.1,3.77-.1,4.1-2.45-1.01,6.24,4.67,11.7,8.85,8.52-1.23,2.65.38,6.15,2.55,6.82,2.15.67,4.48-.6,6.55-2.02,2.07-1.42,4.18-3.03,6.44-3.13,1.97-.09,3.8,1.02,5.67,1.68,5.98,2.08,12.97-.68,17.54-6.94,3.02,5.17,10.46,3.27,12.46-3.17.42,3.01,2.48,5.31,4.78,5.34,2.3.03,4.62-2.2,5.41-5.2v.04c.05,2.85,2.59,4.25,4.41,2.41,2.32-2.34,3.76-6.64,2.62-10.08,3.1-.12,6.09-3.71,6.56-7.87.48-4.16-1.62-8.33-4.61-9.15,5.12-2.13,9.14-9.11,9.33-16.24.18-7.11-3.47-13.73-8.51-15.4-1.92-.63-4.16-.51-5.78,1.21-.6-4.05-2.44-7.68-5.15-9.5-4.32-2.92-10.33-.92-13.54,4.51,1.57-2.81,1.67-6.86.25-9.53-1.43-2.65-4.26-3.71-6.67-2.46-.52-4.35-3.88-7.44-7.16-6.6-3.28.85-5.93,5.49-5.65,9.9-.31-3.55-4.49-4.42-6-1.45.13.27-.06.11,0,0-2.09-4.38-6.34-6.64-10.28-5.36-4.19,1.38-7.71,6.64-8.25,12.38-2.89-2.64-7.11-2.52-10.22.28-3.1,2.79-4.89,8.11-4.35,12.87-3.26-3.22-8.75-1.46-10.99,3.51-2.24,4.98-.69,12.03,3.08,14.11-2.61.4-4.9,3.85-4.9,7.35,0,3.51,2.31,6.5,4.92,6.41-2.63.23-5.12,3.34-5.5,6.87-.38,3.55,1.38,7.08,3.9,7.86Z"/>
      <g class="cls-9">
        <path class="cls-1" d="m58.47,214.82c-1.32-1.1-2.99-1.64-4.6-1.13-1.6.51-3.08,2.17-3.44,4.22-.37,2.05.58,4.32,2.16,4.71,1.92.48,3.88-1.67,5.84-1.43.7.08,1.33.47,2.01.66,2.8.79,5.64-1.73,8.02-4.1.84-.83,1.69-1.69,2.26-2.83.57-1.14.8-2.64.3-3.74-.69-1.53-2.39-1.66-3.82-1.36-2.86.59-5.64,2.23-7.91,4.66.08-.57.17-1.15.25-1.72l-1.08,2.07Z"/>
        <path class="cls-1" d="m99.51,209.22c-.75-.64-1.53-1.28-2.43-1.5-.9-.22-1.98.1-2.57,1.07-.81,1.33-.35,3.31.63,4.27.98.96,2.3,1.16,3.56,1.33,1.29.18,2.93.14,3.6-1.37.49-1.09.14-2.48-.55-3.27-.68-.79-1.62-1.13-2.53-1.45l.28.92Z"/>
        <g>
          <path class="cls-1" d="m35.27,186.01c-2.64,1.55-4.71,4.75-5.38,8.31-.2,1.07-.2,2.41.52,2.93.51.37,1.17.16,1.77-.05,2.51-.91,5.03-1.82,7.54-2.73-1.21.66-2.44,1.35-3.42,2.49-.98,1.15-1.65,2.88-1.37,4.45.33,1.84,1.91,2.89,3.42,2.77,1.51-.12,2.93-1.16,4.17-2.35,1.33-1.27,2.64-3.01,2.7-5.06.06-2.05-1.93-3.83-3.19-2.44,2.88-1.17,5.64-2.92,8.14-5.17.9-.81,1.8-1.72,2.38-2.92.58-1.2.8-2.75.31-3.91-2.46-5.78-5.85,3.13-7.45,4-3.02,1.65-6.31-2.57-10.15-.31Z"/>
          <path class="cls-1" d="m23.15,212.08c-.29,1.18-.13,2.57.6,3.28.73.71,2.04.37,2.41-.77-1.69.77-3.49,1.65-4.57,3.51-1.08,1.86-.88,4.99.78,5.58,1.03.37,2.16-.35,3.13-1.08,2.75-2.06,5.39-4.4,7.87-6.99-.78,2.24.96,4.61,2.82,4.7,1.86.09,3.63-1.3,5.25-2.64,1.99-1.64,4.28-4.1,3.82-6.92-.4-2.46-2.88-3.4-4.8-2.56-1.93.85-3.41,2.9-4.78,4.88,1.09-2.02-.35-4.83-2.19-5.03-1.78-.2-3.6,1.3-4.74,3.05,2.11-1.59,2.65-5.42-.14-5.69-1.81-.18-4.98,4.73-5.46,6.69Z"/>
          <path class="cls-1" d="m80.55,200.03c-1.56-.65-3.56.77-4.02,2.88-.46,2.1.72,4.4,2.37,4.62-1.22.21-2.41,1.06-3.22,2.31-.45.7-.79,1.57-.71,2.43.12,1.28,1.18,2.06,2.2,2.04,1.02-.02,2-.63,2.94-1.22-1.01.18-2.08.4-2.89,1.24-.81.84-1.19,2.53-.49,3.4.59.72,1.58.54,2.4.2,1.84-.76,3.56-2.09,4.98-3.83,1.01,1.41,2.54,2.37,4.07,1.96,1.54-.41,2.88-2.57,2.43-4.43-.32-1.32-1.4-2.1-2.5-2.2-1.1-.1-2.21.35-3.27.85,1.1-1.04,2.26-2.2,2.68-3.84.42-1.63-.39-3.74-1.71-3.53-1.49.24-2.29,2.86-3.48,3.86-1.41-1.64,1.36-5.4-1.78-6.72Z"/>
          <path class="cls-1" d="m53.97,193.8c-1.71,1.56-2.35,4.47-2.28,7.06.08,2.86,1.04,5.85,3.08,6.88,2.68,1.35,6.12-1.74,6.69-5.49.57-3.75-1.28-7.42-3.87-9,0,0-1.9-1.01-3.62.55Z"/>
          <path class="cls-1" d="m72.96,189.55c.23.24.46.48.68.73-1.12-1.79-3.54-1.88-4.93-.19-1.39,1.69-1.46,4.79-.13,6.32,1.33,1.53,3.76,1.16,4.95-.76,1.94,1.04,4.53.43,5.94-1.77,1.42-2.2,1.17-5.88-.68-7.12-1.85-1.24-4.74.97-4.6,3.7-.26-.37-.53-.74-.79-1.11l-.44.21Z"/>
          <path class="cls-1" d="m93.78,192.57c-1.37,1.76-2.8,3.65-3.33,5.99-.53,2.34.22,5.24,2.04,5.72,1.8.48,3.55-1.53,4.62-3.58.97-1.85,1.72-4.13,1.22-6.13-.5-2.01-2.78-3.07-3.96-1.43l-.58-.57Z"/>
          <path class="cls-1" d="m63.92,180.43c-.65-1.9-2.8-2.45-4.24-1.23-1.44,1.21-2.01,3.78-1.42,5.71.58,1.94,2.15,3.18,3.8,3.31,2.05.16,4.52-2.1,4.1-4.64.86,1.43,2.44,1.93,3.9,1.65,1.46-.27,2.83-1.2,4.12-2.21,1.75-1.37,3.62-3.44,3.49-5.96-.11-2-1.61-3.46-3.18-3.55-1.58-.09-3.15.94-4.38,2.33-.97,1.09-1.78,2.41-2.82,3.38-1.04.97-2.44,1.54-3.53.85l.15.36Z"/>
        </g>
      </g>
    </g>
  </g>
  <g>
    <g>
      <rect class="cls-16" x="144.07" y="250.78" width="262.04" height="110.36"/>
      <g>
        <rect class="cls-4" x="149.55" y="257.46" width="24.66" height="13.65"/>
        <rect class="cls-4" x="361.22" y="323.99" width="38.83" height="13.65"/>
        <rect class="cls-4" x="376.09" y="274.51" width="23.97" height="13.65"/>
        <rect class="cls-4" x="149.55" y="307.16" width="24.66" height="13.65"/>
        <rect class="cls-4" x="149.55" y="290.73" width="19.96" height="13.65"/>
        <g>
          <rect class="cls-4" x="149.55" y="274.09" width="13.65" height="13.65"/>
          <rect class="cls-4" x="166.97" y="274.09" width="13.65" height="13.65"/>
          <rect class="cls-4" x="184.39" y="274.09" width="13.65" height="13.65"/>
          <rect class="cls-4" x="201.81" y="274.09" width="13.65" height="13.65"/>
          <rect class="cls-4" x="219.23" y="274.09" width="13.65" height="13.65"/>
          <rect class="cls-4" x="236.64" y="274.09" width="13.65" height="13.65"/>
          <rect class="cls-4" x="254.06" y="274.09" width="13.65" height="13.65"/>
          <rect class="cls-4" x="271.48" y="274.09" width="13.65" height="13.65"/>
          <rect class="cls-4" x="288.9" y="274.09" width="13.65" height="13.65"/>
          <rect class="cls-4" x="306.32" y="274.09" width="13.65" height="13.65"/>
          <rect class="cls-4" x="323.74" y="274.09" width="13.65" height="13.65"/>
          <rect class="cls-4" x="341.16" y="274.09" width="13.65" height="13.65"/>
          <rect class="cls-4" x="358.58" y="274.09" width="13.65" height="13.65"/>
        </g>
        <g>
          <rect class="cls-4" x="149.55" y="340.82" width="13.65" height="13.65"/>
          <rect class="cls-4" x="166.97" y="340.82" width="13.65" height="13.65"/>
          <rect class="cls-4" x="184.39" y="340.82" width="13.65" height="13.65"/>
          <rect class="cls-4" x="201.81" y="340.82" width="16.65" height="13.65"/>
          <rect class="cls-4" x="222.23" y="340.82" width="83.33" height="13.65"/>
          <rect class="cls-4" x="333.57" y="340.82" width="13.65" height="13.65"/>
          <rect class="cls-4" x="350.99" y="340.82" width="13.65" height="13.65"/>
          <rect class="cls-4" x="368.44" y="340.82" width="13.65" height="13.65"/>
          <rect class="cls-4" x="308.96" y="340.82" width="21.19" height="13.65"/>
          <rect class="cls-4" x="386.41" y="340.82" width="13.65" height="13.65"/>
        </g>
        <g>
          <rect class="cls-4" x="173.38" y="290.73" width="13.65" height="13.65"/>
          <rect class="cls-4" x="190.8" y="290.73" width="13.65" height="13.65"/>
          <rect class="cls-4" x="208.22" y="290.73" width="13.65" height="13.65"/>
          <rect class="cls-4" x="225.64" y="290.73" width="13.65" height="13.65"/>
          <rect class="cls-4" x="243.06" y="290.73" width="13.65" height="13.65"/>
          <rect class="cls-4" x="260.48" y="290.73" width="13.65" height="13.65"/>
          <rect class="cls-4" x="277.9" y="290.73" width="13.65" height="13.65"/>
          <rect class="cls-4" x="295.32" y="290.73" width="13.65" height="13.65"/>
          <rect class="cls-4" x="312.73" y="290.73" width="13.65" height="13.65"/>
          <rect class="cls-4" x="330.15" y="290.73" width="13.65" height="13.65"/>
          <rect class="cls-4" x="347.57" y="290.73" width="13.65" height="13.65"/>
          <rect class="cls-4" x="364.99" y="290.73" width="13.65" height="13.65"/>
          <polygon class="cls-4" points="400.06 290.73 400.06 321.01 386.41 321.01 386.41 304.37 382.41 304.37 382.41 290.73 400.06 290.73"/>
        </g>
        <g>
          <rect class="cls-4" x="177.38" y="307.36" width="13.65" height="13.65"/>
          <rect class="cls-4" x="194.79" y="307.36" width="13.65" height="13.65"/>
          <rect class="cls-4" x="212.21" y="307.36" width="13.65" height="13.65"/>
          <rect class="cls-4" x="229.63" y="307.36" width="13.65" height="13.65"/>
          <rect class="cls-4" x="247.05" y="307.36" width="13.65" height="13.65"/>
          <rect class="cls-4" x="264.47" y="307.36" width="13.65" height="13.65"/>
          <rect class="cls-4" x="281.89" y="307.36" width="13.65" height="13.65"/>
          <rect class="cls-4" x="299.31" y="307.36" width="13.65" height="13.65"/>
          <rect class="cls-4" x="316.73" y="307.36" width="13.65" height="13.65"/>
          <rect class="cls-4" x="334.15" y="307.36" width="13.65" height="13.65"/>
          <rect class="cls-4" x="351.57" y="307.36" width="13.65" height="13.65"/>
          <rect class="cls-4" x="368.99" y="307.36" width="13.65" height="13.65"/>
        </g>
        <g>
          <rect class="cls-4" x="169.97" y="323.99" width="13.65" height="13.65"/>
          <rect class="cls-4" x="187.39" y="323.99" width="13.65" height="13.65"/>
          <rect class="cls-4" x="204.81" y="323.99" width="13.65" height="13.65"/>
          <rect class="cls-4" x="222.23" y="323.99" width="13.65" height="13.65"/>
          <rect class="cls-4" x="239.65" y="323.99" width="13.65" height="13.65"/>
          <rect class="cls-4" x="257.07" y="323.99" width="13.65" height="13.65"/>
          <rect class="cls-4" x="274.49" y="323.99" width="13.65" height="13.65"/>
          <rect class="cls-4" x="291.91" y="323.99" width="13.65" height="13.65"/>
          <rect class="cls-4" x="309.33" y="323.99" width="13.65" height="13.65"/>
          <rect class="cls-4" x="326.75" y="323.99" width="13.65" height="13.65"/>
          <rect class="cls-4" x="344.17" y="323.99" width="13.65" height="13.65"/>
        </g>
        <g>
          <rect class="cls-4" x="177.38" y="258.28" width="13.65" height="13.65"/>
          <rect class="cls-4" x="194.79" y="258.28" width="13.65" height="13.65"/>
          <rect class="cls-4" x="212.21" y="258.28" width="13.65" height="13.65"/>
          <rect class="cls-4" x="229.63" y="258.28" width="13.65" height="13.65"/>
          <rect class="cls-4" x="247.05" y="258.28" width="13.65" height="13.65"/>
          <rect class="cls-4" x="264.47" y="258.28" width="13.65" height="13.65"/>
          <rect class="cls-4" x="281.89" y="258.28" width="13.65" height="13.65"/>
          <rect class="cls-4" x="299.31" y="258.28" width="13.65" height="13.65"/>
          <rect class="cls-4" x="316.73" y="258.28" width="13.65" height="13.65"/>
          <rect class="cls-4" x="334.15" y="258.28" width="13.65" height="13.65"/>
          <rect class="cls-4" x="351.57" y="258.28" width="13.65" height="13.65"/>
          <rect class="cls-4" x="368.99" y="258.28" width="13.65" height="13.65"/>
          <rect class="cls-4" x="386.41" y="258.28" width="13.65" height="13.65"/>
        </g>
        <rect class="cls-4" x="149.55" y="323.99" width="16.53" height="13.65"/>
      </g>
    </g>
    <polygon class="cls-12" points="144.07 251.49 149.55 249.66 402.56 249.66 406.16 251.47 144.07 251.49"/>
  </g>
  <g>
    <path class="cls-9" d="m331.12,440.77l-5.33-32.09c-1.17-4.78-3.68-9.13-7.21-12.56-10.6-10.22-24.61-20.72-25.21-34.13-.92-20.48-4.11-19.87-3.77-24.92.01-.18,1.59-2.44,3.65-7.5.66-1.64,1.1-4.07,1.54-6.07.45-2.1,2.45-3.53,4.59-3.24,1.43.19,2.84.84,3.85,1.81,1.94,1.89,2.81,4.67,2.89,7.38.08,2.7-.52,5.38-1.14,8.02,1.91,4.27,2.81,9.46,3.42,14.1,1.22-3.75,2.14-7.53,3.35-11.27.25-.14.16-.43.4-.57-1.72-3.68-.26-3.48-3.66-11.58-5.71-13.63-12.09-26.78-16.64-43.91-.36-1.33-.34-3.51.1-4.82,1.65-4.9,6.69-3.77,8.9-.92.59.75,1.02,1.59,1.36,2.48,2.33,6.1,7.29,15.51,10.87,20.96l12.37,18.86s4.31-3.53,4.96-5.11h.01c.65-1.6.97-14.4.97-14.4,0,0-.98,2.4-3.15,2.26-1.57-.11-4.75.8-7.01-1.75-1.85-2.08-1.85-5.2-.2-7.43l5.6-7.57s3.76-3.29,8.79-1.06c5.02,2.25,9.89,6.93,9.89,6.93,0,0,4.66-.24,8.61,1.66,3.96,1.91,8.12,7.38,8.12,7.38,0,0,4.62.28,6.7,1.79.52.37,7.58,11.36,5.03,19.91-1.51,5.1-2.44,12.51-3.12,14.5l-3.46,50.09,6.99,32.97-14.94,8.33c-5.49,3.06-11.25,5.63-17.19,7.69l-10.94,3.78Z"/>
    <g>
      <g>
        <g>
          <path class="cls-1" d="m373.54,382.24l.13-50.22c.55-2.03.98-9.48,2.15-14.67,1.97-8.7-5.8-19.19-6.35-19.53-2.18-1.36-6.81-1.34-6.81-1.34,0,0-4.51-5.19-8.59-6.83-4.07-1.63-8.7-1.08-8.7-1.08,0,0-5.17-4.35-10.33-6.26-5.17-1.9-8.7,1.64-8.7,1.64l-5.08,7.91c-1.5,2.33-1.29,5.46.69,7.4,2.43,2.39,5.54,1.28,7.11,1.28,2.18,0,2.99-2.46,2.99-2.46,0,0,.53,12.79,0,14.42h-.01c-.56,1.64-4.62,5.45-4.62,5.45l-13.59-17.99c-3.94-5.2-9.52-14.26-12.24-20.19-.4-.86-.89-1.68-1.53-2.38-2.38-2.7-7.49-3.49-8.81,1.51-.35,1.34-.23,3.51.22,4.81,5.69,16.79,12.92,29.48,19.52,42.7,3.93,7.85,2.47,7.76,4.42,11.31-.23.16-.12.45-.36.6-.96,3.82-1.63,7.65-2.59,11.46-.92-4.58-2.16-9.7-4.35-13.83.44-2.67.86-5.39.6-8.08-.26-2.7-1.3-5.42-3.37-7.17-1.07-.9-2.52-1.45-3.96-1.54-2.15-.16-4.05,1.41-4.36,3.54-.3,2.02-.58,4.47-1.14,6.15-1.71,5.18-3.14,7.54-3.14,7.72,0,5.07,3.14,4.24,5.42,24.63,1.77,15.88,22.22,26.37,33.36,37.83l11.86,37.32c13.77-5.52,26.95-12.58,39.59-20.79l-9.42-33.3Z"/>
          <g class="cls-25">
            <g>
              <g>
                <path class="cls-24" d="m367.71,314.01c.6-1.48,1.32-3,2.61-3.94s3.31-1.06,4.35.15c-.85-2.61-1.75-5.19-2.7-7.76-.72-1.96-1.54-3.99-3.16-5.31s-4.28-1.6-5.66-.04c.99,5.93,1.09,12,.32,17.95-.42,3.23-.96,6.93,1.21,9.36.6.49,1.64-.39,1.26-1.06-.18-.32-.82-.34-1.1-.31.7-3.08,1.68-6.12,2.88-9.04Z"/>
                <path class="cls-24" d="m367.71,314.01c.6-1.48,1.32-3,2.61-3.94s3.31-1.06,4.35.15c-.85-2.61-1.75-5.19-2.7-7.76-.72-1.96-1.54-3.99-3.16-5.31s-4.28-1.6-5.66-.04c.99,5.93,1.09,12,.32,17.95-.42,3.23-.96,6.93,1.21,9.36.6.49,1.64-.39,1.26-1.06-.18-.32-.82-.34-1.1-.31.7-3.08,1.68-6.12,2.88-9.04Z"/>
                <path class="cls-7" d="m367.71,314.01c.6-1.48,1.32-3,2.61-3.94s3.31-1.06,4.35.15c-.85-2.61-1.75-5.19-2.7-7.76-.72-1.96-1.54-3.99-3.16-5.31s-4.28-1.6-5.66-.04c.99,5.93,1.09,12,.32,17.95-.42,3.23-.96,6.93,1.21,9.36.6.49,1.64-.39,1.26-1.06-.18-.32-.82-.34-1.1-.31.7-3.08,1.68-6.12,2.88-9.04Z"/>
              </g>
              <g>
                <path class="cls-24" d="m349.59,308.62c.09,2.18.07,4.4.61,6.52.54,2.12,1.72,4.18,3.63,5.24-1.13-4.23-.52-8.71.1-13.05.37-2.63.75-5.27,1.12-7.9.13-.92.27-1.87.8-2.63s1.56-1.26,2.4-.87c-1.12.67-2.58-.23-3.26-1.34-.68-1.12-.94-2.46-1.75-3.49-1.52-1.95-4.77-2.38-7.01-1.86.68,6.49,3.09,12.68,3.35,19.39Z"/>
                <path class="cls-24" d="m349.59,308.62c.09,2.18.07,4.4.61,6.52.54,2.12,1.72,4.18,3.63,5.24-1.13-4.23-.52-8.71.1-13.05.37-2.63.75-5.27,1.12-7.9.13-.92.27-1.87.8-2.63s1.56-1.26,2.4-.87c-1.12.67-2.58-.23-3.26-1.34-.68-1.12-.94-2.46-1.75-3.49-1.52-1.95-4.77-2.38-7.01-1.86.68,6.49,3.09,12.68,3.35,19.39Z"/>
                <g class="cls-6">
                  <path class="cls-15" d="m349.59,308.62c.09,2.18.07,4.4.61,6.52.54,2.12,1.72,4.18,3.63,5.24-1.13-4.23-.52-8.71.1-13.05.37-2.63.75-5.27,1.12-7.9.13-.92.27-1.87.8-2.63s1.56-1.26,2.4-.87c-1.12.67-2.58-.23-3.26-1.34-.68-1.12-.94-2.46-1.75-3.49-1.52-1.95-4.77-2.38-7.01-1.86.68,6.49,3.09,12.68,3.35,19.39Z"/>
                </g>
              </g>
              <g>
                <g>
                  <path class="cls-24" d="m331.04,291.1c-.73-.54-.98-1.51-1.2-2.39-.22-.88-.54-1.85-1.33-2.29-3.49,2.21-1.58,8.7-5.11,10.85-.68.42-1.56.65-1.94,1.36-.34.64-.13,1.47.37,2,.5.53,1.22.79,1.93.92,2.81.5,5.76-.93,7.44-3.24,1.38-1.9,2.34-4.98,1.66-7.23-.53.3-1.3.41-1.82.03Z"/>
                  <path class="cls-24" d="m294.78,333.57c-.06.24-.11.55.09.71.3.25.7-.14.92-.45,1.46-2.08,4.36-3.02,6.77-2.2.92-.02,1.23-1.42.63-2.11s-1.62-.82-2.54-.82c-.92,0-1.9.05-2.68-.44-.96-.6-1.33-1.82-1.09-2.86-.62,2.74-1.38,5.46-2.09,8.18Z"/>
                </g>
                <g class="cls-6">
                  <path class="cls-15" d="m331.04,291.1c-.73-.54-.98-1.51-1.2-2.39-.22-.88-.54-1.85-1.33-2.29-3.49,2.21-1.58,8.7-5.11,10.85-.68.42-1.56.65-1.94,1.36-.34.64-.13,1.47.37,2,.5.53,1.22.79,1.93.92,2.81.5,5.76-.93,7.44-3.24,1.38-1.9,2.34-4.98,1.66-7.23-.53.3-1.3.41-1.82.03Z"/>
                  <path class="cls-15" d="m294.78,333.57c-.06.24-.11.55.09.71.3.25.7-.14.92-.45,1.46-2.08,4.36-3.02,6.77-2.2.92-.02,1.23-1.42.63-2.11s-1.62-.82-2.54-.82c-.92,0-1.9.05-2.68-.44-.96-.6-1.33-1.82-1.09-2.86-.62,2.74-1.38,5.46-2.09,8.18Z"/>
                </g>
              </g>
              <g>
                <path class="cls-24" d="m341.03,290.24c-1.99-.27-4.09-.31-5.82-1.33-2.17-1.27-3.65-3.98-6.16-4.09-2.23-.1-3.89,1.95-5.16,3.78-.15-2.77,1.89-5.36,4.47-6.4,2.58-1.03,5.54-.7,8.12.32,2.58,1.03,4.85,2.7,7.05,4.39.89.68,1.78,1.38,2.38,2.33,2.8,4.41-3.14,1.23-4.89,1Z"/>
                <path class="cls-7" d="m341.03,290.24c-1.99-.27-4.09-.31-5.82-1.33-2.17-1.27-3.65-3.98-6.16-4.09-2.23-.1-3.89,1.95-5.16,3.78-.15-2.77,1.89-5.36,4.47-6.4,2.58-1.03,5.54-.7,8.12.32,2.58,1.03,4.85,2.7,7.05,4.39.89.68,1.78,1.38,2.38,2.33,2.8,4.41-3.14,1.23-4.89,1Z"/>
              </g>
            </g>
            <g>
              <path class="cls-24" d="m305.49,354.76c.14-.25.26-.51.37-.76-.24.18-.4.44-.37.76Z"/>
              <path class="cls-24" d="m308.87,337.16c-.22-2.8.18-5.62.06-8.42-.12-2.81-.85-5.76-2.89-7.69-2.93-2.76-10.96-1.35-8.27,3.89.75,1.45,2.67,2.21,4.17,1.55s2.23-2.69,1.41-4.1c3.25,4.92,2.96,11.91-.69,16.55,4.16,3.61,5.48,10.06,3.21,15.05.49-.37,1.34-.42,1.87-.02.79.6,1.06,1.65,1.45,2.57.39.92,1.14,1.87,2.13,1.81,1.37-3.35.91-7.15.03-10.65-.89-3.5-2.19-6.93-2.47-10.54Z"/>
              <path class="cls-24" d="m338.26,284.48c-1.56-1.2-3.42-2.01-5.37-2.27l5.37,2.27Z"/>
              <path class="cls-24" d="m351.62,320.02c-.43-1.93-1.32-3.73-1.85-5.64-1.24-4.44-.46-9.19-1.03-13.77-.73-5.92-3.82-11.51-8.44-15.29l-2.03-.86c1.95,1.49,3.44,3.58,4.1,5.95,1.57,5.42,2.07,11.09,2.76,16.7,1.08,8.64,2.65,17.23,4.72,25.69,1.35-4.14,2.72-8.53,1.78-12.79Z"/>
              <path class="cls-24" d="m329.99,299.82c1.41-1.11,2.16-2.89,2.4-4.67.21-1.59.06-3.2-.13-4.79-.13.68-1.03,1.26-1.79,1.08-.97-.23-1.6-1.12-2.15-1.95-.14.48-.28.95-.41,1.43-.06-.26-.11-.52-.17-.77l-.54.69c.8,2.28,1.58,4.93.34,7-.6,1-1.59,1.7-2.56,2.37,1.47,1.03,3.6.74,5.01-.37Z"/>
              <path class="cls-24" d="m332.19,289.79c.02.19.04.38.07.57.04-.19.03-.38-.07-.57Z"/>
              <path class="cls-24" d="m326.26,312.78c-3.98-7.82-7.97-15.65-12.35-23.26-2.56-4.45-5.27-8.85-8.69-12.68-1.51-1.7-5.86-5.63-8.26-3.04-1.6,1.73.5,4.87-1.46,6.74.45.03,2.67-.22,2.91.07,4.99,6.16,7.74,14.1,7.63,22.03,1.6-1.26,3.8.49,5.05,2.1,7.7,9.89,14.89,20.17,21.55,30.79-1.29-4.69-1.32-9.67-2.71-14.33-.88-2.93-2.27-5.68-3.66-8.41Z"/>
              <path class="cls-24" d="m372.53,331.86c1.9-5.09,3.39-10.31,3.56-15.72.15-4.91-.97-10.02-3.57-14.23-.66-1.06-3.39-5.42-4.88-5.06-2.67.63.84,5.27,1.45,6.43,2.3,4.37,4.67,9,4.52,13.94-.11,3.81-1.71,7.38-2.99,10.97-.89,2.5-1.62,5.17-1.6,7.79-.2.29-.38.59-.59.87-1.77,2.32-4.26,4.24-7.14,4.7,1.1-3.39,2.2-6.78,3.29-10.17.39-1.21.53-2.86-.17-3.71.23-.46.37-.95.35-1.48-.04-.93-.57-1.76-.96-2.61-1.52-3.27-1.01-7.08-.64-10.67.46-4.43.63-8.99-.67-13.25-1.3-4.26-4.31-8.21-8.53-9.62.36.39.72.78,1.08,1.17l-1.43-1.04c.89,1.85,1.78,3.69,2.66,5.54-.33.47-.65.93-.98,1.4,1.47-.77,3.34.35,4.01,1.86.67,1.51.49,3.25.33,4.89-.86,9.19-.4,18.49,1.34,27.56-.17,2.12-.53,4.26-1.64,6.06-1.19,1.95-3.42,3.41-5.68,3.08.5-2.18-.34-4.76-2.19-6.06-2.29,3.18-.94,8.12-.59,11.74.53,5.49,1.41,10.94,2.64,16.32.35-4.66,1.33-9.27,2.9-13.68,1.24,4.49,2.47,8.97,3.71,13.46.04-1.26.09-2.57.7-3.67s1.96-1.9,3.14-1.45c.96.36,1.48,1.39,1.88,2.34,3.21,7.71,4.02,16.4,2.29,24.58,1.53.85,3.54-.18,4.39-1.7.85-1.53.84-3.36.81-5.11-.26-15.16-.53-30.31-.79-45.47Z"/>
              <path class="cls-24" d="m334.02,336.66c-.73,1.28,2.25,6.34,2.74,7.55,2.5,6.11,5.01,12.23,7.51,18.34-.83-8.05-2.8-15.98-5.82-23.48-.51-1.27-2.98-4.93-4.43-2.4Z"/>
              <path class="cls-24" d="m337.91,304.26c-.43.65-1.04,1.44-1.78,1.21-.69-.21-.81-1.12-.8-1.84.07-4.25.14-8.51.21-12.76-3.43,2.46-2.99,5.69-3.23,9.36-.14,2.13.48,12.26-.97,13.51,3.39-2.9,6.27-6.4,8.45-10.29-.6-.49-1.45.17-1.88.81Z"/>
              <g class="cls-6">
                <path class="cls-1" d="m305.49,354.76c.14-.25.26-.51.37-.76-.24.18-.4.44-.37.76Z"/>
                <path class="cls-15" d="m308.87,337.16c-.22-2.8.18-5.62.06-8.42-.12-2.81-.85-5.76-2.89-7.69-2.93-2.76-10.96-1.35-8.27,3.89.75,1.45,2.67,2.21,4.17,1.55s2.23-2.69,1.41-4.1c3.25,4.92,2.96,11.91-.69,16.55,4.16,3.61,5.48,10.06,3.21,15.05.49-.37,1.34-.42,1.87-.02.79.6,1.06,1.65,1.45,2.57.39.92,1.14,1.87,2.13,1.81,1.37-3.35.91-7.15.03-10.65-.89-3.5-2.19-6.93-2.47-10.54Z"/>
                <path class="cls-1" d="m338.26,284.48c-1.56-1.2-3.42-2.01-5.37-2.27l5.37,2.27Z"/>
                <path class="cls-15" d="m351.62,320.02c-.43-1.93-1.32-3.73-1.85-5.64-1.24-4.44-.46-9.19-1.03-13.77-.73-5.92-3.82-11.51-8.44-15.29l-2.03-.86c1.95,1.49,3.44,3.58,4.1,5.95,1.57,5.42,2.07,11.09,2.76,16.7,1.08,8.64,2.65,17.23,4.72,25.69,1.35-4.14,2.72-8.53,1.78-12.79Z"/>
                <path class="cls-15" d="m329.99,299.82c1.41-1.11,2.16-2.89,2.4-4.67.21-1.59.06-3.2-.13-4.79-.13.68-1.03,1.26-1.79,1.08-.97-.23-1.6-1.12-2.15-1.95-.14.48-.28.95-.41,1.43-.06-.26-.11-.52-.17-.77l-.54.69c.8,2.28,1.58,4.93.34,7-.6,1-1.59,1.7-2.56,2.37,1.47,1.03,3.6.74,5.01-.37Z"/>
                <path class="cls-1" d="m332.19,289.79c.02.19.04.38.07.57.04-.19.03-.38-.07-.57Z"/>
                <path class="cls-15" d="m326.26,312.78c-3.98-7.82-7.97-15.65-12.35-23.26-2.56-4.45-5.27-8.85-8.69-12.68-1.51-1.7-5.86-5.63-8.26-3.04-1.6,1.73.5,4.87-1.46,6.74.45.03,2.67-.22,2.91.07,4.99,6.16,7.74,14.1,7.63,22.03,1.6-1.26,3.8.49,5.05,2.1,7.7,9.89,14.89,20.17,21.55,30.79-1.29-4.69-1.32-9.67-2.71-14.33-.88-2.93-2.27-5.68-3.66-8.41Z"/>
                <path class="cls-15" d="m372.53,331.86c1.9-5.09,3.39-10.31,3.56-15.72.15-4.91-.97-10.02-3.57-14.23-.66-1.06-3.39-5.42-4.88-5.06-2.67.63.84,5.27,1.45,6.43,2.3,4.37,4.67,9,4.52,13.94-.11,3.81-1.71,7.38-2.99,10.97-.89,2.5-1.62,5.17-1.6,7.79-.2.29-.38.59-.59.87-1.77,2.32-4.26,4.24-7.14,4.7,1.1-3.39,2.2-6.78,3.29-10.17.39-1.21.53-2.86-.17-3.71.23-.46.37-.95.35-1.48-.04-.93-.57-1.76-.96-2.61-1.52-3.27-1.01-7.08-.64-10.67.46-4.43.63-8.99-.67-13.25-1.3-4.26-4.31-8.21-8.53-9.62.36.39.72.78,1.08,1.17l-1.43-1.04c.89,1.85,1.78,3.69,2.66,5.54-.33.47-.65.93-.98,1.4,1.47-.77,3.34.35,4.01,1.86.67,1.51.49,3.25.33,4.89-.86,9.19-.4,18.49,1.34,27.56-.17,2.12-.53,4.26-1.64,6.06-1.19,1.95-3.42,3.41-5.68,3.08.5-2.18-.34-4.76-2.19-6.06-2.29,3.18-.94,8.12-.59,11.74.53,5.49,1.41,10.94,2.64,16.32.35-4.66,1.33-9.27,2.9-13.68,1.24,4.49,2.47,8.97,3.71,13.46.04-1.26.09-2.57.7-3.67s1.96-1.9,3.14-1.45c.96.36,1.48,1.39,1.88,2.34,3.21,7.71,4.02,16.4,2.29,24.58,1.53.85,3.54-.18,4.39-1.7.85-1.53.84-3.36.81-5.11-.26-15.16-.53-30.31-.79-45.47Z"/>
                <path class="cls-15" d="m334.02,336.66c-.73,1.28,2.25,6.34,2.74,7.55,2.5,6.11,5.01,12.23,7.51,18.34-.83-8.05-2.8-15.98-5.82-23.48-.51-1.27-2.98-4.93-4.43-2.4Z"/>
                <path class="cls-15" d="m337.91,304.26c-.43.65-1.04,1.44-1.78,1.21-.69-.21-.81-1.12-.8-1.84.07-4.25.14-8.51.21-12.76-3.43,2.46-2.99,5.69-3.23,9.36-.14,2.13.48,12.26-.97,13.51,3.39-2.9,6.27-6.4,8.45-10.29-.6-.49-1.45.17-1.88.81Z"/>
              </g>
            </g>
          </g>
        </g>
        <g>
          <g>
            <g>
              <path class="cls-23" d="m346.61,290.35c2.01,7.41,3.05,15.07,3.1,22.74,0,1.28,0,2.6.4,3.81.41,1.22,1.35,2.34,2.61,2.6"/>
              <path class="cls-23" d="m362.67,297.81c3.37,7.11-.08,23,.18,24.12.25,1.12.89,2.21,1.91,2.73"/>
              <g>
                <path class="cls-23" d="m333.39,289.38c-.4,2.26-.73,4.88-1.13,7.14-2.64-2.25-4.32-5.59-4.55-9.04"/>
                <path class="cls-23" d="m311.62,349.99c-.82.36-1.63.72-2.45,1.08"/>
                <path class="cls-23" d="m312.25,351.96c-.4,1.89-.41,3.86-.03,5.75"/>
                <path class="cls-23" d="m326.6,330.73c.91,1.63,1.81,3.26,2.72,4.9"/>
                <path class="cls-23" d="m331.83,312.81c.9-1.27,1.8-2.55,2.7-3.82"/>
                <path class="cls-23" d="m369.86,330.73c-.27,1-.54,1.99-.82,2.99"/>
                <path class="cls-23" d="m363.24,322.54c.8-2.54,1.59-5.09,2.39-7.63"/>
                <path class="cls-23" d="m371.24,309.01c1.4-.81,3.44-.18,4.13,1.29"/>
                <path class="cls-23" d="m354.91,295.96c1.88-.55,4.02-.06,5.47,1.25"/>
                <path class="cls-23" d="m304.31,303.54c1.74-1.94,4.46-2.96,7.05-2.65"/>
              </g>
            </g>
            <path class="cls-23" d="m294.06,282.11c1.62-1.19,3.74-1.68,5.72-1.34"/>
            <path class="cls-1" d="m296.17,332.95c-1.32,1.04-2.45,2.32-3.33,3.75l3.33-3.75Z"/>
          </g>
          <path class="cls-23" d="m297.26,327.79c1.8-1.28,4.66,1.59,6.31.12.66-.58.71-1.59.55-2.46-.15-.87-.46-1.73-.33-2.6"/>
        </g>
      </g>
      <path class="cls-23" d="m347.92,319.91c2.18,4.48,2.63,9.77,1.25,14.56"/>
      <path class="cls-23" d="m361.11,326.92c.36,2.13-.05,4.38-1.14,6.24"/>
    </g>
    <g>
      <g>
        <path class="cls-13" d="m343.37,436.32l-11.86-37.32c-11.13-11.46-31.58-21.95-33.36-37.83-2.29-20.39-5.42-19.56-5.42-24.63,0-.18,1.42-2.54,3.14-7.72.56-1.68.84-4.13,1.14-6.15.32-2.13,2.21-3.7,4.36-3.54,1.45.1,2.89.64,3.96,1.54,2.07,1.75,3.11,4.47,3.37,7.17.27,2.7-.16,5.41-.6,8.08,2.19,4.13,3.43,9.25,4.35,13.83.96-3.82,1.63-7.65,2.59-11.46.24-.15.13-.44.36-.6-1.96-3.55-.5-3.45-4.42-11.31-6.6-13.23-13.83-25.92-19.52-42.7-.45-1.3-.57-3.48-.22-4.81,1.33-5,6.43-4.21,8.81-1.51.64.71,1.13,1.52,1.53,2.38,2.72,5.93,8.3,14.99,12.24,20.19l13.59,17.99s4.06-3.8,4.62-5.43h.01c.53-1.64,0-14.43,0-14.43,0,0-.81,2.46-2.99,2.46-1.57,0-4.68,1.12-7.11-1.28-1.98-1.94-2.19-5.07-.69-7.4l5.08-7.91s3.54-3.54,8.7-1.64c5.17,1.91,10.33,6.26,10.33,6.26,0,0,4.63-.55,8.7,1.08,4.08,1.64,8.59,6.83,8.59,6.83,0,0,4.63-.02,6.81,1.34.55.34,8.31,10.83,6.35,19.53-1.17,5.19-1.6,12.64-2.15,14.67l-.13,50.22,9.42,33.3"/>
        <g>
          <g>
            <g>
              <path class="cls-13" d="m346.61,290.35c2.01,7.41,3.05,15.07,3.1,22.74,0,1.28,0,2.6.4,3.81.41,1.22,1.35,2.34,2.61,2.6"/>
              <path class="cls-13" d="m362.67,297.81c3.37,7.11-.08,23,.18,24.12.25,1.12.89,2.21,1.91,2.73"/>
              <g>
                <path class="cls-13" d="m333.39,289.38c-.4,2.26-.73,4.88-1.13,7.14-2.64-2.25-4.32-5.59-4.55-9.04"/>
                <path class="cls-13" d="m311.62,349.99c-.82.36-1.63.72-2.45,1.08"/>
                <path class="cls-13" d="m312.25,351.96c-.4,1.89-.41,3.86-.03,5.75"/>
                <path class="cls-13" d="m326.6,330.73c.91,1.63,1.81,3.26,2.72,4.9"/>
                <path class="cls-13" d="m331.83,312.81c.9-1.27,1.8-2.55,2.7-3.82"/>
                <path class="cls-13" d="m369.86,330.73c-.27,1-.54,1.99-.82,2.99"/>
                <path class="cls-13" d="m363.24,322.54c.8-2.54,1.59-5.09,2.39-7.63"/>
                <path class="cls-13" d="m371.24,309.01c1.4-.81,3.44-.18,4.13,1.29"/>
                <path class="cls-13" d="m354.91,295.96c1.88-.55,4.02-.06,5.47,1.25"/>
                <path class="cls-13" d="m304.31,303.54c1.74-1.94,4.46-2.96,7.05-2.65"/>
              </g>
            </g>
            <path class="cls-13" d="m294.06,282.11c1.62-1.19,3.74-1.68,5.72-1.34"/>
            <path class="cls-13" d="m296.17,332.95c-1.32,1.04-2.45,2.32-3.33,3.75"/>
          </g>
          <path class="cls-13" d="m297.26,327.79c1.8-1.28,4.66,1.59,6.31.12.66-.58.71-1.59.55-2.46-.15-.87-.46-1.73-.33-2.6"/>
        </g>
      </g>
      <path class="cls-13" d="m347.92,319.91c2.18,4.48,2.63,9.77,1.25,14.56"/>
      <path class="cls-13" d="m361.11,326.92c.36,2.13-.05,4.38-1.14,6.24"/>
    </g>
    <path class="cls-9" d="m251.28,343.97c.1.78.07,1.59-.1,2.36-.74,3.42-2.87,13.38-3.66,18.84-.93,6.66-11.69,27.26-11.69,27.26,0,0-9.91,12.31-14.95,18.72-2.48,3.15-6.4,15.88-9.72,28.01-4.2-1.27-8.36-2.65-12.5-4.11-3.42-1.22-6.84-2.5-10.21-3.83-4.75-1.87-10.8-4.85-17.76-8.66,1.89-6.85,3.15-12.12,3.12-12.43-.06-.72,4.04-8.61,4.04-8.61l-3.58-47.08-2.11-7.17c-1.1-3.7-1.79-7.52-2.08-11.34-.44-5.83.05-11.7,1.47-17.42l6.17-9.16,2.89-.22,8.93-12.47s4.83-1.45,6.07,2.18c1.24,3.65-4.02,10.43-4.02,10.43l-1.81,11.21,4.29,10.5,2.23.82s.75-18.48.24-22.18l4.75-16.87s2.83-5.63,3.7-8.47c.86-2.83,5.94-5.63,8.86-.67,0,0,1.62,2.52.45,5.99-1.19,3.46-2.18,6.19-2.18,6.19,0,0-1.08,14.29-1.42,14.69-.34.37,2.1,21.28,2.1,21.28l1.86.83.66-19.94,3.87-18.73s-.32-9.01,6.03-7.92c0,0,2.98-.34,4.67,2.91,1.69,3.24.08,24.8.08,24.8l1.57,22.29,2.51,17.19,2.95-11.78s.17-16.88,10.83-18.32c0,0,3.17-.57,3.82,1.64.65,2.19-1.58,6.7-1.26,11.02.24,3.03.67,6.45.89,8.21Z"/>
    <g>
      <g>
        <path class="cls-1" d="m248.04,323.1c-.49-2.25-3.68-1.92-3.68-1.92-10.73.63-12.18,17.46-12.18,17.46l-3.84,11.52-1.2-17.33.12-22.34s3.25-21.38,1.8-24.74c-1.43-3.37-4.44-3.25-4.44-3.25-6.25-1.57-6.61,7.44-6.61,7.44l-5.28,18.38-2.16,19.83-1.8-.96s-.85-21.03-.49-21.38c.36-.36,2.53-14.54,2.53-14.54,0,0,1.19-2.64,2.64-6.01,1.43-3.37,0-6.01,0-6.01-2.53-5.17-7.8-2.76-8.89,0-1.08,2.76-4.33,8.17-4.33,8.17l-6.02,16.46c.23,3.72-1.91,22.1-1.91,22.1l-2.16-.98-3.49-10.79,2.65-11.05s5.76-6.36,4.8-10.09c-.96-3.72-5.88-2.64-5.88-2.64l-9.85,11.77h-2.89l-6.84,8.66c-1.85,5.59-2.78,11.41-2.78,17.26,0,3.83.4,7.68,1.22,11.46l1.57,7.31v47.21s-4.68,7.56-4.68,8.28c0,.33-1.93,6.3-4.63,13.74,11.78,6.93,21.93,12.29,29.11,15.12,3.38,1.34,6.8,2.61,10.22,3.83,4.32-12.12,9.36-25.09,12.14-28.12,5.52-6.01,16.33-17.54,16.33-17.54,0,0,12.29-19.73,13.72-26.29,1.19-5.39,4.07-15.16,5.07-18.51.23-.75.33-1.56.28-2.35-.09-1.77-.26-5.21-.26-8.25,0-4.33,2.56-8.66,2.09-10.89Z"/>
        <g class="cls-17">
          <path class="cls-24" d="m174.32,318.35c1.83-2.29,5.61-3.17,7.74-1.16,1.22,1.15,1.64,2.91,1.95,4.56.31,1.65.62,3.4,1.71,4.68,1.1,1.28,3.28,1.78,4.44.55.15,2.49.31,4.98.46,7.46,2.65-4.61,4.02-9.95,3.91-15.26-.05-2.58-.44-5.21.16-7.72s2.55-4.96,5.13-5.08c2.86-.13,5.13,2.66,5.68,5.47s-.09,5.7-.27,8.56c-.27,4.36.59,8.79,2.46,12.74.6-1.22,1.2-2.44,1.8-3.65.54,2.44,1.08,4.89,1.63,7.33.47-5.38.94-10.76,1.41-16.14.13-1.52.28-3.08.99-4.44.71-1.35,2.13-2.45,3.65-2.3,2.05.2,3.22,2.39,3.91,4.33,5.12,14.47,3.01,30.38.84,45.58,1.42.25,2.62-1.18,2.97-2.58.36-1.4.23-2.91.76-4.26.53-1.34,2.18-2.45,3.4-1.68,1.79,1.13.54,4.62,2.42,5.58.58-4.5,2.38-8.83,5.14-12.42,1.26-1.64,3.15-3.26,5.15-2.74,1.49.39,2.46,1.91,2.68,3.44.22,1.53,2.42-4.77,2.04-3.28.86-8.76-.86-9.69,0-18.45.16-1.58,2.71-4.33,1.63-5.48-1.03-1.1-4.12-2.72-5.5-2.08-1.37.63-5.84,2.86-6.72,4.08-5.58,7.71-5.2,18.87-6.94,28.23-1.48-14.27-2.96-28.77-.34-42.88,1.44-7.78,4.1-15.88,1.59-23.39-1.15-3.42-4.19-6.85-7.74-6.2-2.87.53-4.6,3.41-5.76,6.09-3.91,8.98-5.65,18.72-7.36,28.36,2.13-9.7,4.27-19.41,6.4-29.11.55-2.52,1.11-5.12.65-7.66-.46-2.54-2.19-5.03-4.72-5.56-2.51-.53-5,.96-6.89,2.68-6.75,6.18-9.27,15.6-11.47,24.49.77-2.32,1.55-4.73,1.32-7.16-.24-2.43-1.79-4.92-4.18-5.44-3.09-.68-5.9,2.08-7.26,4.94-1.36,2.86-2.03,6.15-4.19,8.46-1.58-1.78-4.55-1.67-6.53-.36-1.98,1.31-3.18,3.51-4.15,5.68-3.55,7.97-5.08,16.84-4.39,25.54,1.57-3.49,5.53-5.75,9.33-5.31-.23-1.94-.45-3.87-.68-5.81"/>
          <g>
            <path class="cls-24" d="m181.79,336.83c-.1,1.43-.19,2.87-.29,4.3.44-1.19,2.19-1.64,3.15-.8-.21-.91.35-1.79.71-2.66.36-.86.4-2.09-.44-2.5-1-.49-1.99.66-2.51,1.64-.04-.36-.09-.71-.13-1.07l-.49,1.08Z"/>
            <path class="cls-24" d="m198.09,334.26c-1.17,1.34-1.97,3-2.29,4.75.49-.48,1.01-.98,1.66-1.22.65-.24,1.48-.13,1.89.42.26.35.35.84.73,1.04.38.2.88-.04,1.11-.41.23-.37.26-.82.29-1.25.05-.83.1-1.67-.14-2.47-.24-.79-.83-1.53-1.64-1.71-.81-.17-1.77.42-1.78,1.25l.17-.4Z"/>
            <path class="cls-24" d="m213.87,338.18c-1.24,1.67-2.07,3.66-2.38,5.72.84-.12,1.54-.67,2.21-1.19.67-.52,1.4-1.04,2.24-1.11s1.79.54,1.77,1.39c-.16-.95,0-1.93.09-2.89s.15-1.96-.21-2.86c-.36-.9-1.22-1.66-2.19-1.61s-1.79,1.18-1.34,2.03l-.18.51Z"/>
            <path class="cls-24" d="m170.46,343.88c-.87,1.64-1.33,3.49-1.32,5.35.01-.85.82-1.54,1.66-1.67.85-.12,1.69.21,2.43.65.17-.86.34-1.75.16-2.6s-.8-1.68-1.67-1.82-1.82.7-1.58,1.54c-.09-.22-.18-.44-.27-.66l.59-.78Z"/>
          </g>
          <path class="cls-7" d="m174.32,318.35c1.83-2.29,5.61-3.17,7.74-1.16,1.22,1.15,1.64,2.91,1.95,4.56.31,1.65.62,3.4,1.71,4.68,1.1,1.28,3.28,1.78,4.44.55.15,2.49.31,4.98.46,7.46,2.65-4.61,4.02-9.95,3.91-15.26-.05-2.58-.44-5.21.16-7.72s2.55-4.96,5.13-5.08c2.86-.13,5.13,2.66,5.68,5.47s-.09,5.7-.27,8.56c-.27,4.36.59,8.79,2.46,12.74.6-1.22,1.2-2.44,1.8-3.65.54,2.44,1.08,4.89,1.63,7.33.47-5.38.94-10.76,1.41-16.14.13-1.52.28-3.08.99-4.44.71-1.35,2.13-2.45,3.65-2.3,2.05.2,3.22,2.39,3.91,4.33,5.12,14.47,3.01,30.38.84,45.58,1.42.25,2.62-1.18,2.97-2.58.36-1.4.23-2.91.76-4.26.53-1.34,2.18-2.45,3.4-1.68,1.79,1.13.54,4.62,2.42,5.58.58-4.5,2.38-8.83,5.14-12.42,1.26-1.64,3.15-3.26,5.15-2.74,1.49.39,2.46,1.91,2.68,3.44.22,1.53,2.42-4.77,2.04-3.28.86-8.76-.86-9.69,0-18.45.16-1.58,2.71-4.33,1.63-5.48-1.03-1.1-4.12-2.72-5.5-2.08-1.37.63-5.84,2.86-6.72,4.08-5.58,7.71-5.2,18.87-6.94,28.23-1.48-14.27-2.96-28.77-.34-42.88,1.44-7.78,4.1-15.88,1.59-23.39-1.15-3.42-4.19-6.85-7.74-6.2-2.87.53-4.6,3.41-5.76,6.09-3.91,8.98-5.65,18.72-7.36,28.36,2.13-9.7,4.27-19.41,6.4-29.11.55-2.52,1.11-5.12.65-7.66-.46-2.54-2.19-5.03-4.72-5.56-2.51-.53-5,.96-6.89,2.68-6.75,6.18-9.27,15.6-11.47,24.49.77-2.32,1.55-4.73,1.32-7.16-.24-2.43-1.79-4.92-4.18-5.44-3.09-.68-5.9,2.08-7.26,4.94-1.36,2.86-2.03,6.15-4.19,8.46-1.58-1.78-4.55-1.67-6.53-.36-1.98,1.31-3.18,3.51-4.15,5.68-3.55,7.97-5.08,16.84-4.39,25.54,1.57-3.49,5.53-5.75,9.33-5.31-.23-1.94-.45-3.87-.68-5.81"/>
          <g class="cls-6">
            <path class="cls-15" d="m181.79,336.83c-.1,1.43-.19,2.87-.29,4.3.44-1.19,2.19-1.64,3.15-.8-.21-.91.35-1.79.71-2.66.36-.86.4-2.09-.44-2.5-1-.49-1.99.66-2.51,1.64-.04-.36-.09-.71-.13-1.07l-.49,1.08Z"/>
            <path class="cls-15" d="m198.09,334.26c-1.17,1.34-1.97,3-2.29,4.75.49-.48,1.01-.98,1.66-1.22.65-.24,1.48-.13,1.89.42.26.35.35.84.73,1.04.38.2.88-.04,1.11-.41.23-.37.26-.82.29-1.25.05-.83.1-1.67-.14-2.47-.24-.79-.83-1.53-1.64-1.71-.81-.17-1.77.42-1.78,1.25l.17-.4Z"/>
            <path class="cls-15" d="m213.87,338.18c-1.24,1.67-2.07,3.66-2.38,5.72.84-.12,1.54-.67,2.21-1.19.67-.52,1.4-1.04,2.24-1.11s1.79.54,1.77,1.39c-.16-.95,0-1.93.09-2.89s.15-1.96-.21-2.86c-.36-.9-1.22-1.66-2.19-1.61s-1.79,1.18-1.34,2.03l-.18.51Z"/>
            <path class="cls-15" d="m170.46,343.88c-.87,1.64-1.33,3.49-1.32,5.35.01-.85.82-1.54,1.66-1.67.85-.12,1.69.21,2.43.65.17-.86.34-1.75.16-2.6s-.8-1.68-1.67-1.82-1.82.7-1.58,1.54c-.09-.22-.18-.44-.27-.66l.59-.78Z"/>
          </g>
        </g>
      </g>
      <path class="cls-13" d="m159.32,416.11c2.7-7.44,4.63-13.41,4.63-13.74,0-.72,4.68-8.28,4.68-8.28v-47.21l-1.57-7.31c-.81-3.78-1.22-7.63-1.22-11.46,0-5.85.94-11.67,2.78-17.26l6.84-8.66h2.89l9.85-11.77s4.92-1.08,5.88,2.64c.96,3.73-4.8,10.09-4.8,10.09l-2.65,11.05,3.49,10.79,2.16.98s2.14-18.38,1.91-22.1l6.02-16.46s3.25-5.41,4.33-8.17c1.08-2.76,6.36-5.17,8.89,0,0,0,1.43,2.64,0,6.01-1.45,3.37-2.64,6.01-2.64,6.01,0,0-2.16,14.17-2.53,14.54-.36.35.49,21.38.49,21.38l1.8.96,2.16-19.83,5.28-18.38s.36-9.01,6.61-7.44c0,0,3-.12,4.44,3.25,1.45,3.36-1.8,24.74-1.8,24.74l-.12,22.34,1.2,17.33,3.84-11.52s1.45-16.82,12.18-17.46c0,0,3.2-.33,3.68,1.92.47,2.24-2.09,6.56-2.09,10.89,0,3.04.17,6.48.26,8.25.05.79-.05,1.59-.28,2.35-1,3.36-3.88,13.13-5.07,18.51-1.43,6.56-13.72,26.29-13.72,26.29,0,0-10.81,11.54-16.33,17.54-2.78,3.03-7.83,16-12.14,28.12"/>
      <path class="cls-4" d="m192.11,327.76c.63,2.24,0,4.79-1.61,6.47"/>
      <path class="cls-4" d="m173.79,343.64c1.56-2.42,3.08-5.74,2.66-8.58-.82-5.58-3.36-12-2.22-17.51.73-3.53,1.46-7.05,2.19-10.58"/>
      <path class="cls-13" d="m219.08,290.95c1.85-.49,3.82-.48,5.67.02.02-.53.04-1.05.06-1.58"/>
      <path class="cls-13" d="m204.16,283.86c1.09.78,2.62.89,3.81.26,1.18-.63,1.96-1.95,1.93-3.29"/>
      <path class="cls-13" d="m245.22,323.29c-3.15.72-5.51,3.98-5.21,7.2.93.28,1.86.55,2.79.83"/>
      <path class="cls-4" d="m208.66,324.68c.13,1.9-.11,6.46.02,8.37"/>
      <path class="cls-4" d="m210.75,327.32c-.23,3.12-.46,6.24-.69,9.37.02-.4.04-.79.06-1.19"/>
      <path class="cls-4" d="m228.09,353.65c.83,3.42.45,7.12-1.06,10.29"/>
      <path class="cls-13" d="m199.29,337.28c-2.48,2.72-2.11,9.23-.36,12.81"/>
      <path class="cls-13" d="m217.59,341.76c.06,2.93-1.01,5.87-3.03,8.33"/>
      <path class="cls-13" d="m181.25,338.58c-.41,2.73.2,5.6,1.69,7.92"/>
      <path class="cls-13" d="m170.71,347.06c-.12,2.14.51,4.32,1.75,6.07"/>
      <path class="cls-13" d="m185.16,294.69c1.29-.62,2.95-.36,3.97.64.47-.62.94-1.24,1.4-1.85"/>
      <path class="cls-13" d="m196.81,303.02c1.88-1.19,4.63-.73,6.01,1.02"/>
      <path class="cls-13" d="m215.02,308.71c2.03-.92,4.47-.87,6.46.14"/>
      <path class="cls-13" d="m174.51,318.24c1.18-2.03,3.62-3.25,5.95-2.95"/>
      <path class="cls-13" d="m166.89,329.1c.03-1.47,1.24-2.82,2.69-3.02"/>
    </g>
  </g>
  <g>
    <circle class="cls-22" cx="459.61" cy="200.38" r="47.08"/>
    <g>
      <g>
        <path class="cls-9" d="m512.91,201.61c-10.04,16.47-13.61,14.24-47.85,30.65-17.38,8.33-34.18-18.45-22.82-45.92.55-1.34,5.47-8.12,5.47-8.12,2.07-9.09,9.61-16.7,18.69-18.84,9.07-2.15,19.22,1.27,25.14,8.47,6.43-5.69,15.76-7.8,24.06-5.75.4,1.16.77,2.29,1.14,3.41.14.43.28.85.41,1.28.43,1.33.84,2.66,1.22,4,.75,2.54,1.44,5.1,2.09,7.68-3.78-1.06-7.59-1.08-11.18.67-2.51,1.23-4.61,3.25-7.23,4.25-2.61.99-6.23.43-7.23-2.18,1.26,5.25,6.77,3.68,12.06,4.72,8.19,1.61,10.26,8.75,6.04,15.68Z"/>
        <g>
          <path class="cls-5" d="m497.45,193.5s8.43-1.14,12.43-.54c2.54.38,4.1,1.86,4.85,2.78.35.43.54.95.58,1.5l.45,6.59c.05.75-.2,1.5-.73,2.04-1.64,1.71-6.61,4.83-21.3,5.96-20.66,1.58,3.72-18.33,3.72-18.33Z"/>
          <g>
            <path class="cls-5" d="m491.29,176.47c2.37,2.95,6.9,9.64,6.9,20.03,0,7.85-9.09,34.66-32.37,37.92-24.64,3.45-44.45-17.63-40.22-43.01,2.93-17.55,45.91-39.53,65.69-14.94Z"/>
            <ellipse class="cls-1" cx="461.18" cy="194.72" rx="35.75" ry="33.84"/>
            <ellipse class="cls-12" cx="461.11" cy="196.5" rx="29.35" ry="27.78"/>
            <path class="cls-18" d="m496.93,194.72c0-18.69-16.01-33.84-35.75-33.84s-35.75,15.15-35.75,33.84"/>
            <path class="cls-18" d="m487.5,217.63c5.86-6.03,9.43-14.07,9.43-22.9"/>
            <path class="cls-18" d="m436.14,218.87c6.45,5.99,15.29,9.69,25.04,9.69,5.99,0,11.63-1.39,16.59-3.86"/>
            <path class="cls-18" d="m430.98,212.84c.47.7.96,1.38,1.48,2.04"/>
            <path class="cls-18" d="m425.43,194.72c0,5.16,1.22,10.06,3.41,14.44"/>
          </g>
          <path class="cls-5" d="m513.65,203.98s-6.37-4.45-16.71-.42"/>
          <path class="cls-5" d="m508.16,207.08c-2.44.72-6.53,1.56-13.22,2.08"/>
          <path class="cls-5" d="m511.47,205.68s-.38.34-1.59.82"/>
        </g>
      </g>
      <path class="cls-1" d="m517.14,166.8c-.12-.43-.27-.85-.41-1.28-2.17-6.73-4.96-14.11-8.36-21.9-.62-1.44-1.28-2.91-1.94-4.39-.26.02-.51.05-.76.07-3.26.33-6.69.74-9.37,2.59-2.69,1.89-4.28,5.76-2.54,8.54,1.7,2.76,6.17,4.29,5.46,7.44-7.28,4.1-16.17,3.62-24.27,5.69-4.87,1.24-9.49,3.43-13.53,6.38-.01,0-.01.01-.02.01-1.28.97-2.52,1.99-3.68,3.09-.51.49-1.05,1.02-1.5,1.61t-.01.02c-.67.85-1.18,1.81-1.28,2.89-.28,3.03,2.48,5.1,5.42,6.42.55.25.51,1.03-.05,1.23-1.92.77-3.79,1.67-5.31,3.07-.01,0-.02.01-.03.02-.93.84-.17,2.42,1.1,2.25.14-.02.31-.03.45-.05,1.25-.09,2.42.06,3.43.41,1.74.61,2.95,1.79,3.08,3.25.18,2.31-2.44,4.39-5.85,4.65-.83.08-.19,1.07,1.02,1.27,2.42.43,4.88-.03,7.27-.59,2.85-.68,5.9-1.67,7.51-4.11.68-1.03.89-2.39.68-3.61-.28-1.68-1.34-3.15-3.02-3.32,5.27-.62,10.5-1.67,15.59-3.12h.01l1.6-.49c1.52-.45,3.12-1.01,4.4-1.92.8-.57,1.45-1.24,1.92-2.11,1.18-2.28-.49-5.9-3.01-5.42,7.33-2.87,15.08-4.56,22.48-7.2,1.18-.43,2.36-.89,3.52-1.39Z"/>
    </g>
  </g>
  <g id="monitor">
    <path class="cls-5" d="m465.45,57.23l-381.1,1.74,5.76-8.64c2.77-4.15,7.44-6.65,12.43-6.65h344.85c4.52,0,8.8,2.05,11.64,5.57l6.42,7.97Z"/>
    <g>
      <g>
        <rect class="cls-21" x="221.86" y="114.36" width="98.48" height="98.48" rx="34.15" ry="34.15"/>
        <path class="cls-19" d="m239.76,171.92v14c0,4.39,3.56,7.95,7.95,7.95h48.02c4.37,0,7.91-3.53,7.95-7.9.06-6.3.4-14.05.4-14.05h-64.32Z"/>
        <g>
          <path class="cls-20" d="m415.51,176.59H134.68c-2.97,0-5.63-1.82-6.7-4.58l-43.32-111.17c-1.13-2.91,1.01-6.05,4.13-6.05h372.61c3.12,0,5.27,3.14,4.13,6.05l-43.32,111.17c-1.08,2.76-3.74,4.58-6.7,4.58Z"/>
          <polygon class="cls-12" points="417.59 166.9 131.92 166.9 92.61 61.84 456.72 61.84 417.59 166.9"/>
        </g>
      </g>
      <rect class="cls-12" x="240.07" y="176.44" width="63.69" height="4.36"/>
      <g>
        <g>
          <path class="cls-15" d="m375.86,162.39h-201.73c-1.11,0-2.17-.5-2.36-1.13l-28.69-91.16c-.32-1.02.57-1.86,2-1.86h259.84c1.43,0,2.32.83,2,1.86l-28.69,91.16c-.2.62-1.25,1.13-2.36,1.13Z"/>
          <polygon class="cls-12" points="375.12 160.33 174.87 160.33 150.49 80.22 399.5 80.22 375.12 160.33"/>
          <g>
            <path class="cls-1" d="m203.62,100.11h-37.91c-.94,0-1.55.5-1.37,1.13.18.62,1.07,1.12,2,1.12h37.69c.93,0,1.6-.5,1.48-1.12-.11-.62-.96-1.13-1.9-1.13Z"/>
            <path class="cls-1" d="m204.89,107.03h-32.24c-.92,0-1.53.49-1.37,1.09.16.6,1.04,1.08,1.95,1.08h32.06c.91,0,1.57-.48,1.46-1.08-.11-.6-.94-1.09-1.86-1.09Z"/>
            <path class="cls-3" d="m206.11,113.71h-36.58c-.9,0-1.5.47-1.34,1.05.16.58,1.03,1.04,1.92,1.04h36.38c.9,0,1.54-.47,1.44-1.04-.1-.58-.92-1.05-1.82-1.05Z"/>
            <path class="cls-1" d="m207.29,120.16h-21.49c-.89,0-1.5.45-1.36,1.01.14.56.96,1.01,1.85,1.01h21.37c.88,0,1.52-.45,1.42-1.01-.1-.56-.9-1.01-1.79-1.01Z"/>
            <path class="cls-1" d="m208.44,126.39h-35.35c-.87,0-1.46.44-1.3.98.15.54.98.97,1.85.97h35.16c.87,0,1.49-.44,1.4-.97-.1-.54-.88-.98-1.76-.98Z"/>
            <path class="cls-1" d="m209.54,132.42h-28.54c-.86,0-1.44.42-1.3.95.14.52.94.94,1.8.94h28.39c.85,0,1.47-.42,1.38-.94-.09-.52-.87-.95-1.72-.95Z"/>
            <path class="cls-1" d="m210.61,138.25h-28.08c-.84,0-1.42.41-1.28.92.13.5.92.91,1.76.91h27.93c.84,0,1.45-.41,1.36-.91-.09-.51-.85-.92-1.69-.92Z"/>
            <path class="cls-1" d="m211.65,143.89h-30.64c-.83,0-1.39.4-1.26.89.13.49.91.88,1.74.88h30.48c.83,0,1.43-.39,1.34-.88-.09-.49-.83-.89-1.66-.89Z"/>
            <path class="cls-3" d="m212.65,149.35h-19.79c-.82,0-1.39.39-1.27.86.12.47.87.86,1.68.86h19.69c.81,0,1.4-.38,1.32-.86-.08-.47-.82-.86-1.63-.86Z"/>
            <path class="cls-3" d="m202.3,92.93h-28.25c-.95,0-1.59.52-1.42,1.17.17.64,1.07,1.16,2.02,1.16h28.09c.95,0,1.62-.52,1.51-1.16-.12-.64-.98-1.17-1.94-1.17Z"/>
            <path class="cls-1" d="m200.93,85.49h-39.33c-.97,0-1.6.54-1.41,1.21.19.67,1.13,1.2,2.09,1.2h39.1c.97,0,1.65-.54,1.53-1.2-.12-.67-1-1.21-1.98-1.21Z"/>
            <path class="cls-1" d="m213.62,154.64h-32.6c-.8,0-1.35.37-1.22.83.13.46.89.83,1.69.83h32.43c.8,0,1.38-.37,1.3-.83-.08-.46-.8-.83-1.61-.83Z"/>
            <polygon class="cls-3" points="216.93 102.64 224.28 102.64 223.92 99.83 216.51 99.83 216.93 102.64"/>
            <polygon class="cls-3" points="217.96 109.47 225.18 109.47 224.83 106.76 217.55 106.76 217.96 109.47"/>
            <polygon class="cls-3" points="218.95 116.06 226.05 116.06 225.7 113.45 218.55 113.45 218.95 116.06"/>
            <polygon class="cls-3" points="219.9 122.43 226.88 122.43 226.55 119.91 219.52 119.91 219.9 122.43"/>
            <polygon class="cls-3" points="220.83 128.59 227.69 128.59 227.37 126.15 220.46 126.15 220.83 128.59"/>
            <polygon class="cls-3" points="221.72 134.54 228.47 134.54 228.16 132.18 221.37 132.18 221.72 134.54"/>
            <polygon class="cls-3" points="222.59 140.3 229.23 140.3 228.93 138.02 222.24 138.02 222.59 140.3"/>
            <polygon class="cls-3" points="223.43 145.88 229.96 145.88 229.67 143.66 223.09 143.66 223.43 145.88"/>
            <polygon class="cls-3" points="224.24 151.28 230.66 151.28 230.38 149.13 223.91 149.13 224.24 151.28"/>
            <polygon class="cls-3" points="215.87 95.55 223.36 95.55 222.97 92.64 215.43 92.64 215.87 95.55"/>
            <polygon class="cls-3" points="214.76 88.21 222.39 88.21 222 85.18 214.31 85.18 214.76 88.21"/>
            <polygon class="cls-3" points="225.02 156.51 231.35 156.51 231.08 154.43 224.71 154.43 225.02 156.51"/>
            <path class="cls-1" d="m263.77,144.77c-.02-.49.64-.89,1.48-.89h108.85c.83,0,1.39.4,1.25.89-.14.49-.93.88-1.75.88h-108.29c-.83,0-1.51-.39-1.53-.88Z"/>
            <path class="cls-1" d="m375.19,140.07h-60.27c-.84,0-1.48-.41-1.42-.91.06-.51.79-.92,1.63-.92h60.59c.84,0,1.41.41,1.26.92-.15.5-.95.91-1.79.91Z"/>
            <path class="cls-3" d="m300.61,140.07h-18.75c-.84,0-1.51-.41-1.51-.91,0-.51.7-.92,1.54-.92h18.85c.84,0,1.5.41,1.46.92-.04.5-.75.91-1.59.91Z"/>
            <path class="cls-1" d="m339.74,134.31h-85.02c-.85,0-1.57-.42-1.6-.94-.03-.52.64-.95,1.5-.95h85.47c.86,0,1.47.42,1.38.95-.1.52-.87.94-1.72.94Z"/>
            <path class="cls-3" d="m236.95,132.42h6.06c.86,0,1.59.42,1.63.95.04.52-.61.94-1.47.94h-6.03c-.85,0-1.59-.42-1.65-.94-.06-.52.59-.95,1.45-.95Z"/>
            <path class="cls-1" d="m352.04,127.37c-.11.54-.91.97-1.78.97h-80.12c-.87,0-1.58-.44-1.59-.97,0-.54.69-.98,1.56-.98h80.55c.87,0,1.49.44,1.37.98Z"/>
            <path class="cls-1" d="m236.3,126.39h22.74c.87,0,1.6.44,1.62.98.02.54-.67.97-1.53.97h-22.62c-.87,0-1.62-.44-1.68-.97-.06-.54.6-.98,1.47-.98Z"/>
            <path class="cls-1" d="m235.64,120.16h87.4c.89,0,1.55.45,1.47,1.01-.07.56-.85,1.01-1.73,1.01h-86.92c-.88,0-1.65-.45-1.71-1.01-.06-.56.61-1.01,1.5-1.01Z"/>
            <path class="cls-1" d="m292.38,115.8c-.9,0-1.61-.47-1.58-1.04.02-.58.78-1.05,1.68-1.05h46.12c.9,0,1.55.47,1.45,1.05-.1.58-.91,1.04-1.81,1.04h-45.86Z"/>
            <path class="cls-1" d="m234.95,113.71h39.91c.9,0,1.63.47,1.63,1.05,0,.58-.73,1.04-1.63,1.04h-39.69c-.9,0-1.68-.47-1.74-1.04-.06-.58.62-1.05,1.52-1.05Z"/>
            <path class="cls-1" d="m384.05,109.2h-109.85c-.91,0-1.66-.48-1.66-1.08,0-.6.74-1.09,1.66-1.09h110.48c.92,0,1.52.49,1.35,1.09-.17.6-1.06,1.08-1.97,1.08Z"/>
            <path class="cls-1" d="m386.01,102.36h-96.67c-.93,0-1.67-.5-1.65-1.12.02-.62.8-1.13,1.73-1.13h97.23c.94,0,1.55.5,1.37,1.13-.18.62-1.08,1.12-2.01,1.12Z"/>
            <path class="cls-3" d="m388.05,95.26h-20.24c-.95,0-1.6-.52-1.45-1.16.15-.64,1.04-1.17,2-1.17h20.36c.95,0,1.57.52,1.39,1.17-.19.64-1.11,1.16-2.05,1.16Z"/>
            <path class="cls-1" d="m353.64,95.26h-74.33c-.95,0-1.71-.52-1.71-1.16,0-.64.78-1.17,1.73-1.17h74.77c.95,0,1.62.52,1.49,1.17-.13.64-1.01,1.16-1.95,1.16Z"/>
            <path class="cls-1" d="m238.75,149.35h68.64c.82,0,1.44.39,1.39.86-.05.47-.74.86-1.56.86h-68.29c-.81,0-1.52-.38-1.57-.86-.05-.47.57-.86,1.39-.86Z"/>
            <path class="cls-1" d="m239.32,154.64h105.46c.8,0,1.38.37,1.28.83-.1.46-.83.83-1.63.83h-104.94c-.8,0-1.49-.37-1.54-.83-.05-.46.56-.83,1.36-.83Z"/>
            <path class="cls-1" d="m349.96,87.91h-53.69c-.97,0-1.72-.54-1.69-1.2.03-.67.85-1.21,1.82-1.21h54.01c.97,0,1.65.54,1.53,1.21-.13.67-1.01,1.2-1.98,1.2Z"/>
            <path class="cls-3" d="m281.04,87.91h-48.84c-.97,0-1.81-.54-1.88-1.2-.07-.67.65-1.21,1.62-1.21h49.13c.97,0,1.75.54,1.74,1.21-.01.67-.81,1.2-1.77,1.2Z"/>
            <path class="cls-3" d="m322.62,149.35c.82,0,1.42.39,1.36.86-.07.47-.78.86-1.6.86h-5.31c-.81,0-1.43-.38-1.37-.86.06-.47.77-.86,1.58-.86h5.33Z"/>
            <path class="cls-3" d="m257.51,144.77c.02.49-.63.88-1.45.88h-7.23c-.83,0-1.53-.39-1.57-.88-.04-.49.6-.89,1.43-.89h7.27c.83,0,1.52.4,1.55.89Z"/>
            <path class="cls-3" d="m344.71,121.17c-.11.56-.91,1.01-1.79,1.01h-8.45c-.88,0-1.53-.45-1.44-1.01.09-.56.88-1.01,1.77-1.01h8.5c.89,0,1.52.45,1.42,1.01Z"/>
            <path class="cls-3" d="m371.07,126.39c.87,0,1.46.44,1.32.98-.14.54-.97.97-1.83.97h-6.74c-.87,0-1.47-.44-1.34-.97.13-.54.94-.98,1.82-.98h6.77Z"/>
            <path class="cls-3" d="m260.89,109.2c-.91,0-1.68-.48-1.7-1.08-.02-.6.7-1.09,1.62-1.09h7.17c.92,0,1.67.49,1.68,1.09,0,.6-.73,1.08-1.64,1.08h-7.13Z"/>
          </g>
        </g>
        <g>
          <path class="cls-1" d="m163.26,74.22c.56,1.86-.52,3.35-2.39,3.35s-3.87-1.49-4.47-3.35c-.61-1.89.45-3.43,2.37-3.43s3.93,1.55,4.5,3.43Z"/>
          <path class="cls-1" d="m172.51,74.27c.5,1.86-.63,3.35-2.5,3.35s-3.82-1.49-4.36-3.35c-.55-1.88.56-3.43,2.48-3.43s3.88,1.55,4.39,3.43Z"/>
          <path class="cls-1" d="m181.86,74.22c.43,1.86-.74,3.35-2.61,3.35s-3.78-1.49-4.26-3.35c-.49-1.89.67-3.43,2.59-3.43s3.83,1.55,4.28,3.43Z"/>
        </g>
      </g>
      <g>
        <polygon class="cls-2" points="92.61 61.84 123.22 143.66 160.15 61.84 92.61 61.84"/>
        <polygon class="cls-2" points="144.26 166.9 205.52 61.84 269.66 61.84 179.49 166.9 144.26 166.9"/>
        <polygon class="cls-2" points="297.3 61.32 201.81 166.9 216.51 166.9 315.43 61.84 297.3 61.32"/>
        <polygon class="cls-2" points="316.15 166.9 421.1 61.84 435.91 61.84 327.71 166.9 316.15 166.9"/>
      </g>
    </g>
  </g>
  <g id="coding">
    <g id="code9">
      <path class="cls-5" d="m173.86,212.51h-23.97c-3.11,0-5.63,2.52-5.63,5.63v11.66c0,3.11,2.52,5.63,5.63,5.63h6.26l4.75,10.76,6.69-10.76h6.26c3.11,0,5.63-2.52,5.63-5.63v-11.66c0-3.11-2.52-5.63-5.63-5.63Z"/>
      <g>
        <path class="cls-12" d="m158.55,219.17c0-.61.5-1.09,1.17-1.09s1.17.45,1.17,1.05c0,.64-.48,1.14-1.17,1.14s-1.17-.48-1.17-1.1Zm.25,2.38h1.82v7.79h-1.82v-7.79Z"/>
        <path class="cls-12" d="m165.02,221.15v.47h2.15v1.46h-2.09v6.28h-1.82v-6.28h-1.28v-1.46h1.28v-.5c0-1.63.98-2.7,2.79-2.7.63,0,1.24.13,1.65.42l-.51,1.37c-.28-.19-.63-.32-1.01-.32-.76,0-1.15.42-1.15,1.25Z"/>
      </g>
    </g>
    <g id="code8">
      <path class="cls-5" d="m246.81,214.14h-23.97c-3.11,0-5.63,2.52-5.63,5.63v11.66c0,3.11,2.52,5.63,5.63,5.63h6.26l4.75,10.76,6.69-10.76h6.26c3.11,0,5.63-2.52,5.63-5.63v-11.66c0-3.11-2.52-5.63-5.63-5.63Z"/>
      <g>
        <path class="cls-12" d="m227.88,227.67h-6.12c.22,1.14,1.17,1.87,2.52,1.87.88,0,1.56-.28,2.12-.85l.98,1.12c-.7.83-1.79,1.27-3.14,1.27-2.61,0-4.31-1.68-4.31-4s1.71-3.98,4.03-3.98,3.94,1.59,3.94,4.03c0,.15-.01.37-.03.54Zm-6.13-1.21h4.42c-.15-1.12-1.01-1.9-2.2-1.9s-2.04.76-2.22,1.9Z"/>
        <path class="cls-12" d="m229.66,220.15h1.82v10.83h-1.82v-10.83Z"/>
        <path class="cls-12" d="m232.98,230.21l.7-1.39c.69.45,1.74.77,2.71.77,1.15,0,1.63-.32,1.63-.86,0-1.49-4.82-.09-4.82-3.2,0-1.47,1.33-2.44,3.43-2.44,1.04,0,2.22.25,2.92.67l-.7,1.39c-.74-.44-1.49-.58-2.23-.58-1.11,0-1.63.37-1.63.88,0,1.58,4.82.17,4.82,3.23,0,1.46-1.34,2.41-3.53,2.41-1.3,0-2.6-.38-3.3-.88Z"/>
        <path class="cls-12" d="m248.68,227.67h-6.12c.22,1.14,1.17,1.87,2.53,1.87.88,0,1.56-.28,2.12-.85l.98,1.12c-.7.83-1.8,1.27-3.14,1.27-2.61,0-4.31-1.68-4.31-4s1.71-3.98,4.03-3.98,3.94,1.59,3.94,4.03c0,.15-.01.37-.03.54Zm-6.13-1.21h4.42c-.15-1.12-1.01-1.9-2.2-1.9s-2.04.76-2.22,1.9Z"/>
      </g>
    </g>
    <g id="code7">
      <path class="cls-5" d="m317.54,213.45h-23.97c-3.11,0-5.63,2.52-5.63,5.63v11.66c0,3.11,2.52,5.63,5.63,5.63h6.26l4.75,10.76,6.69-10.76h6.26c3.11,0,5.63-2.52,5.63-5.63v-11.66c0-3.11-2.52-5.63-5.63-5.63Z"/>
      <g>
        <path class="cls-12" d="m299.07,222.09v.47h2.15v1.46h-2.09v6.28h-1.83v-6.28h-1.28v-1.46h1.28v-.5c0-1.63.98-2.7,2.79-2.7.63,0,1.24.13,1.65.42l-.51,1.37c-.28-.19-.63-.32-1.01-.32-.76,0-1.15.42-1.15,1.25Z"/>
        <path class="cls-12" d="m301.68,226.39c0-2.33,1.75-3.98,4.14-3.98s4.16,1.65,4.16,3.98-1.74,4-4.16,4-4.14-1.66-4.14-4Zm6.47,0c0-1.49-.99-2.44-2.32-2.44s-2.31.95-2.31,2.44.99,2.44,2.31,2.44,2.32-.95,2.32-2.44Z"/>
        <path class="cls-12" d="m316.24,222.41v1.74c-.16-.03-.29-.04-.42-.04-1.39,0-2.26.82-2.26,2.41v3.78h-1.82v-7.79h1.74v1.14c.53-.82,1.47-1.23,2.77-1.23Z"/>
      </g>
    </g>
    <g id="code6">
      <path class="cls-5" d="m387.24,212.51h-23.97c-3.11,0-5.63,2.52-5.63,5.63v11.66c0,3.11,2.52,5.63,5.63,5.63h6.26l4.75,10.76,6.69-10.76h6.26c3.11,0,5.63-2.52,5.63-5.63v-11.66c0-3.11-2.52-5.63-5.63-5.63Z"/>
      <path class="cls-12" d="m372.15,221.17h6.73v1.46h-6.73v-1.46Zm0,3.53h6.73v1.46h-6.73v-1.46Z"/>
    </g>
    <g id="code5">
      <path class="cls-5" d="m210.39,199.01h-23.97c-3.11,0-5.63,2.52-5.63,5.63v11.66c0,3.11,2.52,5.63,5.63,5.63h6.26l4.75,10.76,6.69-10.76h6.26c3.11,0,5.63-2.52,5.63-5.63v-11.66c0-3.11-2.52-5.63-5.63-5.63Z"/>
      <g>
        <path class="cls-12" d="m192.77,203.86h3.49v1.46h-1.66v10.74h1.66v1.46h-3.49v-13.66Z"/>
        <path class="cls-12" d="m200.78,217.52v-1.46h1.65v-10.74h-1.65v-1.46h3.47v13.66h-3.47Z"/>
      </g>
    </g>
    <g id="code4">
      <path class="cls-5" d="m281.64,197.82h-23.97c-3.11,0-5.63,2.52-5.63,5.63v11.66c0,3.11,2.52,5.63,5.63,5.63h6.26l4.75,10.76,6.69-10.76h6.26c3.11,0,5.63-2.52,5.63-5.63v-11.66c0-3.11-2.52-5.63-5.63-5.63Z"/>
      <g>
        <path class="cls-12" d="m264.78,209.45c.58.19.86.58.86,1.49v2.77c0,.7.35,1.11,1.08,1.11h.31v1.46h-.73c-1.65,0-2.48-.83-2.48-2.38v-3.01c0-.48-.25-.7-.66-.7h-.48v-1.49h.48c.41,0,.66-.22.66-.7v-3.01c0-1.55.83-2.38,2.48-2.38h.73v1.46h-.31c-.73,0-1.08.41-1.08,1.11v2.77c0,.91-.28,1.3-.86,1.49Z"/>
        <path class="cls-12" d="m275.91,208.7v1.49h-.5c-.39,0-.64.22-.64.7v3.01c0,1.55-.85,2.38-2.5,2.38h-.73v-1.46h.31c.74,0,1.09-.41,1.09-1.11v-2.77c0-.9.26-1.3.85-1.49-.58-.19-.85-.58-.85-1.49v-2.77c0-.7-.35-1.11-1.09-1.11h-.31v-1.46h.73c1.65,0,2.5.83,2.5,2.38v3.01c0,.48.25.7.64.7h.5Z"/>
      </g>
    </g>
    <g id="code3">
      <path class="cls-5" d="m352.14,195.46h-23.97c-3.11,0-5.63,2.52-5.63,5.63v11.66c0,3.11,2.52,5.63,5.63,5.63h6.26l4.75,10.76,6.69-10.76h6.26c3.11,0,5.63-2.52,5.63-5.63v-11.66c0-3.11-2.52-5.63-5.63-5.63Z"/>
      <path class="cls-12" d="m339.2,204.09c0-.73.54-1.21,1.2-1.21s1.2.48,1.2,1.21-.54,1.21-1.2,1.21-1.2-.51-1.2-1.21Zm2.39,5.56c0,.32-.07.58-.34,1.26l-.74,2.06h-1.18l.58-2.23c-.41-.17-.69-.55-.69-1.08,0-.73.51-1.21,1.18-1.21s1.18.5,1.18,1.21Z"/>
    </g>
    <g id="code2">
      <path class="cls-5" d="m258.44,399.3h23.97c3.11,0,5.63-2.52,5.63-5.63v-11.66c0-3.11-2.52-5.63-5.63-5.63h-6.26l-1.83-10.76-9.61,10.76h-6.26c-3.11,0-5.63,2.52-5.63,5.63v11.66c0,3.11,2.52,5.63,5.63,5.63Z"/>
      <g>
        <path class="cls-12" d="m266.87,385.44l-5.04,1.88,5.04,1.88v1.52l-6.73-2.61v-1.58l6.73-2.61v1.52Z"/>
        <path class="cls-12" d="m272.17,380.15h1.63l-4.82,13.75h-1.64l4.82-13.75Z"/>
        <path class="cls-12" d="m280.88,386.54v1.58l-6.73,2.61v-1.52l5.04-1.88-5.04-1.88v-1.52l6.73,2.61Z"/>
      </g>
    </g>
    <g id="code1">
      <path class="cls-5" d="m106.08,314.39h23.97c3.11,0,5.63-2.52,5.63-5.63v-11.66c0-3.11-2.52-5.63-5.63-5.63h-6.26l1.36-10.76-12.8,10.76h-6.26c-3.11,0-5.63,2.52-5.63,5.63v11.66c0,3.11,2.52,5.63,5.63,5.63Z"/>
      <g>
        <path class="cls-12" d="m113.18,307c0-.63.5-1.12,1.18-1.12s1.15.5,1.15,1.12-.48,1.14-1.15,1.14-1.18-.51-1.18-1.14Zm.1-9.18h2.16l-.37,6.83h-1.44l-.35-6.83Z"/>
        <path class="cls-12" d="m117.33,300.43h6.73v1.46h-6.73v-1.46Zm0,3.53h6.73v1.46h-6.73v-1.46Z"/>
      </g>
    </g>
  </g>
  <g id="mouse">
    <g id="mouse_1">
      <g>
        <g>
          <path class="cls-1" d="m489.82,301.17c0,4.68-.39,9.21-1.11,13.48-3.29,19.66-13.63,34-25.86,34-1.09,0-2.19-.12-3.25-.34-13.35-2.83-23.7-22.85-23.7-47.14,0-26.22,12.07-35.5,26.95-35.5s26.96,9.27,26.96,35.5Z"/>
          <g class="cls-8">
            <g>
              <path class="cls-24" d="m480.05,301.47c1,14.06-1.42,28.2-5.47,41.7,10.16-8.33,14.83-21.44,19.05-33.88,3.07-9.03,6.17-18.35,5.62-27.87-.55-9.52-5.66-19.43-14.59-22.77-4.37-1.63-9.45-1.51-13.77.22-7.49,3-3.39,5.44-.25,10.82,5.63,9.63,8.62,20.7,9.41,31.78Z"/>
              <path class="cls-7" d="m480.05,301.47c1,14.06-1.42,28.2-5.47,41.7,10.16-8.33,14.83-21.44,19.05-33.88,3.07-9.03,6.17-18.35,5.62-27.87-.55-9.52-5.66-19.43-14.59-22.77-4.37-1.63-9.45-1.51-13.77.22-7.49,3-3.39,5.44-.25,10.82,5.63,9.63,8.62,20.7,9.41,31.78Z"/>
            </g>
          </g>
          <path class="cls-13" d="m489.82,301.17c0,4.68-.39,9.21-1.11,13.48-3.29,19.66-13.63,34-25.86,34-1.09,0-2.19-.12-3.25-.34-13.35-2.83-23.7-22.85-23.7-47.14,0-26.22,12.07-35.5,26.95-35.5s26.96,9.27,26.96,35.5Z"/>
        </g>
        <g>
          <path class="cls-4" d="m477.34,325.3c-1.8,6.05-4.79,11.74-8.84,16.59"/>
          <path class="cls-13" d="m478.2,321.99c-.14.64-.3,1.28-.47,1.91"/>
          <path class="cls-4" d="m478.13,301.11c1.44,6.05,1.58,12.37.54,18.5"/>
        </g>
        <path class="cls-13" d="m435.91,301.18s30.64-12.11,53.91,0"/>
        <path class="cls-4" d="m462.86,265.68s3.07,11.36,3.42,29.84"/>
        <path class="cls-20" d="m467.14,279.5c.39,3.53-.22,6.54-1.37,6.72-1.15.18-2.4-2.53-2.79-6.06-.39-3.53.22-6.54,1.37-6.72,1.15-.18,2.4,2.53,2.79,6.06Z"/>
      </g>
    </g>
    <path class="cls-14" d="m450.77,357.74h-35.92c-4.48,0-8.16-3.32-8.74-7.62-.08-.39-.1-.8-.1-1.22v-84.74c0-.41.02-.82.1-1.23.58-4.31,4.26-7.61,8.74-7.61h101.92c1.54,0,2.99.4,4.24,1.09"/>
  </g>
</svg>